<svg width="20" height="20" viewBox="0 0 20 20" fill="none" xmlns="http://www.w3.org/2000/svg">
<path d="M14.2953 7.87469H13.5796C13.3943 7.87469 13.244 8.02493 13.244 8.21028C13.244 8.39559 13.3943 8.54587 13.5796 8.54587H14.2953C14.4807 8.54587 14.6309 8.39563 14.6309 8.21028C14.6309 8.02493 14.4807 7.87469 14.2953 7.87469Z" fill="#DADADA"/>
<path d="M13.8373 10.3809H6.16357C5.94853 10.3809 5.74931 10.4781 5.61693 10.6476C5.48458 10.8171 5.43857 11.0339 5.49076 11.2426L5.66974 11.9585C5.74708 12.2678 6.02376 12.4838 6.34255 12.4838H13.6583C13.9771 12.4838 14.2538 12.2678 14.3311 11.9585L14.5101 11.2426C14.5623 11.0339 14.5163 10.8171 14.384 10.6476C14.2516 10.4781 14.0524 10.3809 13.8373 10.3809ZM13.859 11.0798L13.68 11.7957C13.6775 11.8057 13.6686 11.8126 13.6583 11.8126H6.34255C6.33228 11.8126 6.32329 11.8056 6.32083 11.7957L6.14185 11.0798C6.14103 11.0766 6.13919 11.0692 6.14591 11.0606C6.15263 11.052 6.16029 11.052 6.16353 11.052H13.8373C13.8406 11.052 13.8482 11.052 13.8549 11.0606C13.8617 11.0692 13.8598 11.0766 13.859 11.0798Z" fill="#DADADA"/>
<path d="M18.9486 8.54642C19.5283 8.54642 20 8.07474 20 7.49497C20 6.91521 19.5283 6.44353 18.9486 6.44353H18.5906C18.0679 6.44353 17.6331 6.82712 17.5527 7.32755L16.6575 4.86572C16.4557 4.31075 15.9234 3.93794 15.3329 3.93794H12.7807L12.5918 2.99353C12.4939 2.50372 12.0602 2.14825 11.5608 2.14825H8.43922C7.93977 2.14825 7.50617 2.50372 7.4082 2.99353L7.21934 3.93794H4.66711C4.07664 3.93794 3.54434 4.31079 3.34258 4.86568L2.44738 7.32751C2.36695 6.82712 1.93219 6.44353 1.40941 6.44353H1.05148C0.47168 6.44353 0 6.91521 0 7.49497C0 8.07474 0.47168 8.54642 1.05145 8.54642H1.40938C1.57465 8.54642 1.73109 8.50798 1.87035 8.43974L1.10316 9.39876C0.853398 9.71095 0.715859 10.103 0.715859 10.5028V17.1594C0.715859 17.5418 1.02695 17.8529 1.40938 17.8529H2.4832C2.86562 17.8529 3.17672 17.5418 3.17672 17.1594V15.7052H16.8232V17.1594C16.8232 17.5418 17.1343 17.8529 17.5168 17.8529H18.5906C18.973 17.8529 19.2841 17.5418 19.2841 17.1594V10.5028C19.2841 10.103 19.1466 9.71091 18.8968 9.39876L18.1296 8.43974C18.2689 8.50798 18.4253 8.54642 18.5906 8.54642H18.9486ZM8.06629 3.12509C8.10172 2.94794 8.25855 2.81935 8.43918 2.81935H11.5607C11.7414 2.81935 11.8982 2.94794 11.9336 3.12509L12.0962 3.93794H7.90371L8.06629 3.12509ZM1.40941 7.87529H1.05148C0.841758 7.87529 0.671172 7.7047 0.671172 7.49497C0.671172 7.28525 0.841758 7.11466 1.05148 7.11466H1.40941C1.61914 7.11466 1.78973 7.28525 1.78973 7.49497C1.78973 7.70466 1.6191 7.87529 1.40941 7.87529ZM2.50559 17.1594C2.50559 17.1717 2.49555 17.1818 2.4832 17.1818H1.40938C1.39703 17.1818 1.38699 17.1717 1.38699 17.1594V15.4958C1.60184 15.6284 1.85473 15.7052 2.12523 15.7052H2.50555L2.50559 17.1594ZM13.9597 15.0341H6.04027V14.2959C6.04027 14.2835 6.05031 14.2735 6.06266 14.2735H13.9374C13.9497 14.2735 13.9598 14.2835 13.9598 14.2959L13.9597 15.0341ZM18.5906 17.1818H17.5168C17.5044 17.1818 17.4944 17.1717 17.4944 17.1594V15.7052H17.8747C18.1452 15.7052 18.3981 15.6284 18.6129 15.4958V17.1594C18.613 17.1717 18.603 17.1818 18.5906 17.1818ZM18.613 10.5028V14.2958C18.613 14.7029 18.2818 15.0341 17.8747 15.0341H14.6309V14.2959C14.6309 13.9134 14.3198 13.6024 13.9373 13.6024H6.06266C5.68023 13.6024 5.36914 13.9134 5.36914 14.2959V15.0341H2.12527C1.7182 15.0341 1.38703 14.7029 1.38703 14.2959V10.5028C1.38703 10.2549 1.47234 10.0117 1.62727 9.81802L2.64449 8.54642H12.1477C12.333 8.54642 12.4832 8.39618 12.4832 8.21083C12.4832 8.02552 12.333 7.87525 12.1477 7.87525H2.96234L3.97336 5.09497C4.07902 4.80431 4.35785 4.60904 4.66715 4.60904H15.3329C15.6422 4.60904 15.921 4.80435 16.0267 5.09497L17.0377 7.87525H15.7271C15.5418 7.87525 15.3916 8.02548 15.3916 8.21083C15.3916 8.39614 15.5418 8.54642 15.7271 8.54642H17.3556L18.3729 9.81802C18.5277 10.0117 18.613 10.2548 18.613 10.5028ZM18.2103 7.49497C18.2103 7.28525 18.3809 7.11466 18.5906 7.11466H18.9485C19.1582 7.11466 19.3288 7.28525 19.3288 7.49497C19.3288 7.7047 19.1582 7.87529 18.9485 7.87529H18.5906C18.3809 7.87529 18.2103 7.70466 18.2103 7.49497Z" fill="#DADADA"/>
<path d="M3.5571 12.8862C3.17468 12.8862 2.86359 13.1973 2.86359 13.5797C2.86359 13.9621 3.17468 14.2732 3.5571 14.2732C3.93952 14.2732 4.25062 13.9621 4.25062 13.5797C4.25062 13.1973 3.93952 12.8862 3.5571 12.8862Z" fill="#DADADA"/>
<path d="M16.4428 12.8862C16.0604 12.8862 15.7493 13.1973 15.7493 13.5797C15.7493 13.9621 16.0604 14.2732 16.4428 14.2732C16.8252 14.2732 17.1363 13.9621 17.1363 13.5797C17.1363 13.1973 16.8252 12.8862 16.4428 12.8862Z" fill="#DADADA"/>
<path d="M3.37838 10.0231C2.6999 10.0231 2.14795 10.5751 2.14795 11.2536C2.14795 11.932 2.6999 12.484 3.37838 12.484C4.05685 12.484 4.60881 11.932 4.60881 11.2536C4.60881 10.5751 4.05685 10.0231 3.37838 10.0231ZM3.37838 11.8128C3.06998 11.8128 2.81908 11.562 2.81908 11.2535C2.81908 10.9451 3.06994 10.6942 3.37838 10.6942C3.68682 10.6942 3.93767 10.9451 3.93767 11.2535C3.93764 11.562 3.68678 11.8128 3.37838 11.8128Z" fill="#DADADA"/>
<path d="M16.6219 10.0231C15.9434 10.0231 15.3915 10.5751 15.3915 11.2536C15.3915 11.932 15.9434 12.484 16.6219 12.484C17.3004 12.484 17.8523 11.932 17.8523 11.2536C17.8523 10.5751 17.3004 10.0231 16.6219 10.0231ZM16.6219 11.8128C16.3135 11.8128 16.0626 11.562 16.0626 11.2535C16.0626 10.9451 16.3135 10.6942 16.6219 10.6942C16.9303 10.6942 17.1812 10.9451 17.1812 11.2535C17.1812 11.562 16.9303 11.8128 16.6219 11.8128Z" fill="#DADADA"/>
</svg>
