<svg width="20" height="20" viewBox="0 0 20 20" fill="none" xmlns="http://www.w3.org/2000/svg">
<path d="M0 18.2275C0 19.206 0.887034 20 1.96012 20H13.4665C14.4281 20 15.2287 19.3616 15.3846 18.5246C16.3085 18.3871 17.0163 17.6555 17.0163 16.7747V8.79033H17.9515C18.0166 8.79159 18.0806 8.77457 18.1357 8.74166L19.8464 7.68051C19.9423 7.62129 20 7.51969 20 7.4107C20 7.30186 19.9423 7.20026 19.8464 7.14104L18.1357 6.06918C18.0818 6.03248 18.0178 6.01122 17.9515 6.00807H17.0163V4.24837C17.0079 4.14016 16.9536 4.03998 16.8662 3.97068L12.972 0.182086C12.9502 0.152317 12.9235 0.12617 12.8927 0.104906L12.8821 0.0954559C12.8185 0.034027 12.7315 -0.00046774 12.6411 4.79168e-06H3.56364C2.60206 4.79168e-06 1.79452 0.638551 1.63865 1.4754C0.714675 1.61291 0 2.34454 0 3.22534V18.2275ZM5.74247 8.14516V6.65323H17.6074V8.14516H5.74247ZM18.283 7.88007V6.94352L19.0366 7.4118L18.283 7.88007ZM13.0472 1.16196L15.8484 3.91129H13.4987C13.3814 3.91381 13.2677 3.87176 13.1831 3.79426C13.0984 3.71677 13.0495 3.61014 13.0472 3.49815V1.16196ZM3.56364 0.645166H12.3716V3.49815C12.3768 4.08771 12.8813 4.5615 13.4987 4.55646H16.3407V6.00807H5.4215C5.22803 6.01531 5.07332 6.164 5.06688 6.34876V6.39003L4.06159 6.37097H4.05862C3.8701 6.3757 3.72017 6.52344 3.72083 6.70347L3.73138 8.10752C3.73287 8.28472 3.88379 8.42758 4.06917 8.42742H5.06688V8.47483C5.06688 8.65298 5.23512 8.79033 5.4215 8.79033H6.13518L6.13056 9.2742C6.1276 9.45864 6.2 9.63694 6.33228 9.7713C6.44609 9.88723 6.60361 9.95496 6.76986 9.95968H10.8714C11.0579 9.95968 11.2092 9.81524 11.2092 9.6371C11.2092 9.45896 11.0579 9.31452 10.8714 9.31452H6.80747C6.80681 9.2742 6.80631 9.29436 6.80631 9.28947L6.8111 8.79033H16.3407V16.7747C16.3407 17.3973 15.7707 17.9032 15.0702 17.9032H3.56364C2.86315 17.9032 2.2801 17.3973 2.2801 16.7747V1.82366C2.2801 1.80728 2.29115 1.79058 2.29115 1.77357C2.29214 1.75971 2.29214 1.74585 2.29115 1.73183C2.31589 1.12841 2.87899 0.645166 3.56364 0.645166ZM5.06688 7.78226H4.40466L4.39031 7.02763L5.06688 7.03519V7.78226ZM0.675584 3.22534C0.675584 2.70808 1.09782 2.2713 1.60451 2.13805V16.7747C1.60451 17.753 2.49072 18.5484 3.56364 18.5484H14.6841C14.5279 19.0323 14.0415 19.3548 13.4665 19.3548H1.96012C1.25963 19.3548 0.675584 18.8502 0.675584 18.2275V3.22534Z" fill="#DADADA"/>
<path d="M4.07302 11.4523H9.6268C9.81334 11.4523 9.96459 11.3079 9.96459 11.1297C9.96459 10.9516 9.81334 10.8071 9.6268 10.8071H4.07302C3.88631 10.8071 3.73523 10.9516 3.73523 11.1297C3.73523 11.3079 3.88631 11.4523 4.07302 11.4523Z" fill="#DADADA"/>
<path d="M4.07278 13.0237H13.7383C13.925 13.0237 14.0761 12.8793 14.0761 12.7011C14.0761 12.523 13.925 12.3785 13.7383 12.3785H4.07278C3.88607 12.3785 3.73499 12.523 3.73499 12.7011C3.73499 12.8793 3.88607 13.0237 4.07278 13.0237Z" fill="#DADADA"/>
<path d="M4.07302 14.5952H13.7385C13.9252 14.5952 14.0763 14.4507 14.0763 14.2726C14.0763 14.0944 13.9252 13.95 13.7385 13.95H4.07302C3.88631 13.95 3.73523 14.0944 3.73523 14.2726C3.73523 14.4507 3.88631 14.5952 4.07302 14.5952Z" fill="#DADADA"/>
<path d="M4.07302 16.1704H13.7385C13.9252 16.1704 14.0763 16.026 14.0763 15.8479C14.0763 15.6697 13.9252 15.5253 13.7385 15.5253H4.07302C3.88631 15.5253 3.73523 15.6697 3.73523 15.8479C3.73523 16.026 3.88631 16.1704 4.07302 16.1704Z" fill="#DADADA"/>
</svg>
