<svg width="20" height="20" viewBox="0 0 20 20" fill="none" xmlns="http://www.w3.org/2000/svg">
<path d="M17.2071 14.1032C17.2048 14.0995 17.2026 14.0956 17.2003 14.0918C17.1835 14.0643 17.1662 14.0371 17.1486 14.0101C17.1389 13.9952 17.1292 13.9803 17.1192 13.9655C17.1072 13.9476 17.095 13.9297 17.0825 13.912C17.0665 13.889 17.0501 13.8663 17.0335 13.8437C17.0285 13.837 17.0239 13.8301 17.019 13.8234C17.0154 13.8187 17.0117 13.8142 17.0081 13.8095C16.9881 13.7829 16.9677 13.7568 16.9469 13.7309C16.9397 13.7219 16.9325 13.7128 16.9252 13.7038C16.9045 13.6786 16.8834 13.6538 16.862 13.6291C16.8531 13.6189 16.8443 13.6085 16.8353 13.5984C16.8175 13.5783 16.7992 13.5586 16.781 13.539C16.7673 13.5243 16.7538 13.5096 16.7399 13.4952C16.7296 13.4844 16.7188 13.4739 16.7083 13.4633C16.3037 13.0538 15.8053 12.7548 15.244 12.5896C15.2344 12.5867 15.2246 12.5844 15.2148 12.5825C15.2146 12.5825 12.5664 12.0906 12.5663 12.0905C12.5616 12.0897 12.5569 12.0895 12.5522 12.0887C12.4283 12.0686 12.3017 12.0852 12.1881 12.1349C12.0959 12.0217 12.0352 11.8662 12.0352 11.7225V11.2431C12.2026 11.1362 12.3651 11.0161 12.522 10.881C13.1783 10.3159 13.5916 9.50027 13.6808 8.61047C14.1626 8.5882 14.5478 8.18922 14.5478 7.70195V7.01883C14.5478 6.74258 14.424 6.48695 14.2156 6.31633V4.74594C15.1731 4.27402 15.3812 3.72383 15.3812 3.33562C15.3812 2.66953 14.7608 1.83578 13.7622 1.15969C13.1224 0.726602 11.7828 0 10 0C8.21721 0 6.87772 0.726602 6.23791 1.15969C5.23924 1.83574 4.61885 2.66949 4.61885 3.33562C4.61885 3.72383 4.82694 4.27402 5.78451 4.74594V6.31633C5.57616 6.48695 5.45233 6.74258 5.45233 7.01883V7.70195C5.45233 8.18922 5.83744 8.5882 6.31932 8.61047C6.40846 9.50027 6.82182 10.316 7.47811 10.881C7.63498 11.0161 7.79752 11.1362 7.96491 11.2431V11.7225C7.96491 11.8662 7.90416 12.0217 7.81198 12.1349C7.69405 12.0832 7.56209 12.0666 7.43377 12.0905L4.78537 12.5825C4.77549 12.5844 4.76573 12.5867 4.75612 12.5896C4.19514 12.7547 3.6969 13.0535 3.29244 13.4627C3.28162 13.4736 3.27069 13.4843 3.26002 13.4953C3.24635 13.5095 3.23303 13.5241 3.21959 13.5386C3.20112 13.5584 3.18268 13.5782 3.16463 13.5985C3.15576 13.6085 3.14709 13.6187 3.1383 13.6289C3.11682 13.6536 3.09561 13.6786 3.07487 13.7039C3.06756 13.7128 3.06045 13.7219 3.05323 13.7309C3.03244 13.7568 3.01198 13.7829 2.99198 13.8095C2.98842 13.8142 2.98467 13.8186 2.98112 13.8234C2.97612 13.8301 2.97151 13.837 2.96658 13.8437C2.94998 13.8663 2.93362 13.889 2.91756 13.912C2.9051 13.9298 2.89287 13.9477 2.8808 13.9656C2.87092 13.9803 2.86119 13.9951 2.85155 14.01C2.83393 14.0371 2.81666 14.0643 2.79983 14.0918C2.79752 14.0956 2.79522 14.0994 2.79295 14.1032C2.46916 14.6368 2.29889 15.2426 2.29889 15.8745V16.2317C2.29889 16.3936 2.4301 16.5248 2.59194 16.5248C2.75377 16.5248 2.88498 16.3936 2.88498 16.2317V15.8745C2.88498 15.5889 2.92733 15.3098 3.00889 15.0432C3.18135 15.1803 3.39065 15.2534 3.60819 15.2534C3.64295 15.2534 3.67799 15.2515 3.71303 15.2477C3.96963 15.2202 4.20018 15.0944 4.36217 14.8935L4.68108 14.498C4.84307 14.2971 4.91713 14.0451 4.88963 13.7885C4.86776 13.5846 4.78362 13.3972 4.64924 13.2475C4.73346 13.2133 4.81948 13.1824 4.90764 13.1559L6.59752 12.842L7.93846 14.7185C8.07268 14.9062 8.28284 15.0097 8.5008 15.0097C8.59225 15.0097 8.68506 14.9915 8.7742 14.9537L8.86346 14.9157L9.2537 15.3694L8.69084 19.4139H5.00827V17.0376C5.00827 16.8757 4.87705 16.7445 4.71522 16.7445C4.55338 16.7445 4.42217 16.8757 4.42217 17.0376V19.4139H3.2499C3.04869 19.4139 2.88506 19.2502 2.88506 19.049V17.5954C2.88506 17.4335 2.75385 17.3023 2.59201 17.3023C2.43018 17.3023 2.29897 17.4335 2.29897 17.5954V19.049C2.29897 19.5734 2.72557 20 3.24994 20H16.7503C17.2746 20 17.7012 19.5734 17.7012 19.049V15.8746C17.7012 15.2427 17.5309 14.6368 17.2071 14.1032ZM4.22479 14.1302L3.90588 14.5257C3.84217 14.6047 3.75151 14.6542 3.65057 14.665C3.54979 14.6758 3.45053 14.6468 3.37151 14.583L3.2492 14.4844C3.27545 14.4376 3.30295 14.3917 3.33162 14.3466C3.33194 14.3461 3.33233 14.3456 3.33264 14.3451C3.35725 14.3065 3.38315 14.2689 3.40951 14.2317C3.41752 14.2204 3.42549 14.2092 3.43366 14.198C3.45717 14.1658 3.48135 14.1342 3.50615 14.1031C3.51256 14.0951 3.51885 14.0869 3.52533 14.0789C3.55334 14.0446 3.58225 14.0111 3.61182 13.9782C3.62045 13.9685 3.62924 13.9591 3.63799 13.9496C3.66729 13.9178 3.69705 13.8865 3.7278 13.8562C3.73041 13.8536 3.73299 13.8509 3.73565 13.8482C3.84897 13.7371 3.97182 13.6353 4.10334 13.544L4.16756 13.5958C4.24659 13.6595 4.29608 13.7502 4.3069 13.8511C4.31764 13.952 4.28854 14.0511 4.22479 14.1302ZM15.8326 13.5957L15.8968 13.5439C16.0283 13.6352 16.1512 13.737 16.2645 13.8482C16.2671 13.8508 16.2697 13.8535 16.2723 13.8561C16.3031 13.8865 16.3328 13.9178 16.3621 13.9495C16.3709 13.959 16.3797 13.9684 16.3883 13.9781C16.4179 14.011 16.4468 14.0446 16.4748 14.0789C16.4813 14.0868 16.4876 14.095 16.494 14.103C16.5188 14.1341 16.543 14.1658 16.5665 14.1979C16.5746 14.2091 16.5826 14.2204 16.5906 14.2316C16.617 14.2688 16.6429 14.3064 16.6675 14.345C16.6678 14.3455 16.6682 14.346 16.6685 14.3466C16.6972 14.3916 16.7247 14.4375 16.7509 14.4843L16.6286 14.5829C16.5496 14.6466 16.4504 14.6757 16.3496 14.665C16.2486 14.6541 16.158 14.6046 16.0942 14.5256L15.7753 14.1301C15.6437 13.967 15.6695 13.7273 15.8326 13.5957ZM12.3336 12.7362C12.334 12.7359 12.3344 12.7356 12.3348 12.7353L12.4115 12.678C12.4251 12.6678 12.4426 12.6638 12.4592 12.6668L12.7666 12.7239L11.5848 14.3777C11.5552 14.4191 11.5019 14.4341 11.455 14.4142L10.5838 14.0441L12.3336 12.7362ZM10 13.7486L8.29233 12.4722C8.45366 12.2604 8.55104 11.9909 8.55104 11.7225V11.551C9.00307 11.7404 9.48608 11.8394 9.99678 11.8451C9.99788 11.8451 9.99897 11.8451 10.0001 11.8451C10.0012 11.8451 10.0023 11.8451 10.0033 11.8451C10.514 11.8393 10.9971 11.7403 11.4491 11.551V11.7225C11.4491 11.9909 11.5465 12.2604 11.7078 12.4722L10 13.7486ZM10.5705 14.6753L10.3035 14.9856H9.69662L9.42967 14.6753L10.0001 14.433L10.5705 14.6753ZM5.78451 4.07789C5.40787 3.8457 5.20498 3.58922 5.20498 3.33559C5.20498 2.8073 5.91073 2.08895 6.56647 1.64504C7.15069 1.24961 8.37358 0.586133 10 0.586133C11.6265 0.586133 12.8494 1.24961 13.4336 1.64508C14.0893 2.08898 14.7951 2.80734 14.7951 3.33562C14.7951 3.58922 14.5922 3.84574 14.2155 4.07793V3.545C14.2155 3.13113 13.9354 2.77047 13.5343 2.66793C12.7756 2.47402 11.2837 2.14871 9.81655 2.14812C9.81522 2.14812 9.81412 2.14812 9.8128 2.14812C8.54237 2.14812 7.28018 2.42785 6.44491 2.66262C6.05608 2.77191 5.78451 3.13027 5.78451 3.53406V4.07789ZM6.80088 5.1068C6.79678 5.10418 6.7926 5.1016 6.78854 5.09898C6.76955 5.08684 6.75127 5.07461 6.7335 5.06234C6.72627 5.05734 6.71912 5.05234 6.71209 5.0473C6.69756 5.03699 6.68346 5.0266 6.66979 5.01621C6.66037 5.00902 6.65127 5.00184 6.64229 4.99465C6.63151 4.98605 6.62092 4.97746 6.61076 4.96883C6.59994 4.95961 6.58967 4.95043 6.57959 4.94121C6.57202 4.9343 6.56436 4.92742 6.55717 4.92051C6.54569 4.90941 6.53494 4.89836 6.52452 4.8873C6.51952 4.88203 6.51428 4.87672 6.50951 4.87145C6.50901 4.87086 6.50858 4.87027 6.50807 4.86973H11.4281C11.59 4.86973 11.7212 4.73852 11.7212 4.57668C11.7212 4.4148 11.59 4.28363 11.4281 4.28363H6.37065V3.5341C6.37065 3.39176 6.46639 3.26543 6.6035 3.22691C7.40338 3.00207 8.60901 2.73426 9.8128 2.73426C9.81389 2.73426 9.81518 2.73426 9.81627 2.73426C11.2194 2.73484 12.6571 3.04871 13.3891 3.23582C13.5306 3.27195 13.6294 3.3991 13.6294 3.545V4.28359H12.8434C12.6816 4.28359 12.5504 4.4148 12.5504 4.57664C12.5504 4.73855 12.6816 4.86973 12.8435 4.86973H13.4921C13.4916 4.87031 13.4912 4.8709 13.4907 4.87145C13.4859 4.87672 13.4807 4.88203 13.4757 4.8873C13.4652 4.89836 13.4545 4.90941 13.443 4.92051C13.4358 4.92742 13.4282 4.9343 13.4206 4.94121C13.4105 4.95043 13.4003 4.95961 13.3894 4.96883C13.3793 4.97746 13.3687 4.98605 13.3579 4.99465C13.3489 5.00184 13.3398 5.00902 13.3304 5.01621C13.3167 5.0266 13.3026 5.03699 13.2881 5.0473C13.2811 5.0523 13.2739 5.05734 13.2667 5.06234C13.2489 5.07461 13.2306 5.08684 13.2117 5.09898C13.2076 5.1016 13.2035 5.10418 13.1993 5.1068C13.0775 5.18344 12.9324 5.25738 12.7665 5.32598C12.7631 5.32742 12.7599 5.32945 12.7565 5.33102C12.1287 5.58984 11.1851 5.78543 10.0001 5.78543C8.8151 5.78543 7.87155 5.58984 7.24366 5.33102C7.24026 5.32945 7.23713 5.32742 7.23366 5.32598C7.0678 5.25738 6.92268 5.18344 6.80088 5.1068ZM6.82854 5.78781V6.35875C6.66741 6.27523 6.50436 6.23031 6.37069 6.20629V5.52527C6.49639 5.61461 6.64756 5.70281 6.82854 5.78781ZM13.1715 5.78777C13.3525 5.70281 13.5037 5.61461 13.6294 5.52527V6.20621C13.4957 6.23023 13.3327 6.2752 13.1715 6.35871V5.78777ZM7.86053 10.4368C7.26033 9.92008 6.90584 9.14563 6.88795 8.31207C6.88455 8.15273 6.75436 8.02531 6.59498 8.02531H6.36182C6.18354 8.02531 6.03846 7.88027 6.03846 7.70195V7.01883C6.03846 6.92051 6.0828 6.82941 6.15737 6.76871C6.26069 6.77785 6.45358 6.80883 6.61717 6.91273C6.61881 6.91379 6.62041 6.9148 6.62205 6.91586C6.64514 6.93078 6.66756 6.94723 6.68909 6.96523C6.69159 6.9673 6.69409 6.96941 6.69655 6.97156C6.70701 6.98059 6.71729 6.98988 6.72725 6.99973C6.73596 7.00832 6.74506 7.01633 6.75436 7.02398C6.75709 7.02625 6.75987 7.02836 6.76264 7.03055C6.76967 7.03605 6.77682 7.04129 6.78412 7.04625C6.78701 7.0482 6.78983 7.0502 6.79276 7.05207C6.80268 7.05848 6.81272 7.06453 6.82307 7.06996C6.82311 7.07 6.82319 7.07004 6.82323 7.07008C6.83373 7.07559 6.84448 7.08051 6.85537 7.08504C6.85838 7.08629 6.86143 7.08742 6.86448 7.08859C6.87276 7.09184 6.88108 7.09477 6.88951 7.09742C6.89268 7.09844 6.8958 7.09945 6.89901 7.10035C6.91006 7.10355 6.92119 7.10637 6.93244 7.10859C6.93264 7.10863 6.9328 7.10867 6.93299 7.10871C6.94455 7.11098 6.95623 7.11258 6.96795 7.11383C6.97112 7.11418 6.97428 7.11438 6.97741 7.11461C6.98627 7.11535 6.99518 7.11578 7.00412 7.1159C7.00616 7.11594 7.00815 7.11617 7.01014 7.11617C7.01143 7.11617 7.01276 7.11598 7.01405 7.11598C7.02557 7.11586 7.03713 7.11539 7.0487 7.1143C7.04901 7.11426 7.04932 7.11426 7.04959 7.11426C7.06143 7.11309 7.07327 7.11125 7.08506 7.10898C7.08838 7.10836 7.0917 7.10758 7.09502 7.10688C7.10377 7.10496 7.11248 7.10277 7.12119 7.10031C7.12463 7.09934 7.12807 7.0984 7.13151 7.0973C7.14307 7.09363 7.15455 7.08965 7.16592 7.08492C7.31702 7.02184 7.41463 6.87543 7.41463 6.71184V6.01098C8.16924 6.24863 9.09709 6.37152 10 6.37152C10.903 6.37152 11.8308 6.24863 12.5854 6.01098V6.71184C12.5854 6.87543 12.683 7.02187 12.8341 7.08492C12.8455 7.08969 12.8571 7.09371 12.8687 7.09738C12.872 7.0984 12.8753 7.0993 12.8785 7.10027C12.8874 7.10281 12.8964 7.10508 12.9054 7.10699C12.9085 7.10766 12.9116 7.1084 12.9148 7.10898C12.9385 7.11352 12.9624 7.11582 12.9862 7.11602C12.9874 7.11602 12.9887 7.11621 12.9899 7.11621C12.9918 7.11621 12.9937 7.11598 12.9956 7.11594C13.0048 7.11582 13.0139 7.11535 13.023 7.11461C13.026 7.11438 13.029 7.11418 13.0319 7.11387C13.0554 7.11141 13.0785 7.10688 13.1012 7.10031C13.1043 7.09941 13.1073 7.09844 13.1104 7.09746C13.1189 7.0948 13.1273 7.0918 13.1357 7.08855C13.1387 7.08738 13.1417 7.08625 13.1447 7.085C13.1556 7.08047 13.1664 7.07555 13.1769 7.07004C13.177 7.07 13.1771 7.06996 13.1771 7.06992C13.1874 7.06449 13.1975 7.05844 13.2074 7.05207C13.2103 7.0502 13.2131 7.04816 13.2161 7.04621C13.2233 7.04125 13.2305 7.03602 13.2375 7.03055C13.2403 7.02836 13.2431 7.02621 13.2458 7.02395C13.2551 7.01625 13.2642 7.00828 13.2729 6.99969C13.2828 6.98992 13.293 6.98074 13.3033 6.9718C13.306 6.96945 13.3088 6.96715 13.3115 6.96484C13.3211 6.9568 13.3308 6.94902 13.3408 6.94164C13.3417 6.94094 13.3426 6.94023 13.3435 6.93953C13.3543 6.9316 13.3653 6.92418 13.3764 6.91695C13.3794 6.915 13.3824 6.91313 13.3854 6.91121C13.3953 6.905 13.4053 6.89898 13.4153 6.89328C13.4167 6.89246 13.4182 6.89156 13.4197 6.89074C13.4311 6.88438 13.4426 6.87836 13.4542 6.87262C13.4571 6.87117 13.46 6.8698 13.4629 6.8684C13.4733 6.8634 13.4837 6.85855 13.4942 6.85402C13.4956 6.8534 13.497 6.85273 13.4985 6.85211C13.5105 6.84695 13.5225 6.84215 13.5345 6.83758C13.5367 6.83676 13.5388 6.83598 13.5409 6.8352C13.5523 6.83094 13.5637 6.82691 13.575 6.82316C13.5756 6.82297 13.5763 6.82273 13.5769 6.82254C13.5896 6.81836 13.6022 6.81449 13.6147 6.8109C13.6151 6.81078 13.6156 6.81063 13.6161 6.81051C13.7053 6.78488 13.7871 6.77359 13.8428 6.76863C13.9174 6.82937 13.9617 6.92043 13.9617 7.01879V7.70191C13.9617 7.88023 13.8166 8.02527 13.6383 8.02527H13.4052C13.2458 8.02527 13.1156 8.15269 13.1122 8.31203C13.0943 9.14559 12.7398 9.92004 12.1396 10.4368C11.5173 10.9727 10.7975 11.2493 10.0001 11.2589C9.20272 11.2493 8.48299 10.9728 7.86053 10.4368ZM8.54502 14.4142C8.49811 14.4341 8.44479 14.419 8.41526 14.3777L7.23346 12.724L7.54084 12.6669C7.55756 12.6638 7.57495 12.6678 7.58858 12.678L7.66526 12.7353C7.66569 12.7356 7.66608 12.7359 7.66651 12.7362L9.41623 14.0441L8.54502 14.4142ZM9.28256 19.4139L9.81721 15.5718H10.1828L10.7175 19.4139H9.28256ZM16.7502 19.4139H15.578V17.0376C15.578 16.8757 15.4468 16.7445 15.285 16.7445C15.1231 16.7445 14.9919 16.8757 14.9919 17.0376V19.4139H11.3093L10.7465 15.3694L11.1367 14.9157L11.226 14.9537C11.3151 14.9915 11.4079 15.0097 11.4993 15.0097C11.7173 15.0097 11.9275 14.9062 12.0617 14.7184L13.4026 12.842L15.0925 13.1559C15.1806 13.1824 15.2667 13.2133 15.3509 13.2475C15.041 13.5938 15.018 14.1247 15.3189 14.4979L15.6379 14.8935C15.7999 15.0944 16.0304 15.2202 16.287 15.2477C16.3221 15.2514 16.3571 15.2533 16.3919 15.2533C16.6093 15.2533 16.8187 15.1802 16.9911 15.0431C17.0727 15.3098 17.115 15.5889 17.115 15.8745V19.049H17.1151C17.1151 19.2502 16.9514 19.4139 16.7502 19.4139Z" fill="#DADADA"/>
<path d="M14.0006 16.7444H12.4573C12.1933 16.7444 11.9785 16.9591 11.9785 17.2231V18.0454C11.9785 18.3093 12.1933 18.5241 12.4573 18.5241H14.0006C14.2646 18.5241 14.4793 18.3093 14.4793 18.0454V17.2231C14.4793 16.9591 14.2645 16.7444 14.0006 16.7444ZM12.5646 17.9379V17.3305H13.8931V17.9379H12.5646Z" fill="#DADADA"/>
<path d="M7.54297 16.7443H5.99965C5.73566 16.7443 5.52094 16.9591 5.52094 17.2231V18.0453C5.52094 18.3093 5.7357 18.524 5.99965 18.524H7.54297C7.80695 18.524 8.02172 18.3093 8.02172 18.0453V17.2231C8.02176 16.9591 7.80695 16.7443 7.54297 16.7443ZM7.43562 17.9379H6.10707V17.3305H7.43562V17.9379Z" fill="#DADADA"/>
</svg>
