<svg width="20" height="20" viewBox="0 0 20 20" fill="none" xmlns="http://www.w3.org/2000/svg">
<g clip-path="url(#clip0)">
<path d="M19.6557 9.65525C19.5686 9.65541 19.4847 9.62248 19.4209 9.56315L10 0.815515L0.579075 9.56315C0.43942 9.69225 0.221596 9.68396 0.0921758 9.54459C-0.0372447 9.40522 -0.0294318 9.1874 0.109638 9.05768L9.76528 0.092197C9.89763 -0.0307323 10.1024 -0.0307323 10.2347 0.092197L19.8904 9.05768C19.9942 9.1542 20.0284 9.30443 19.9766 9.43643C19.9248 9.56838 19.7975 9.65522 19.6557 9.65525Z" fill="#DADADA"/>
<path d="M12.4127 19.9997H7.58508C7.49363 19.9997 7.4059 19.9634 7.34121 19.8987C7.27652 19.8341 7.24023 19.7464 7.24023 19.6549V13.7932C7.24023 12.2697 8.47531 11.0347 9.99887 11.0347C11.5224 11.0347 12.7575 12.2697 12.7575 13.7932V19.6549C12.7575 19.7464 12.7212 19.8341 12.6565 19.8988C12.5918 19.9634 12.5041 19.9997 12.4127 19.9997ZM7.92988 19.3101H12.0678V13.7932C12.0678 12.6506 11.1415 11.7243 9.99883 11.7243C8.85613 11.7243 7.92984 12.6505 7.92984 13.7932V19.3101H7.92988Z" fill="#DADADA"/>
<path d="M17.9307 14.138C17.8392 14.138 17.7515 14.1017 17.6868 14.037C17.6221 13.9723 17.5858 13.8846 17.5858 13.7931V7.85987L9.99927 0.815515L2.41268 7.85987V9.31041C2.41268 9.50084 2.2583 9.65525 2.06782 9.65525C1.87734 9.65525 1.72296 9.50088 1.72296 9.31041V7.70952C1.72308 7.61366 1.76296 7.52213 1.83308 7.45678L9.76453 0.092197C9.89688 -0.0307323 10.1016 -0.0307323 10.234 0.092197L18.1654 7.45678C18.2355 7.52213 18.2754 7.61366 18.2755 7.70952V13.7931C18.2755 13.8846 18.2392 13.9723 18.1745 14.037C18.1099 14.1017 18.0222 14.138 17.9307 14.138Z" fill="#DADADA"/>
<path d="M17.9304 20H2.06758C1.97613 20.0001 1.88839 19.9637 1.8237 19.899C1.75901 19.8344 1.72272 19.7467 1.72272 19.6552V12.069C1.72272 11.8786 1.8771 11.7242 2.06758 11.7242C2.25806 11.7242 2.41244 11.8786 2.41244 12.069V19.3104H17.5856V16.5518C17.5856 16.3613 17.74 16.2069 17.9305 16.2069C18.121 16.2069 18.2753 16.3613 18.2753 16.5518V19.6552C18.2754 19.7466 18.2391 19.8344 18.1744 19.899C18.1096 19.9637 18.0219 20.0001 17.9304 20Z" fill="#DADADA"/>
<path d="M2.06756 11.0346C2.25801 11.0346 2.41241 10.8802 2.41241 10.6898C2.41241 10.4994 2.25801 10.345 2.06756 10.345C1.87711 10.345 1.72272 10.4994 1.72272 10.6898C1.72272 10.8802 1.87711 11.0346 2.06756 11.0346Z" fill="#DADADA"/>
<path d="M17.9307 15.5173C18.1211 15.5173 18.2755 15.3629 18.2755 15.1725C18.2755 14.982 18.1211 14.8276 17.9307 14.8276C17.7402 14.8276 17.5858 14.982 17.5858 15.1725C17.5858 15.3629 17.7402 15.5173 17.9307 15.5173Z" fill="#DADADA"/>
</g>
<defs>
<clipPath id="clip0">
<rect width="20" height="20" fill="white"/>
</clipPath>
</defs>
</svg>
