<svg width="12" height="20" viewBox="0 0 12 20" fill="none" xmlns="http://www.w3.org/2000/svg">
<path d="M10.1981 20H1.80163C0.991042 19.999 0.334207 19.3421 0.333191 18.5316V1.46844C0.334207 0.657852 0.991042 0.00101562 1.80163 0H10.1981C11.0087 0.00101562 11.6655 0.657852 11.6665 1.46844V18.5316C11.6655 19.3421 11.0087 19.999 10.1981 20ZM1.80163 0.66668C1.35905 0.667187 1.00038 1.02586 0.999871 1.46844V18.5316C1.00038 18.9742 1.35905 19.3329 1.80163 19.3334H10.1981C10.6407 19.3329 10.9994 18.9742 10.9999 18.5316V1.46844C10.9994 1.02586 10.6407 0.667187 10.1981 0.66668H1.80163Z" fill="#DADADA"/>
<path d="M5.99976 18.9998C5.2634 18.9998 4.66644 18.4029 4.66644 17.6665C4.66644 16.9301 5.2634 16.3332 5.99976 16.3332C6.73613 16.3332 7.33308 16.9301 7.33308 17.6665C7.33234 18.4025 6.73582 18.9991 5.99976 18.9998ZM5.99976 16.9998C5.63156 16.9998 5.33308 17.2983 5.33308 17.6665C5.33308 18.0347 5.63156 18.3332 5.99976 18.3332C6.36797 18.3332 6.66644 18.0347 6.66644 17.6665C6.66593 17.2985 6.36773 17.0003 5.99976 16.9998Z" fill="#DADADA"/>
<path d="M11.3332 15.9999H0.666572C0.482471 15.9999 0.333252 15.8506 0.333252 15.6666C0.333252 15.4825 0.48251 15.3333 0.666572 15.3333H11.3333C11.5174 15.3333 11.6666 15.4825 11.6666 15.6666C11.6666 15.8507 11.5173 15.9999 11.3332 15.9999Z" fill="#DADADA"/>
<path d="M11.3332 2.66682H0.666572C0.482471 2.66682 0.333252 2.51757 0.333252 2.3335C0.333252 2.14944 0.48251 2.00018 0.666572 2.00018H11.3333C11.5174 2.00018 11.6666 2.14944 11.6666 2.3335C11.6666 2.51757 11.5173 2.66682 11.3332 2.66682Z" fill="#DADADA"/>
<path d="M5.99995 1.66676H4.66663C4.48253 1.66676 4.33331 1.5175 4.33331 1.33344C4.33331 1.14938 4.48253 1.00012 4.66663 1.00012H5.99995C6.18405 1.00012 6.33327 1.14938 6.33327 1.33344C6.33327 1.5175 6.18405 1.66676 5.99995 1.66676Z" fill="#DADADA"/>
<path d="M7.33308 1.66676H6.99976C6.81566 1.66676 6.66644 1.5175 6.66644 1.33344C6.66644 1.14938 6.81566 1.00012 6.99976 1.00012H7.33308C7.51719 1.00012 7.6664 1.14938 7.6664 1.33344C7.6664 1.5175 7.51719 1.66676 7.33308 1.66676Z" fill="#DADADA"/>
</svg>
