<svg width="20" height="20" viewBox="0 0 20 20" fill="none" xmlns="http://www.w3.org/2000/svg">
<path d="M18.7491 10.2886C18.7431 10.2101 18.7076 10.1368 18.6498 10.0833C18.5921 10.0298 18.5162 10.0001 18.4375 10.0001H13.9535L13.7496 5.92197C13.7456 5.8419 13.711 5.76643 13.6529 5.71117C13.5948 5.65591 13.5177 5.6251 13.4375 5.6251H11.25V4.0626C11.2502 3.61261 11.1423 3.16915 10.9355 2.7695C10.7287 2.36985 10.429 2.02568 10.0615 1.7659C9.69411 1.50613 9.2697 1.33834 8.82396 1.27664C8.37822 1.21495 7.92418 1.26114 7.5 1.41135C7.07582 1.26114 6.62178 1.21495 6.17604 1.27664C5.7303 1.33834 5.30589 1.50613 4.93845 1.7659C4.57102 2.02568 4.27131 2.36985 4.0645 2.7695C3.8577 3.16915 3.74984 3.61261 3.75 4.0626V5.6251H1.5625C1.48233 5.6251 1.40522 5.65591 1.34712 5.71117C1.28903 5.76643 1.2544 5.8419 1.25039 5.92197L0.625391 18.422C0.623273 18.4643 0.629776 18.5066 0.644505 18.5463C0.659234 18.586 0.681882 18.6223 0.711072 18.653C0.740263 18.6837 0.775387 18.7081 0.814311 18.7248C0.853235 18.7415 0.895147 18.7501 0.9375 18.7501H19.0625C19.1056 18.7501 19.1482 18.7412 19.1876 18.724C19.2271 18.7067 19.2626 18.6815 19.2918 18.6499C19.3211 18.6183 19.3435 18.581 19.3576 18.5404C19.3718 18.4997 19.3774 18.4565 19.3741 18.4136L18.7491 10.2886ZM17.8125 17.126L18.4786 18.1251H17.1466L17.8125 17.126ZM18.6592 17.2693L18.1157 16.454L17.5328 10.6251H18.1481L18.6592 17.2693ZM16.9047 10.6251L17.4906 16.4824L16.8047 17.511L16.275 10.6251H16.9047ZM13.3277 10.0001H12.7396L12.5189 6.2501H13.14L13.3277 10.0001ZM11.8929 6.2501L12.1135 10.0001H11.4533L11.2658 6.2501H11.8929ZM8.4375 1.8751C9.01746 1.87576 9.57347 2.10644 9.98357 2.51653C10.3937 2.92662 10.6243 3.48264 10.625 4.0626V5.6251H9.375V4.0626C9.375 3.64361 9.28124 3.22992 9.10059 2.85188C8.91994 2.47383 8.65697 2.141 8.33098 1.87779C8.36629 1.87611 8.40176 1.8751 8.4375 1.8751ZM7.5 2.08658C7.87375 2.26422 8.18952 2.54411 8.41075 2.89383C8.63198 3.24355 8.7496 3.64878 8.75 4.0626V5.6251H6.25V4.0626C6.2504 3.64878 6.36802 3.24355 6.58925 2.89383C6.81048 2.54411 7.12625 2.26422 7.5 2.08658ZM4.375 4.0626C4.37566 3.48264 4.60634 2.92662 5.01644 2.51653C5.42653 2.10644 5.98254 1.87576 6.5625 1.8751C6.59824 1.8751 6.63371 1.87611 6.66902 1.87779C6.34302 2.141 6.08005 2.47382 5.8994 2.85187C5.71875 3.22992 5.62499 3.6436 5.625 4.0626V5.6251H4.375V4.0626ZM8.14813 18.1251H1.26602L1.85977 6.2501H3.75V8.27037L2.95164 8.8026C2.90884 8.83113 2.87375 8.8698 2.84947 8.91515C2.8252 8.96051 2.8125 9.01116 2.8125 9.0626V11.5626C2.8125 11.6455 2.84542 11.725 2.90403 11.7836C2.96263 11.8422 3.04212 11.8751 3.125 11.8751H5C5.08288 11.8751 5.16237 11.8422 5.22097 11.7836C5.27958 11.725 5.3125 11.6455 5.3125 11.5626V9.0626C5.3125 9.01116 5.2998 8.96051 5.27553 8.91515C5.25126 8.8698 5.21616 8.83113 5.17336 8.8026L4.375 8.27037V6.2501H8.75V7.1876C8.75 7.27048 8.78292 7.34996 8.84153 7.40857C8.90014 7.46717 8.97962 7.5001 9.0625 7.5001C9.14538 7.5001 9.22487 7.46717 9.28347 7.40857C9.34208 7.34996 9.375 7.27048 9.375 7.1876V6.2501H10.6402L10.8277 10.0001H9.0625C8.98377 10.0001 8.90794 10.0298 8.85016 10.0833C8.79239 10.1368 8.75694 10.2101 8.7509 10.2886L8.14813 18.1251ZM4.0625 8.81318L4.6875 9.22982V11.2501H3.4375V9.22982L4.0625 8.81318ZM9.35188 10.6251H15.6481L16.225 18.1251H8.77496L9.35188 10.6251Z" fill="#DADADA"/>
<path d="M14.0625 11.875C13.9796 11.875 13.9001 11.9079 13.8415 11.9665C13.7829 12.0251 13.75 12.1046 13.75 12.1875V14.6875C13.7497 14.9361 13.6509 15.1743 13.4751 15.3501C13.2994 15.5259 13.0611 15.6247 12.8125 15.625H12.1875C11.9389 15.6247 11.7007 15.5259 11.5249 15.3501C11.3491 15.1743 11.2503 14.9361 11.25 14.6875V12.1875C11.25 12.1046 11.2171 12.0251 11.1585 11.9665C11.0999 11.9079 11.0204 11.875 10.9375 11.875C10.8546 11.875 10.7751 11.9079 10.7165 11.9665C10.6579 12.0251 10.625 12.1046 10.625 12.1875V14.6875C10.6255 15.1018 10.7902 15.4989 11.0832 15.7918C11.3761 16.0848 11.7732 16.2495 12.1875 16.25H12.8125C13.2268 16.2495 13.6239 16.0848 13.9168 15.7918C14.2098 15.4989 14.3745 15.1018 14.375 14.6875V12.1875C14.375 12.1046 14.3421 12.0251 14.2835 11.9665C14.2249 11.9079 14.1454 11.875 14.0625 11.875Z" fill="#DADADA"/>
</svg>
