<svg width="20" height="20" viewBox="0 0 20 20" fill="none" xmlns="http://www.w3.org/2000/svg">
<path d="M4.46645 19.4579C4.4416 19.4579 4.41762 19.4579 4.3941 19.4576C1.76572 19.4238 -5.1255e-05 16.806 -5.1255e-05 14.3825C-0.00153562 13.6315 0.165963 12.8897 0.490063 12.2122C0.571039 12.0438 0.772991 11.9727 0.941623 12.0531C1.11025 12.1336 1.18205 12.3353 1.10213 12.5042C0.821585 13.0905 0.676585 13.7325 0.677914 14.3825C0.677914 16.9841 2.60388 18.7565 4.40274 18.7797C5.43851 18.7647 6.46808 18.6171 7.46631 18.3404C9.15236 17.9052 10.9213 17.9053 12.6073 18.3407C13.6072 18.6067 14.6349 18.754 15.6692 18.7797C17.8541 18.7426 19.3219 16.476 19.3219 14.3825C19.3393 11.9756 17.4053 10.0086 14.9984 9.98534H5.07508C4.04188 9.9869 3.04228 10.3528 2.25216 11.0185C2.10869 11.1376 1.89603 11.1185 1.77603 10.9758C1.65603 10.8331 1.67369 10.6204 1.81556 10.4994C2.72814 9.7312 3.88223 9.30913 5.07511 9.30737H14.9984C17.7796 9.33093 20.017 11.6012 19.9999 14.3825C19.9999 17.4717 17.7579 19.4222 15.6807 19.4576C14.5815 19.4363 13.489 19.2806 12.4276 18.9942C10.8592 18.5894 9.21372 18.5895 7.64541 18.9945C6.60897 19.2798 5.54121 19.4354 4.46645 19.4579Z" fill="#DADADA"/>
<path d="M1.30761 11.8182C1.49483 11.8182 1.64659 11.6665 1.64659 11.4792C1.64659 11.292 1.49483 11.1403 1.30761 11.1403C1.1204 11.1403 0.968628 11.292 0.968628 11.4792C0.968628 11.6665 1.1204 11.8182 1.30761 11.8182Z" fill="#DADADA"/>
<path d="M11.0615 11.3414H9.49157C9.30435 11.3414 9.15259 11.1897 9.15259 11.0024C9.15259 10.8152 9.30435 10.6635 9.49157 10.6635H11.0615C11.2487 10.6635 11.4005 10.8152 11.4005 11.0024C11.4005 11.1896 11.2487 11.3414 11.0615 11.3414Z" fill="#DADADA"/>
<path d="M12.5421 15.7485C11.7932 15.7485 11.1862 15.1415 11.1862 14.3926C11.1862 13.6437 11.7932 13.0367 12.5421 13.0367C13.291 13.0367 13.898 13.6437 13.898 14.3926C13.8972 15.1412 13.2906 15.7478 12.5421 15.7485ZM12.5421 13.7147C12.1677 13.7147 11.8641 14.0182 11.8641 14.3926C11.8641 14.7671 12.1677 15.0706 12.5421 15.0706C12.9165 15.0706 13.2201 14.7671 13.2201 14.3926C13.2196 14.0184 12.9163 13.7151 12.5421 13.7147Z" fill="#DADADA"/>
<path d="M17.2879 15.7485C16.5391 15.7485 15.932 15.1415 15.932 14.3926C15.932 13.6437 16.5391 13.0367 17.2879 13.0367C18.0368 13.0367 18.6439 13.6437 18.6439 14.3926C18.6431 15.1412 18.0365 15.7478 17.2879 15.7485ZM17.2879 13.7147C16.9135 13.7147 16.61 14.0182 16.61 14.3926C16.61 14.7671 16.9135 15.0706 17.2879 15.0706C17.6624 15.0706 17.9659 14.7671 17.9659 14.3926C17.9654 14.0184 17.6622 13.7151 17.2879 13.7147Z" fill="#DADADA"/>
<path d="M14.9153 18.1211C14.1664 18.1211 13.5593 17.514 13.5593 16.7652C13.5593 16.0163 14.1664 15.4092 14.9153 15.4092C15.6641 15.4092 16.2712 16.0163 16.2712 16.7652C16.2704 17.5137 15.6638 18.1203 14.9153 18.1211ZM14.9153 16.0872C14.5408 16.0872 14.2373 16.3908 14.2373 16.7652C14.2373 17.1396 14.5408 17.4431 14.9153 17.4431C15.2897 17.4431 15.5932 17.1396 15.5932 16.7652C15.5928 16.3909 15.2895 16.0876 14.9153 16.0872Z" fill="#DADADA"/>
<path d="M14.9153 13.3753C14.1664 13.3753 13.5593 12.7682 13.5593 12.0194C13.5593 11.2705 14.1664 10.6635 14.9153 10.6635C15.6641 10.6635 16.2712 11.2705 16.2712 12.0194C16.2704 12.7679 15.6638 13.3745 14.9153 13.3753ZM14.9153 11.3414C14.5408 11.3414 14.2373 11.645 14.2373 12.0194C14.2373 12.3938 14.5408 12.6973 14.9153 12.6973C15.2897 12.6973 15.5932 12.3938 15.5932 12.0194C15.5928 11.6451 15.2895 11.3418 14.9153 11.3414Z" fill="#DADADA"/>
<path d="M6.44054 17.1044H4.40664C4.31672 17.1044 4.23051 17.0687 4.16692 17.0051C4.10332 16.9415 4.06762 16.8553 4.06766 16.7654V15.7485H3.05071C2.96079 15.7485 2.87458 15.7128 2.81099 15.6492C2.74739 15.5856 2.71169 15.4994 2.71173 15.4095V13.3756C2.71169 13.2857 2.74739 13.1994 2.81099 13.1359C2.87458 13.0723 2.96079 13.0366 3.05071 13.0366H4.06766V12.0196C4.06762 11.9297 4.10332 11.8435 4.16692 11.7799C4.23051 11.7163 4.31672 11.6806 4.40664 11.6807H6.44054C6.53046 11.6806 6.61667 11.7163 6.68026 11.7799C6.74386 11.8435 6.77956 11.9297 6.77952 12.0196V13.0366H7.79647C7.88639 13.0366 7.9726 13.0723 8.03619 13.1359C8.09979 13.1994 8.13549 13.2857 8.13545 13.3756V15.4095C8.13549 15.4994 8.09975 15.5856 8.03619 15.6492C7.9726 15.7128 7.88639 15.7485 7.79647 15.7485H6.77952V16.7654C6.77956 16.8553 6.74386 16.9415 6.68026 17.0051C6.61667 17.0687 6.53042 17.1044 6.44054 17.1044ZM4.74563 16.4264H6.10155V15.4095C6.10152 15.3196 6.13726 15.2333 6.20081 15.1697C6.26441 15.1062 6.35062 15.0705 6.44054 15.0705H7.45748V13.7146H6.44054C6.35062 13.7146 6.26441 13.6789 6.20081 13.6153C6.13722 13.5517 6.10152 13.4655 6.10155 13.3756V12.3587H4.74563V13.3756C4.74566 13.4655 4.70996 13.5517 4.64637 13.6153C4.58277 13.6789 4.49656 13.7146 4.40664 13.7146H3.3897V15.0705H4.40664C4.49656 15.0705 4.58277 15.1062 4.64637 15.1698C4.70996 15.2334 4.74566 15.3196 4.74563 15.4095V16.4264Z" fill="#DADADA"/>
<path d="M10.1692 9.64657C10.0793 9.64661 9.99311 9.61087 9.92952 9.54731C9.86593 9.48372 9.83022 9.39751 9.83026 9.30759V5.40929C9.83026 4.37961 10.665 3.54489 11.6947 3.54489C12.7243 3.54489 13.5591 4.37961 13.5591 5.40929V6.59573C13.5591 7.15737 14.0144 7.61268 14.576 7.61268C15.1377 7.61268 15.593 7.15737 15.593 6.59573V1.17205C15.593 0.984826 15.7447 0.833069 15.9319 0.833069C16.1192 0.833069 16.2709 0.984826 16.2709 1.17205V6.59573C16.2709 7.53182 15.5121 8.29064 14.576 8.29064C13.6399 8.29064 12.8811 7.53182 12.8811 6.59573V5.40929C12.8811 4.75406 12.3499 4.22285 11.6947 4.22285C11.0394 4.22285 10.5082 4.75402 10.5082 5.40929V9.30759C10.5083 9.39751 10.4726 9.48372 10.409 9.54731C10.3454 9.61087 10.2592 9.64661 10.1692 9.64657Z" fill="#DADADA"/>
</svg>
