<svg width="20" height="20" viewBox="0 0 20 20" fill="none" xmlns="http://www.w3.org/2000/svg">
<g clip-path="url(#clip0)">
<path d="M17.5752 7.5093C17.8194 7.26122 17.8195 6.85961 17.5752 6.6114C17.5753 6.61153 17.5752 6.61136 17.5752 6.61136C17.4572 6.49144 17.3003 6.42537 17.1334 6.42537C16.5746 6.42537 16.3018 7.1132 16.6917 7.50926C16.9353 7.7568 17.3316 7.75684 17.5752 7.5093ZM18.665 5.50393C18.7952 5.6362 18.7951 5.85059 18.665 5.98283C18.5348 6.11506 18.3239 6.11502 18.1938 5.98283C17.6078 5.38731 16.6593 5.38719 16.0732 5.98279C15.9431 6.11506 15.7321 6.11502 15.602 5.98283C15.4718 5.85059 15.4718 5.6362 15.602 5.50397C16.4483 4.64378 17.8184 4.64361 18.665 5.50393ZM19.6664 4.82494C19.5811 4.82494 19.4958 4.79189 19.4308 4.72577C18.1611 3.43544 16.106 3.43523 14.8361 4.72577C14.706 4.85796 14.4951 4.85796 14.3649 4.72577C14.2348 4.59354 14.2348 4.37915 14.3649 4.24687C15.8952 2.69182 18.3717 2.69178 19.902 4.24687C20.1126 4.46088 19.9606 4.82494 19.6664 4.82494ZM18.2547 8.73644C18.0728 8.7648 17.948 8.93766 17.9759 9.12251C18.7713 14.3888 14.8542 19.1179 9.70499 19.3159V10.815H14.0973C13.9967 13.8899 12.5468 16.1438 11.3232 17.5096C11.1276 17.7278 11.283 18.0762 11.5695 18.0762C11.66 18.0762 11.7502 18.0389 11.816 17.9655C13.119 16.5112 14.6639 14.1062 14.7643 10.815H16.3694C16.5534 10.815 16.7026 10.6634 16.7026 10.4764C16.7026 10.2894 16.5534 10.1378 16.3694 10.1378H14.7641C14.6321 5.75265 11.9588 2.92945 10.4893 1.70304C11.5903 1.84755 12.6578 2.20425 13.6249 2.7557C13.7855 2.84734 13.9886 2.78918 14.0786 2.62605C14.1687 2.46296 14.1116 2.25656 13.951 2.16505C12.5599 1.37187 10.9764 0.952606 9.37178 0.952606C4.19202 0.952606 0 5.21216 0 10.4764C0 15.7392 4.19043 19.9996 9.37065 20.0002C15.1049 20.0002 19.5104 14.8169 18.6346 9.01978C18.6066 8.83489 18.4365 8.70791 18.2547 8.73644ZM9.03856 19.0138C8.54648 18.6374 7.76445 17.9673 6.99601 17.0095C5.50711 15.1537 4.71788 13.0712 4.64623 10.815H9.03856V19.0138ZM11.7491 3.94393C13.2372 5.7998 14.0258 7.88209 14.0974 10.1378H9.70499V1.93745C10.1969 2.31371 10.9799 2.98461 11.7491 3.94393ZM9.03856 1.63697V10.1378H4.64636C4.74383 7.16433 6.10786 4.96475 7.25934 3.62647C7.38046 3.48569 7.36634 3.27176 7.22785 3.14867C7.08927 3.02554 6.8788 3.03989 6.75763 3.18071C5.53081 4.60657 4.07672 6.95455 3.97938 10.1378H0.673435C0.845084 5.52856 4.50291 1.81136 9.03856 1.63697ZM0.673435 10.815H3.97946C4.11175 15.202 6.78717 18.0249 8.25708 19.2507C4.08934 18.707 0.835088 15.1564 0.673435 10.815Z" fill="#2B2F4A"/>
</g>
<defs>
<clipPath id="clip0">
<rect width="20" height="20" fill="white"/>
</clipPath>
</defs>
</svg>
