<svg width="145" height="35" viewBox="0 0 145 35" fill="none" xmlns="http://www.w3.org/2000/svg">
<path opacity="0.6" d="M19.2827 34.3861C27.8024 34.3861 34.709 27.5438 34.709 19.1033C34.709 10.6629 27.8024 3.82056 19.2827 3.82056C10.7629 3.82056 3.85632 10.6629 3.85632 19.1033C3.85632 27.5438 10.7629 34.3861 19.2827 34.3861Z" fill="url(#paint0_linear)"/>
<path opacity="0.6" d="M15.9766 33.8401C24.4963 33.8401 31.4029 26.9978 31.4029 18.5574C31.4029 10.1169 24.4963 3.2746 15.9766 3.2746C7.45689 3.2746 0.550293 10.1169 0.550293 18.5574C0.550293 26.9978 7.45689 33.8401 15.9766 33.8401Z" fill="url(#paint1_linear)"/>
<path opacity="0.6" d="M15.4263 30.5656C23.9461 30.5656 30.8527 23.7232 30.8527 15.2828C30.8527 6.84233 23.9461 0 15.4263 0C6.9066 0 0 6.84233 0 15.2828C0 23.7232 6.9066 30.5656 15.4263 30.5656Z" fill="url(#paint2_linear)"/>
<path opacity="0.6" d="M18.7324 31.1115C27.2521 31.1115 34.1587 24.2692 34.1587 15.8287C34.1587 7.38829 27.2521 0.545959 18.7324 0.545959C10.2126 0.545959 3.30603 7.38829 3.30603 15.8287C3.30603 24.2692 10.2126 31.1115 18.7324 31.1115Z" fill="url(#paint3_linear)"/>
<path d="M17.3548 30.0198C24.5053 30.0198 30.3019 24.2771 30.3019 17.1931C30.3019 10.1092 24.5053 4.36652 17.3548 4.36652C10.2043 4.36652 4.40771 10.1092 4.40771 17.1931C4.40771 24.2771 10.2043 30.0198 17.3548 30.0198Z" fill="white"/>
<path opacity="0.7" fill-rule="evenodd" clip-rule="evenodd" d="M14.0542 22.3014C14.9375 23.3383 16.502 23.4694 17.5487 22.5943C17.6989 22.4687 17.8336 22.3258 17.9498 22.1686L25.02 12.6063C25.2298 12.3226 25.1677 11.9241 24.8813 11.7163C24.6614 11.5567 24.3637 11.5519 24.1386 11.7044L14.6229 18.1521C13.3244 19.032 12.9917 20.788 13.8798 22.0744C13.934 22.1529 13.9922 22.2287 14.0542 22.3014Z" fill="url(#paint4_linear)"/>
<path fill-rule="evenodd" clip-rule="evenodd" d="M9.94008 17.9439L15.0843 23.5258C15.563 24.0453 16.3762 24.0819 16.9005 23.6076C16.9605 23.5534 17.0151 23.4936 17.0637 23.4291L20.2432 19.2109C20.4556 18.9291 20.3972 18.5301 20.1128 18.3197C20.0213 18.252 19.9133 18.2097 19.7998 18.1971L10.3498 17.1473C10.0852 17.1179 9.84669 17.3065 9.81702 17.5687C9.80153 17.7055 9.84639 17.8422 9.94008 17.9439Z" fill="url(#paint5_linear)"/>
<path fill-rule="evenodd" clip-rule="evenodd" d="M43.709 5.13062V3.75993H51.5169V5.13062H48.3434V17.8598H46.8922V5.13062H43.709ZM57.3511 7.16269C58.9701 7.16269 60.3118 7.74419 61.3761 8.90721C62.3436 9.96798 62.8274 11.2236 62.8274 12.6742C62.8274 14.1312 62.3162 15.4044 61.2938 16.4939C60.2715 17.5835 58.9572 18.1282 57.3511 18.1282C55.7386 18.1282 54.4211 17.5835 53.3988 16.4939C52.3764 15.4044 51.8653 14.1312 51.8653 12.6742C51.8653 11.23 52.349 9.97757 53.3165 8.91679C54.3808 7.74739 55.7257 7.16269 57.3511 7.16269ZM57.3511 8.47587C56.2288 8.47587 55.2645 8.88803 54.4582 9.71237C53.652 10.5367 53.2488 11.5336 53.2488 12.703C53.2488 13.457 53.4326 14.1599 53.8003 14.8117C54.168 15.4635 54.6646 15.9667 55.2903 16.3214C55.916 16.6761 56.6029 16.8534 57.3511 16.8534C58.0994 16.8534 58.7863 16.6761 59.412 16.3214C60.0376 15.9667 60.5343 15.4635 60.902 14.8117C61.2696 14.1599 61.4535 13.457 61.4535 12.703C61.4535 11.5336 61.0487 10.5367 60.2392 9.71237C59.4297 8.88803 58.467 8.47587 57.3511 8.47587ZM65.1688 7.43108H66.533V12.3004C66.533 13.489 66.5975 14.3069 66.7265 14.7542C66.92 15.3932 67.2893 15.898 67.8343 16.2687C68.3794 16.6393 69.0292 16.8246 69.7839 16.8246C70.5386 16.8246 71.1787 16.6441 71.7044 16.2831C72.2301 15.922 72.5929 15.4475 72.7929 14.8596C72.9284 14.4571 72.9961 13.604 72.9961 12.3004V7.43108H74.3797V12.5496C74.3797 13.9874 74.2103 15.0705 73.8717 15.799C73.5331 16.5275 73.0235 17.0978 72.343 17.51C71.6625 17.9221 70.8095 18.1282 69.7839 18.1282C68.7583 18.1282 67.902 17.9221 67.2151 17.51C66.5282 17.0978 66.0154 16.5227 65.6767 15.7846C65.3381 15.0466 65.1688 13.9363 65.1688 12.4538V7.43108ZM87.6058 9.59735L86.5318 10.2587C85.603 9.0382 84.3355 8.42795 82.7294 8.42795C81.4458 8.42795 80.3799 8.83691 79.5317 9.65486C78.6835 10.4728 78.2594 11.4665 78.2594 12.6359C78.2594 13.3963 78.4546 14.112 78.8448 14.783C79.235 15.4539 79.7704 15.9747 80.4509 16.3454C81.1314 16.716 81.8941 16.9013 82.7391 16.9013C84.2872 16.9013 85.5514 16.2911 86.5318 15.0705L87.6058 15.7702C87.1027 16.5179 86.427 17.0978 85.5788 17.51C84.7306 17.9221 83.7647 18.1282 82.681 18.1282C81.0169 18.1282 79.6366 17.6042 78.54 16.5562C77.4435 15.5082 76.8952 14.2334 76.8952 12.7317C76.8952 11.7221 77.1516 10.7843 77.6644 9.91845C78.1772 9.05258 78.8819 8.37683 79.7785 7.89117C80.675 7.40552 81.678 7.16269 82.7875 7.16269C83.4841 7.16269 84.1565 7.26813 84.8048 7.47901C85.453 7.68988 86.0029 7.96466 86.4544 8.30334C86.9059 8.64202 87.2897 9.07335 87.6058 9.59735ZM90.2084 3.40527H91.563V9.3002C92.1112 8.5845 92.7143 8.04933 93.3722 7.69467C94.0302 7.34002 94.7429 7.16269 95.5105 7.16269C96.2974 7.16269 96.9956 7.36079 97.6052 7.75698C98.2147 8.15317 98.6646 8.68515 98.9549 9.35292C99.2451 10.0207 99.3903 11.0671 99.3903 12.4921V17.8598H98.0357V12.8851C98.0357 11.6837 97.9874 10.8818 97.8906 10.4792C97.7229 9.78905 97.4181 9.26985 96.9763 8.92159C96.5344 8.57332 95.9555 8.39919 95.2396 8.39919C94.4204 8.39919 93.6867 8.66757 93.0384 9.20435C92.3902 9.74113 91.9629 10.4057 91.7565 11.1981C91.6275 11.7093 91.563 12.655 91.563 14.0353V17.8598H90.2084V3.40527ZM112.51 9.59735L111.436 10.2587C110.507 9.0382 109.24 8.42795 107.634 8.42795C106.35 8.42795 105.284 8.83691 104.436 9.65486C103.588 10.4728 103.164 11.4665 103.164 12.6359C103.164 13.3963 103.359 14.112 103.749 14.783C104.139 15.4539 104.675 15.9747 105.355 16.3454C106.036 16.716 106.798 16.9013 107.643 16.9013C109.191 16.9013 110.456 16.2911 111.436 15.0705L112.51 15.7702C112.007 16.5179 111.331 17.0978 110.483 17.51C109.635 17.9221 108.669 18.1282 107.585 18.1282C105.921 18.1282 104.541 17.6042 103.444 16.5562C102.348 15.5082 101.799 14.2334 101.799 12.7317C101.799 11.7221 102.056 10.7843 102.569 9.91845C103.081 9.05258 103.786 8.37683 104.683 7.89117C105.579 7.40552 106.582 7.16269 107.692 7.16269C108.388 7.16269 109.061 7.26813 109.709 7.47901C110.357 7.68988 110.907 7.96466 111.359 8.30334C111.81 8.64202 112.194 9.07335 112.51 9.59735ZM125.601 7.43108V17.8598H124.265V16.0674C123.698 16.7511 123.061 17.2655 122.355 17.6106C121.648 17.9557 120.876 18.1282 120.037 18.1282C118.547 18.1282 117.275 17.593 116.22 16.5227C115.166 15.4523 114.639 14.1503 114.639 12.6167C114.639 11.115 115.171 9.83059 116.235 8.76343C117.299 7.69627 118.58 7.16269 120.076 7.16269C120.94 7.16269 121.722 7.34481 122.422 7.70905C123.122 8.07329 123.737 8.61965 124.265 9.34813V7.43108H125.601ZM120.182 8.4567C119.428 8.4567 118.731 8.64042 118.093 9.00785C117.454 9.37529 116.946 9.89129 116.569 10.5559C116.191 11.2205 116.003 11.9234 116.003 12.6646C116.003 13.3995 116.193 14.1024 116.574 14.7734C116.954 15.4444 117.465 15.9667 118.107 16.3406C118.749 16.7144 119.437 16.9013 120.173 16.9013C120.915 16.9013 121.618 16.716 122.282 16.3454C122.946 15.9747 123.458 15.4731 123.816 14.8405C124.174 14.2078 124.353 13.4954 124.353 12.703C124.353 11.4952 123.951 10.4856 123.148 9.67403C122.345 8.86247 121.356 8.4567 120.182 8.4567ZM128.136 7.43108H129.519V8.95513C129.932 8.35446 130.367 7.90555 130.825 7.60841C131.283 7.31126 131.761 7.16269 132.257 7.16269C132.631 7.16269 133.031 7.28091 133.457 7.51735L132.751 8.64841C132.467 8.52699 132.228 8.46629 132.035 8.46629C131.583 8.46629 131.148 8.65 130.729 9.01744C130.309 9.38487 129.99 9.95519 129.771 10.7284C129.603 11.3227 129.519 12.524 129.519 14.3325V17.8598H128.136V7.43108ZM145 3.40527V17.8598H143.664V16.0674C143.097 16.7511 142.46 17.2655 141.754 17.6106C141.047 17.9557 140.275 18.1282 139.436 18.1282C137.946 18.1282 136.674 17.593 135.619 16.5227C134.565 15.4523 134.037 14.1503 134.037 12.6167C134.037 11.115 134.57 9.83059 135.634 8.76343C136.698 7.69627 137.979 7.16269 139.475 7.16269C140.339 7.16269 141.121 7.34481 141.821 7.70905C142.521 8.07329 143.135 8.61965 143.664 9.34813V3.40527H145ZM139.581 8.4567C138.827 8.4567 138.13 8.64042 137.492 9.00785C136.853 9.37529 136.345 9.89129 135.968 10.5559C135.59 11.2205 135.402 11.9234 135.402 12.6646C135.402 13.3995 135.592 14.1024 135.973 14.7734C136.353 15.4444 136.864 15.9667 137.506 16.3406C138.148 16.7144 138.836 16.9013 139.572 16.9013C140.314 16.9013 141.017 16.716 141.681 16.3454C142.345 15.9747 142.857 15.4731 143.214 14.8405C143.572 14.2078 143.751 13.4954 143.751 12.703C143.751 11.4952 143.35 10.4856 142.547 9.67403C141.744 8.86247 140.755 8.4567 139.581 8.4567Z" fill="#4A4A4A"/>
<path fill-rule="evenodd" clip-rule="evenodd" d="M46.905 29.4789V24.6212H51.1539V29.4789H50.4237V25.2601H47.6353V29.4789H46.905ZM52.5481 29.5541C52.3584 29.5541 52.1624 29.529 51.9601 29.4789L52.0455 28.8588C52.1909 28.9026 52.3079 28.9245 52.3964 28.9245C52.5355 28.9245 52.6493 28.9073 52.7378 28.8729C52.8263 28.8384 52.9227 28.7476 53.0271 28.6004C53.1314 28.4532 53.212 28.2449 53.2689 27.9755C53.3258 27.7062 53.3748 27.3241 53.4159 26.8292C53.457 26.3344 53.4776 25.7331 53.4776 25.0252V24.6212H56.9488V29.4789H56.2185V25.2601H54.1699V25.3729C54.1699 26.112 54.1415 26.7415 54.0846 27.2615C54.0277 27.7814 53.9565 28.1885 53.8712 28.4829C53.7858 28.7773 53.6673 29.006 53.5155 29.1688C53.3638 29.3317 53.2168 29.4366 53.0745 29.4836C52.9322 29.5306 52.7568 29.5541 52.5481 29.5541ZM60.0406 29.5823C59.5411 29.5823 59.1112 29.4476 58.7508 29.1782C58.3904 28.9089 58.2102 28.533 58.2102 28.0507C58.2102 27.5433 58.3999 27.1518 58.7792 26.8762C59.1586 26.6006 59.6676 26.4628 60.3062 26.4628C60.812 26.4628 61.3115 26.5317 61.8047 26.6695V26.5192C61.8047 26.0932 61.6782 25.7675 61.4253 25.542C61.1724 25.3165 60.8152 25.2037 60.3536 25.2037C59.8731 25.2037 59.3767 25.3196 58.8646 25.5514L58.6465 24.9595C59.2534 24.6838 59.8478 24.546 60.4295 24.546C61.125 24.546 61.6529 24.7246 62.0133 25.0816C62.3548 25.4199 62.5255 25.8959 62.5255 26.5098V29.4789H61.8047V28.7554C61.3684 29.3066 60.7804 29.5823 60.0406 29.5823ZM60.1829 28.9997C60.6381 28.9997 61.0238 28.8776 61.34 28.6333C61.6561 28.389 61.8142 28.0758 61.8142 27.6937V27.2427C61.3336 27.1049 60.8563 27.036 60.3821 27.036C59.9331 27.036 59.5822 27.1252 59.3293 27.3037C59.0764 27.4823 58.9499 27.725 58.9499 28.0319C58.9499 28.3263 59.0685 28.5612 59.3056 28.7366C59.5427 28.912 59.8351 28.9997 60.1829 28.9997ZM65.2569 29.4789V25.2601H63.5024V24.6212H67.7513V25.2601H65.9967V29.4789H65.2569ZM70.9569 29.5916C70.2677 29.5916 69.6876 29.3552 69.2166 28.8823C68.7455 28.4093 68.51 27.8002 68.51 27.0547C68.51 26.3469 68.7345 25.7471 69.1834 25.2554C69.6323 24.7637 70.1919 24.5178 70.8621 24.5178C71.5639 24.5178 72.1203 24.7621 72.5313 25.2507C72.9423 25.7393 73.1478 26.3532 73.1478 27.0923C73.1478 27.1863 73.1446 27.2709 73.1383 27.346H69.2498C69.3004 27.8409 69.4885 28.2339 69.8141 28.5252C70.1397 28.8165 70.527 28.9621 70.9759 28.9621C71.5639 28.9621 72.0792 28.7335 72.5218 28.2762L72.9771 28.6802C72.427 29.2878 71.7536 29.5916 70.9569 29.5916ZM69.2498 26.7635H72.408C72.3638 26.2937 72.2073 25.9037 71.9385 25.5937C71.6698 25.2836 71.3047 25.1286 70.8431 25.1286C70.4258 25.1286 70.0686 25.282 69.7714 25.589C69.4742 25.8959 69.3004 26.2874 69.2498 26.7635ZM73.8022 29.4789L75.8128 26.6977L73.9065 24.6212H74.7885L77.2829 27.44V24.6212H78.0132V27.44L80.5075 24.6212H81.3895L79.4832 26.6977L81.4939 29.4789H80.6403L79.009 27.2145L78.0132 28.295V29.4789H77.2829V28.295L76.287 27.2145L74.6558 29.4789H73.8022ZM82.5182 23.5595V22.7608H83.3528V23.5595H82.5182ZM82.5656 29.4789V24.6212H83.2959V29.4789H82.5656ZM89.0243 29.4789V25.2601H87.2697V24.6212H91.5187V25.2601H89.7641V29.4789H89.0243ZM94.0414 29.5823C93.5419 29.5823 93.112 29.4476 92.7516 29.1782C92.3912 28.9089 92.211 28.533 92.211 28.0507C92.211 27.5433 92.4007 27.1518 92.78 26.8762C93.1594 26.6006 93.6684 26.4628 94.307 26.4628C94.8128 26.4628 95.3123 26.5317 95.8055 26.6695V26.5192C95.8055 26.0932 95.6791 25.7675 95.4261 25.542C95.1732 25.3165 94.816 25.2037 94.3544 25.2037C93.8739 25.2037 93.3776 25.3196 92.8654 25.5514L92.6473 24.9595C93.2543 24.6838 93.8486 24.546 94.4303 24.546C95.1258 24.546 95.6538 24.7246 96.0142 25.0816C96.3556 25.4199 96.5263 25.8959 96.5263 26.5098V29.4789H95.8055V28.7554C95.3692 29.3066 94.7812 29.5823 94.0414 29.5823ZM94.1837 28.9997C94.639 28.9997 95.0246 28.8776 95.3408 28.6333C95.6569 28.389 95.815 28.0758 95.815 27.6937V27.2427C95.3344 27.1049 94.8571 27.036 94.3829 27.036C93.934 27.036 93.583 27.1252 93.3301 27.3037C93.0772 27.4823 92.9508 27.725 92.9508 28.0319C92.9508 28.3263 93.0693 28.5612 93.3064 28.7366C93.5435 28.912 93.836 28.9997 94.1837 28.9997ZM100.917 29.4789V24.6212H105.166V29.4789H104.436V25.2601H101.648V29.4789H100.917ZM108.941 29.5916C108.252 29.5916 107.672 29.3552 107.201 28.8823C106.73 28.4093 106.494 27.8002 106.494 27.0547C106.494 26.3469 106.719 25.7471 107.168 25.2554C107.616 24.7637 108.176 24.5178 108.846 24.5178C109.548 24.5178 110.104 24.7621 110.515 25.2507C110.926 25.7393 111.132 26.3532 111.132 27.0923C111.132 27.1863 111.129 27.2709 111.122 27.346H107.234C107.285 27.8409 107.473 28.2339 107.798 28.5252C108.124 28.8165 108.511 28.9621 108.96 28.9621C109.548 28.9621 110.063 28.7335 110.506 28.2762L110.961 28.6802C110.411 29.2878 109.738 29.5916 108.941 29.5916ZM107.234 26.7635H110.392C110.348 26.2937 110.191 25.9037 109.923 25.5937C109.654 25.2836 109.289 25.1286 108.827 25.1286C108.41 25.1286 108.053 25.282 107.756 25.589C107.458 25.8959 107.285 26.2874 107.234 26.7635ZM112.412 30.9822V24.6212H113.143V25.5984C113.636 24.878 114.262 24.5178 115.02 24.5178C115.646 24.5178 116.193 24.748 116.661 25.2084C117.129 25.6688 117.363 26.2843 117.363 27.0547C117.363 27.8127 117.129 28.4234 116.661 28.887C116.193 29.3505 115.646 29.5823 115.02 29.5823C114.249 29.5823 113.623 29.2377 113.143 28.5487V30.9822H112.412ZM114.888 28.9339C115.381 28.9339 115.792 28.7632 116.121 28.4219C116.449 28.0805 116.614 27.6216 116.614 27.0453C116.614 26.4879 116.446 26.0353 116.111 25.6876C115.776 25.34 115.368 25.1662 114.888 25.1662C114.413 25.1662 113.999 25.3447 113.645 25.7017C113.291 26.0588 113.114 26.5098 113.114 27.0547C113.114 27.5997 113.291 28.0491 113.645 28.4031C113.999 28.757 114.413 28.9339 114.888 28.9339ZM120.853 29.5916C120.164 29.5916 119.584 29.3552 119.113 28.8823C118.642 28.4093 118.406 27.8002 118.406 27.0547C118.406 26.3469 118.631 25.7471 119.08 25.2554C119.529 24.7637 120.088 24.5178 120.758 24.5178C121.46 24.5178 122.017 24.7621 122.428 25.2507C122.839 25.7393 123.044 26.3532 123.044 27.0923C123.044 27.1863 123.041 27.2709 123.035 27.346H119.146C119.197 27.8409 119.385 28.2339 119.71 28.5252C120.036 28.8165 120.423 28.9621 120.872 28.9621C121.46 28.9621 121.976 28.7335 122.418 28.2762L122.873 28.6802C122.323 29.2878 121.65 29.5916 120.853 29.5916ZM119.146 26.7635H122.304C122.26 26.2937 122.104 25.9037 121.835 25.5937C121.566 25.2836 121.201 25.1286 120.739 25.1286C120.322 25.1286 119.965 25.282 119.668 25.589C119.371 25.8959 119.197 26.2874 119.146 26.7635ZM124.324 29.4789V24.6212H125.055V27.4212L127.739 24.6212H128.64L126.591 26.7259L128.697 29.4789H127.834L126.089 27.2521L125.055 28.3044V29.4789H124.324ZM131.163 29.5823C130.663 29.5823 130.233 29.4476 129.873 29.1782C129.512 28.9089 129.332 28.533 129.332 28.0507C129.332 27.5433 129.522 27.1518 129.901 26.8762C130.281 26.6006 130.79 26.4628 131.428 26.4628C131.934 26.4628 132.433 26.5317 132.927 26.6695V26.5192C132.927 26.0932 132.8 25.7675 132.547 25.542C132.294 25.3165 131.937 25.2037 131.476 25.2037C130.995 25.2037 130.499 25.3196 129.987 25.5514L129.768 24.9595C130.375 24.6838 130.97 24.546 131.551 24.546C132.247 24.546 132.775 24.7246 133.135 25.0816C133.477 25.4199 133.647 25.8959 133.647 26.5098V29.4789H132.927V28.7554C132.49 29.3066 131.902 29.5823 131.163 29.5823ZM131.305 28.9997C131.76 28.9997 132.146 28.8776 132.462 28.6333C132.778 28.389 132.936 28.0758 132.936 27.6937V27.2427C132.456 27.1049 131.978 27.036 131.504 27.036C131.055 27.036 130.704 27.1252 130.451 27.3037C130.198 27.4823 130.072 27.725 130.072 28.0319C130.072 28.3263 130.19 28.5612 130.428 28.7366C130.665 28.912 130.957 28.9997 131.305 28.9997ZM136.749 29.5916C135.996 29.5916 135.32 29.3505 134.719 28.8682L135.089 28.3326C135.589 28.7523 136.135 28.9621 136.73 28.9621C137.065 28.9621 137.351 28.8854 137.588 28.7319C137.825 28.5785 137.944 28.367 137.944 28.0977C137.944 27.8471 137.836 27.6514 137.621 27.5104C137.406 27.3695 137.103 27.299 136.711 27.299H136.056V26.7071H136.72C137.043 26.7071 137.305 26.6304 137.507 26.4769C137.71 26.3234 137.811 26.1214 137.811 25.8709C137.811 25.6516 137.711 25.4762 137.512 25.3447C137.313 25.2131 137.059 25.1474 136.749 25.1474C136.167 25.1474 135.671 25.3102 135.26 25.636L134.899 25.1286C135.43 24.7214 136.063 24.5178 136.796 24.5178C137.34 24.5178 137.771 24.6384 138.091 24.8796C138.41 25.1208 138.57 25.4324 138.57 25.8145C138.57 26.3469 138.307 26.7196 137.783 26.9326C138.39 27.1456 138.693 27.5433 138.693 28.1259C138.693 28.533 138.516 28.8791 138.162 29.1641C137.808 29.4491 137.337 29.5916 136.749 29.5916ZM140.049 29.4789V24.6212H140.78V28.4641L143.691 24.6212H144.402V29.4789H143.672V25.636L140.751 29.4789H140.049Z" fill="#8B8D8F"/>
<defs>
<linearGradient id="paint0_linear" x1="21.8594" y1="14.9451" x2="31.7772" y2="35.3785" gradientUnits="userSpaceOnUse">
<stop stop-color="#3BB9EB"/>
<stop offset="1" stop-color="#585AE6"/>
</linearGradient>
<linearGradient id="paint1_linear" x1="18.5534" y1="14.3991" x2="28.4712" y2="34.8325" gradientUnits="userSpaceOnUse">
<stop stop-color="#3BB9EB"/>
<stop offset="1" stop-color="#585AE6"/>
</linearGradient>
<linearGradient id="paint2_linear" x1="18.0031" y1="11.1245" x2="27.9209" y2="31.5579" gradientUnits="userSpaceOnUse">
<stop stop-color="#3BB9EB"/>
<stop offset="1" stop-color="#585AE6"/>
</linearGradient>
<linearGradient id="paint3_linear" x1="21.3091" y1="11.6705" x2="31.2269" y2="32.1039" gradientUnits="userSpaceOnUse">
<stop stop-color="#3BB9EB"/>
<stop offset="1" stop-color="#585AE6"/>
</linearGradient>
<linearGradient id="paint4_linear" x1="18.051" y1="17.3881" x2="20.5144" y2="20.8964" gradientUnits="userSpaceOnUse">
<stop stop-color="#3BB9EB"/>
<stop offset="1" stop-color="#585AE6"/>
</linearGradient>
<linearGradient id="paint5_linear" x1="13.9383" y1="18.1446" x2="15.3482" y2="24.5063" gradientUnits="userSpaceOnUse">
<stop stop-color="#3BB9EB"/>
<stop offset="1" stop-color="#585AE6"/>
</linearGradient>
</defs>
</svg>
