<svg width="64" height="65" viewBox="0 0 64 65" fill="none" xmlns="http://www.w3.org/2000/svg">
<rect y="0.777832" width="63.7556" height="63.7556" rx="6" fill="#F5F5F5"/>
<path d="M48.0395 19.2334C43.9916 19.2318 40.7088 22.5121 40.7075 26.5602C40.7061 30.6083 43.9866 33.8911 48.0345 33.8927C52.0829 33.8943 55.3655 30.6139 55.3667 26.5659C55.3684 22.5178 52.0875 19.2349 48.0395 19.2334Z" fill="#304551"/>
<path d="M31.0595 19.2334C27.0114 19.2318 23.7287 22.5121 23.7274 26.5602C23.726 30.6083 27.0065 33.8911 31.0545 33.8927C35.1026 33.8943 38.3853 30.6139 38.3867 26.5659C38.388 22.5178 35.1075 19.2349 31.0595 19.2334Z" fill="#4D8796" fill-opacity="0.8"/>
<path d="M14.0514 19.2334C10.0034 19.2318 6.72067 22.5121 6.7193 26.5602C6.71793 30.6083 9.99842 33.8911 14.0465 33.8927C18.0946 33.8943 21.3773 30.6139 21.3786 26.5659C21.38 22.5178 18.0995 19.235 14.0514 19.2334Z" fill="#93BFCB" fill-opacity="0.8"/>
<path d="M10.5189 47.8425C9.79361 47.8425 9.14079 47.7011 8.56065 47.4184C7.98693 47.1296 7.53537 46.7301 7.20554 46.22C6.87593 45.7099 6.71112 45.1322 6.71112 44.4869C6.71112 43.8416 6.87593 43.2639 7.20554 42.7538C7.53537 42.2437 7.98693 41.8473 8.56065 41.5646C9.14079 41.2758 9.79361 41.1313 10.5189 41.1313C11.1518 41.1313 11.7222 41.2358 12.2299 41.4448C12.7376 41.6537 13.1595 41.9549 13.4958 42.3482L12.2496 43.3991C11.8013 42.8952 11.2574 42.6432 10.6179 42.6432C10.2419 42.6432 9.90562 42.72 9.60892 42.8737C9.31885 43.0273 9.09131 43.2455 8.9265 43.5282C8.76832 43.8047 8.68923 44.1243 8.68923 44.4869C8.68923 44.8495 8.76832 45.1721 8.9265 45.4549C9.09131 45.7314 9.31885 45.9465 9.60892 46.1002C9.90562 46.2538 10.2419 46.3306 10.6179 46.3306C11.2574 46.3306 11.8013 46.0786 12.2496 45.5747L13.4958 46.6256C13.1595 47.0189 12.7376 47.3201 12.2299 47.529C11.7222 47.738 11.1518 47.8425 10.5189 47.8425ZM14.7645 41.2604H16.7228V47.7134H14.7645V41.2604ZM19.9852 42.7077H17.8588V41.2604H24.06V42.7077H21.9434V47.7134H19.9852V42.7077ZM28.7297 45.3995V47.7134H26.7715V45.3719L24.1308 41.2604H26.198L27.8396 43.8232L29.4815 41.2604H31.3803L28.7297 45.3995ZM38.8323 41.2604V47.7134H36.8734V45.1967H34.2034V47.7134H32.2451V41.2604H34.2034V43.6849H36.8734V41.2604H38.8323ZM43.8034 47.8425C42.7746 47.8425 41.9738 47.5813 41.4003 47.0589C40.833 46.5365 40.5493 45.7959 40.5493 44.8372V41.2604H42.5079V44.7819C42.5079 45.8144 42.9463 46.3306 43.8233 46.3306C44.6935 46.3306 45.1289 45.8144 45.1289 44.7819V41.2604H47.0576V44.8372C47.0576 45.7959 46.7704 46.5365 46.1969 47.0589C45.6296 47.5813 44.8322 47.8425 43.8034 47.8425ZM54.1002 44.3486C54.4958 44.4777 54.8062 44.6805 55.0302 44.957C55.254 45.2275 55.3667 45.5563 55.3667 45.9434C55.3667 46.5088 55.1222 46.9452 54.6346 47.2525C54.147 47.5597 53.4407 47.7134 52.5177 47.7134H48.7793V41.2604H52.32C53.2039 41.2604 53.8764 41.4141 54.3379 41.7213C54.7994 42.0225 55.0302 42.4312 55.0302 42.9474C55.0302 43.2547 54.9476 43.5312 54.7828 43.7771C54.6248 44.0168 54.3969 44.2073 54.1002 44.3486ZM50.7183 42.5787V43.8232H52.0631C52.7225 43.8232 53.0521 43.6142 53.0521 43.1963C53.0521 42.7845 52.7225 42.5787 52.0631 42.5787H50.7183ZM52.3598 46.3951C53.0453 46.3951 53.3886 46.177 53.3886 45.7406C53.3886 45.3043 53.0453 45.0861 52.3598 45.0861H50.7183V46.3951H52.3598Z" fill="black"/>
</svg>
