<svg width="175" height="48" viewBox="0 0 175 48" fill="none" xmlns="http://www.w3.org/2000/svg">
<path d="M62.7535 11.7276H63.7741C64.2339 11.7276 64.6107 11.6023 64.9035 11.3498C65.0452 11.2307 65.1584 11.0811 65.2346 10.9121C65.3108 10.7432 65.3481 10.5592 65.3437 10.3738C65.3437 9.98257 65.2098 9.67277 64.9402 9.44535C64.6723 9.21793 64.3062 9.10511 63.8419 9.10511C63.3741 9.10511 62.9982 9.21793 62.7116 9.44535C62.4223 9.67277 62.258 9.98615 62.2205 10.3846H61.3044C61.3535 9.72739 61.6062 9.20897 62.0634 8.83203C62.5232 8.45418 63.1285 8.26526 63.8785 8.26526C64.583 8.26526 65.1643 8.45597 65.6205 8.8365C66.0741 9.21435 66.3009 9.69874 66.3009 10.2897C66.3009 10.7105 66.1714 11.0821 65.9134 11.4071C65.657 11.7291 65.2995 11.9547 64.8991 12.0473V12.0894C65.4009 12.1556 65.7964 12.3571 66.0866 12.6928C66.3759 13.0322 66.5205 13.4584 66.5205 13.9732C66.5205 14.5955 66.2643 15.122 65.7518 15.5517C65.2384 15.9788 64.6089 16.1919 63.8625 16.1919C63.0678 16.1919 62.4169 15.9949 61.9116 15.5992C61.4053 15.2079 61.1348 14.6886 61.1009 14.0413H62.0116C62.0527 14.4397 62.241 14.7576 62.5759 14.9957C62.9071 15.2339 63.333 15.353 63.8526 15.353C64.358 15.353 64.7678 15.2231 65.0821 14.9644C65.3955 14.702 65.5526 14.3627 65.5526 13.9464C65.5526 13.513 65.3991 13.1763 65.0919 12.9346C64.7857 12.6893 64.3598 12.5675 63.8151 12.5675H62.7535V11.7276ZM69.3339 15.2733C69.7946 15.2733 70.1768 15.1408 70.4803 14.8757C70.7803 14.6062 70.9303 14.2687 70.9303 13.8631V13.4064L69.4553 13.5005C68.5973 13.5533 68.1678 13.8559 68.1678 14.4084C68.1678 14.6707 68.275 14.8802 68.4875 15.0378C68.6964 15.1954 68.9785 15.2742 69.3348 15.2742L69.3339 15.2733ZM69.141 16.0666C68.5696 16.0666 68.1089 15.9144 67.7598 15.6099C67.4116 15.3055 67.2366 14.9026 67.2366 14.403C67.2366 13.9168 67.4178 13.5354 67.7812 13.2596C68.1437 12.9794 68.6669 12.8191 69.35 12.7761L70.9303 12.6821V12.2102C70.9303 11.861 70.8187 11.5915 70.5955 11.4026C70.3723 11.2137 70.0535 11.1188 69.6384 11.1188C69.3107 11.1188 69.0348 11.1976 68.8116 11.3552C68.7027 11.4278 68.6093 11.5213 68.5365 11.6302C68.4637 11.7392 68.4131 11.8614 68.3875 11.99H67.5143C67.5276 11.5145 67.7393 11.1134 68.1473 10.7884C68.5553 10.4661 69.0553 10.3058 69.6482 10.3058C70.3152 10.3058 70.8464 10.4705 71.2446 10.7982C71.6419 11.1313 71.8402 11.5754 71.8402 12.1323V16.0137H70.9776V15.0324H70.9562C70.7955 15.3476 70.5518 15.5974 70.2241 15.7827C69.8964 15.9717 69.5348 16.0666 69.141 16.0666ZM73.933 11.1134V12.709H75.1884C75.8964 12.709 76.2509 12.4395 76.2509 11.9004C76.2509 11.3758 75.9455 11.1134 75.3348 11.1134H73.933ZM73.933 13.4637V15.2581H75.4393C76.1446 15.2581 76.4964 14.9626 76.4964 14.3716C76.4964 13.7664 76.0866 13.4637 75.2669 13.4637H73.933ZM73.033 10.3586H75.45C75.9732 10.3586 76.3866 10.4876 76.6902 10.7463C76.9902 11.006 77.1401 11.3587 77.1401 11.8064C77.1401 12.0929 77.0509 12.3535 76.8723 12.5881C76.6955 12.8227 76.4768 12.9677 76.2187 13.0232V13.0653C76.5714 13.1146 76.8553 13.2596 77.0714 13.5005C77.2848 13.7422 77.391 14.0377 77.391 14.3869C77.391 14.8883 77.2187 15.2849 76.8732 15.5777C76.5276 15.8687 76.0571 16.0137 75.4607 16.0137H73.033V10.3586ZM80.2312 15.2742C80.6919 15.2742 81.0741 15.1408 81.3768 14.8757C81.6768 14.6062 81.8268 14.2687 81.8268 13.8631V13.4064L80.3518 13.5005C79.4937 13.5533 79.0652 13.8559 79.0652 14.4084C79.0652 14.6707 79.1714 14.8802 79.3839 15.0378C79.5928 15.1954 79.875 15.2742 80.2321 15.2742H80.2312ZM80.0375 16.0666C79.466 16.0666 79.0053 15.9144 78.6562 15.6099C78.308 15.3055 78.1339 14.9026 78.1339 14.403C78.1339 13.9168 78.3151 13.5354 78.6777 13.2596C79.0401 12.9794 79.5634 12.8191 80.2473 12.7761L81.8276 12.6821V12.2102C81.8276 11.861 81.7151 11.5915 81.4919 11.4026C81.2687 11.2137 80.95 11.1188 80.5348 11.1188C80.2071 11.1188 79.9312 11.1976 79.708 11.3552C79.5993 11.4279 79.506 11.5214 79.4334 11.6303C79.3608 11.7393 79.3103 11.8615 79.2848 11.99H78.4107C78.425 11.5145 78.6357 11.1134 79.0446 10.7884C79.4518 10.4661 79.9526 10.3058 80.5446 10.3058C81.2116 10.3058 81.7437 10.4705 82.141 10.7982C82.5384 11.1313 82.7375 11.5754 82.7375 12.1323V16.0137H81.8741V15.0324H81.8535C81.6928 15.3476 81.4482 15.5974 81.1214 15.7827C80.7928 15.9717 80.4321 16.0666 80.0375 16.0666ZM87.6964 13.4539H84.8303V16.0137H83.9294V10.3586H84.8294V12.6982H87.6964V10.3586H88.5964V16.0137H87.6955V13.453L87.6964 13.4539ZM93.9482 11.1134H92.1169V16.0137H91.2169V11.1134H89.3866V10.3586H93.9482V11.1134ZM96.4214 15.2742C96.8821 15.2742 97.2643 15.1408 97.5678 14.8757C97.8678 14.6062 98.0178 14.2687 98.0178 13.8631V13.4064L96.5428 13.5005C95.6848 13.5533 95.2553 13.8559 95.2553 14.4084C95.2553 14.6707 95.3625 14.8802 95.575 15.0378C95.7839 15.1954 96.066 15.2742 96.4223 15.2742H96.4214ZM96.2285 16.0666C95.6571 16.0666 95.1964 15.9144 94.8473 15.6099C94.4991 15.3055 94.3241 14.9026 94.3241 14.403C94.3241 13.9168 94.5053 13.5354 94.8687 13.2596C95.2312 12.9794 95.7544 12.8191 96.4375 12.7761L98.0178 12.6821V12.2102C98.0178 11.861 97.9062 11.5915 97.683 11.4026C97.4598 11.2137 97.1402 11.1188 96.7259 11.1188C96.3973 11.1188 96.1223 11.1976 95.8991 11.3552C95.7902 11.4278 95.6968 11.5213 95.624 11.6302C95.5512 11.7392 95.5006 11.8614 95.475 11.99H94.6018C94.6152 11.5145 94.8268 11.1134 95.2348 10.7884C95.6428 10.4661 96.1428 10.3058 96.7357 10.3058C97.4018 10.3058 97.9339 10.4705 98.3312 10.7982C98.7294 11.1313 98.9277 11.5754 98.9277 12.1323V16.0137H98.0651V15.0324H98.0437C97.883 15.3476 97.6393 15.5974 97.3116 15.7827C96.9839 15.9717 96.6223 16.0666 96.2285 16.0666ZM107.512 16.0137H106.336L104.029 13.2802H103.987V16.0137H103.087V13.2802H103.045L100.737 16.0137H99.5812L102.14 13.0501L99.6393 10.3586H100.764L103.045 12.871H103.087V10.3586H103.987V12.871H104.029L106.31 10.3586H107.429L104.938 13.034L107.512 16.0137ZM108.224 16.0137V10.3586H109.124V14.6027H109.165L112.069 10.3586H112.969V16.0137H112.069V11.7697H112.027L109.124 16.0137H108.224ZM118.321 11.1134H116.49V16.0137H115.589V11.1134H113.759V10.3586H118.321V11.1134ZM119.11 16.0137V10.3586H120.01V14.6027H120.052L122.955 10.3586H123.855V16.0137H122.955V11.7697H122.913L120.01 16.0137H119.11ZM129.437 16.1078C128.822 16.1078 128.313 15.9681 127.909 15.6887C127.501 15.4085 127.272 15.0351 127.223 14.5659H128.15C128.176 14.686 128.226 14.7993 128.298 14.8986C128.37 14.9979 128.462 15.081 128.568 15.1426C128.795 15.2795 129.084 15.3476 129.437 15.3476C129.845 15.3476 130.163 15.2581 130.394 15.0799C130.501 15.0011 130.587 14.8973 130.646 14.7775C130.704 14.6577 130.733 14.5255 130.729 14.3922C130.729 13.7664 130.298 13.4539 129.437 13.4539H128.584V12.6982H129.437C130.172 12.6982 130.54 12.4162 130.54 11.8539C130.54 11.6014 130.454 11.4044 130.279 11.2603C130.091 11.1036 129.819 11.0248 129.462 11.0248C129.124 11.0248 128.846 11.0928 128.626 11.2289C128.406 11.3659 128.278 11.5477 128.238 11.7751H127.349C127.373 11.5538 127.444 11.3404 127.558 11.1493C127.672 10.9581 127.825 10.7938 128.008 10.6675C128.388 10.3953 128.874 10.2583 129.463 10.2583C130.087 10.2583 130.573 10.3998 130.922 10.6836C131.261 10.9567 131.429 11.3238 131.429 11.7849C131.429 12.0786 131.345 12.3383 131.173 12.5621C131.006 12.7884 130.763 12.9467 130.488 13.008V13.0492C131.245 13.2139 131.623 13.6455 131.623 14.3457C131.623 14.8704 131.423 15.2948 131.021 15.6207C130.621 15.9457 130.093 16.1078 129.437 16.1078ZM71.4812 35.4521L70.1955 31.645H64.841L63.5562 35.4521H61.2884L66.3598 21.3653H68.716L73.7875 35.4521H71.4812ZM67.4893 23.7076L65.3964 29.8874H69.641L67.5473 23.7076H67.4893ZM80.5732 24.7427C83.2696 24.7427 85.0419 26.8611 85.0419 30.1507C85.0419 33.4313 83.2794 35.5587 80.6223 35.5587C79.1035 35.5587 77.9053 34.8863 77.2732 33.7142H77.2339V38.9181H75.1214V24.8501H77.1562V26.6077H77.2044C77.7991 25.4652 79.1035 24.7427 80.5732 24.7427ZM80.0375 33.7635C81.7518 33.7635 82.8803 32.3479 82.8803 30.1507C82.8803 27.9642 81.7509 26.5388 80.0375 26.5388C78.3634 26.5388 77.225 27.9937 77.2143 30.1507C77.2241 32.3183 78.3535 33.7635 80.0375 33.7635ZM92.1777 24.7427C94.8741 24.7427 96.6455 26.8611 96.6455 30.1507C96.6455 33.4313 94.8839 35.5587 92.2259 35.5587C90.708 35.5587 89.5098 34.8863 88.8776 33.7142H88.8384V38.9181H86.7259V24.8501H88.7607V26.6077H88.8089C89.4027 25.4652 90.7071 24.7427 92.1777 24.7427ZM91.6419 33.7635C93.3553 33.7635 94.4848 32.3479 94.4848 30.1507C94.4848 27.9642 93.3553 26.5388 91.6419 26.5388C89.9678 26.5388 88.8285 27.9937 88.8187 30.1507C88.8285 32.3183 89.958 33.7635 91.6419 33.7635ZM102.516 31.5277H104.668C104.823 32.9236 106.177 33.8414 108.026 33.8414C109.798 33.8414 111.073 32.9236 111.073 31.6647C111.073 30.5706 110.304 29.917 108.484 29.4675L106.662 29.0288C104.083 28.4038 102.886 27.1933 102.886 25.2306C102.886 22.7997 104.998 21.1299 107.997 21.1299C110.966 21.1299 113.001 22.7997 113.069 25.2306H110.946C110.821 23.8249 109.662 22.9761 107.968 22.9761C106.274 22.9761 105.115 23.8348 105.115 25.0847C105.115 26.0803 105.855 26.6659 107.666 27.1154L109.214 27.4959C112.096 28.1791 113.293 29.3404 113.293 31.4006C113.293 34.0366 111.2 35.6867 107.871 35.6867C104.754 35.6867 102.653 34.0751 102.516 31.5277ZM115.668 22.4684H117.771V24.8501H119.796V26.5191H117.771V32.4455C117.771 33.3632 118.179 33.7921 119.066 33.7921C119.289 33.7921 119.65 33.7635 119.787 33.7438V35.4127C119.553 35.4718 119.056 35.5202 118.599 35.5202C116.486 35.5202 115.668 34.7099 115.668 32.6604V26.5191H114.208V24.851H115.668V22.4693V22.4684ZM126.104 35.5793C123.047 35.5793 121.1 33.4895 121.1 30.1507C121.1 26.8217 123.057 24.7131 126.104 24.7131C129.152 24.7131 131.098 26.8127 131.098 30.1507C131.098 33.4904 129.161 35.5793 126.104 35.5793ZM126.104 33.8217C127.896 33.8217 128.956 32.4652 128.956 30.1507C128.956 27.837 127.896 26.4707 126.104 26.4707C124.313 26.4707 123.242 27.8469 123.242 30.1507C123.242 32.4652 124.313 33.8217 126.104 33.8217ZM132.792 35.4521V24.8501H134.807V26.6364H134.846C135.177 25.4554 136.151 24.7427 137.397 24.7427C137.63 24.7427 137.933 24.7722 138.098 24.8206V26.8029C137.922 26.734 137.485 26.6659 137.173 26.6659C135.78 26.6659 134.905 27.6329 134.905 29.1264V35.4521H132.792ZM143.89 26.4412C142.372 26.4412 141.271 27.5541 141.154 29.1846H146.519C146.471 27.5344 145.429 26.4412 143.89 26.4412ZM146.509 32.3479H148.524C148.222 34.2514 146.363 35.5793 143.988 35.5793C140.921 35.5793 139.013 33.5092 139.013 30.1901C139.013 26.8709 140.94 24.7131 143.9 24.7131C146.802 24.7131 148.632 26.734 148.632 29.9465V30.6879H141.145V30.815C141.145 32.6505 142.294 33.8611 144.027 33.8611C145.254 33.8611 146.217 33.2755 146.509 32.3479ZM47.3946 33.682C46.1875 35.4432 44.9393 37.1936 42.9696 37.2303C41.0303 37.2661 40.4089 36.0834 38.1964 36.0834C35.9821 36.0834 35.2884 37.1936 33.458 37.267C31.5562 37.3378 30.1098 35.3644 28.8928 33.6113C26.408 30.0262 24.5116 23.4748 27.0625 19.0526C28.325 16.8572 30.5893 15.4676 33.041 15.4309C34.9089 15.3968 36.6741 16.6889 37.8152 16.6889C38.958 16.6889 41.0991 15.1381 43.3509 15.3655C44.2937 15.404 46.9393 15.7442 48.6375 18.2262C48.5035 18.3148 45.4803 20.0706 45.5169 23.7291C45.5544 28.0985 49.3526 29.5517 49.3973 29.5714C49.3625 29.6743 48.7901 31.645 47.3946 33.6811V33.682ZM39.1214 10.5646C40.1643 9.34507 41.9268 8.43717 43.3803 8.37628C43.5669 10.0712 42.8839 11.7679 41.875 12.991C40.8643 14.2114 39.2098 15.1623 37.5866 15.0351C37.366 13.3769 38.1848 11.6479 39.1223 10.5646H39.1214Z" fill="white"/>
<rect x="0.5" y="1.5" width="174" height="44" rx="4.5" stroke="white"/>
</svg>
