<svg width="47" height="47" viewBox="0 0 47 47" fill="none" xmlns="http://www.w3.org/2000/svg">
<path fill-rule="evenodd" clip-rule="evenodd" d="M23.5 47C36.4787 47 47 36.4787 47 23.5C47 10.5213 36.4787 0 23.5 0C10.5213 0 0 10.5213 0 23.5C0 36.4787 10.5213 47 23.5 47Z" fill="#D9E3E9"/>
<path fill-rule="evenodd" clip-rule="evenodd" d="M20.7103 34.3542L20.679 24.7833H16.5771V20.6815H20.679V17.9469C20.679 14.2564 22.9644 12.4778 26.2566 12.4778C27.8336 12.4778 29.189 12.5953 29.5839 12.6477V16.5046L27.3006 16.5056C25.5101 16.5056 25.1634 17.3564 25.1634 18.6049V20.6815H30.2499L28.8826 24.7833H25.1634V34.3542H20.7103Z" fill="#2B2F4A"/>
</svg>
