<svg width="40" height="40" viewBox="0 0 40 40" fill="none" xmlns="http://www.w3.org/2000/svg">
<path fill-rule="evenodd" clip-rule="evenodd" d="M19.5968 39.1935C30.4198 39.1935 39.1935 30.4198 39.1935 19.5968C39.1935 8.77377 30.4198 0 19.5968 0C8.77377 0 0 8.77377 0 19.5968C0 30.4198 8.77377 39.1935 19.5968 39.1935Z" fill="#C7D7FF"/>
<path fill-rule="evenodd" clip-rule="evenodd" d="M17.2704 28.6481L17.2443 20.6669H13.8237V17.2464H17.2443V14.966C17.2443 11.8885 19.1501 10.4053 21.8955 10.4053C23.2105 10.4053 24.3408 10.5032 24.6702 10.547V13.7632L22.7661 13.7641C21.273 13.7641 20.9839 14.4736 20.9839 15.5147V17.2464H25.2255L24.0853 20.6669H20.9839V28.6481H17.2704Z" fill="#2A66F9"/>
</svg>
