<svg width="97" height="36" viewBox="0 0 97 36" fill="none" xmlns="http://www.w3.org/2000/svg">
<g clip-path="url(#clip0)">
<path d="M9.60832 22.8589C9.05922 22.4919 8.31541 22.1717 7.26479 22.1717C6.13045 22.1717 5.21774 22.4063 5.21774 23.61C5.21774 25.7341 9.3535 24.9414 9.3535 29.4905C9.3535 33.6349 6.62349 34.7096 4.15458 34.7096C3.05601 34.7096 1.79223 34.3471 0.860718 33.9349L1.53114 30.8888C2.09278 31.3988 3.22712 31.7469 4.15458 31.7469C5.03815 31.7469 6.42288 31.5068 6.42288 29.9685C6.42288 27.561 2.28933 28.4567 2.28933 24.2307C2.28933 20.3653 4.70404 19.2076 7.03283 19.2076C8.34455 19.2076 9.57661 19.3991 10.2994 19.8782L9.60832 22.8589ZM17.9134 34.1975C16.959 34.5265 16.0294 34.6846 15.0392 34.6846C11.9061 34.6846 10.2706 32.8422 10.2706 29.3284C10.2706 25.2245 12.3512 22.1967 15.1749 22.1967C17.4875 22.1967 18.9622 23.8891 18.9622 26.5466C18.9622 27.4253 18.8619 28.2857 18.6218 29.4979H13.0301C13.0132 29.677 13.0073 29.7659 13.0073 29.87C13.0073 31.2638 13.8448 31.9679 15.4721 31.9679C16.4748 31.9679 17.3813 31.7344 18.3858 31.2098L17.9134 34.1975ZM16.3447 27.0819C16.3572 26.829 16.3657 26.6282 16.3657 26.4738C16.3657 25.4995 15.8726 24.9285 15.0392 24.9285C14.1431 24.9285 13.5062 25.6966 13.2492 27.0694L16.3447 27.0819ZM26.1285 34.193C25.5499 34.4706 24.777 34.6541 23.6367 34.6541C21.1844 34.6541 19.664 32.2106 19.664 29.2354C19.664 25.341 21.8633 22.2353 25.1007 22.2353C25.8069 22.2353 26.8845 22.5394 27.7349 23.0309L27.1146 25.887C26.5131 25.4925 25.8862 25.2425 25.2409 25.2425C23.7411 25.2425 22.6694 26.6132 22.6694 29.0688C22.6694 30.4825 23.4464 31.6429 24.6748 31.6429C25.4057 31.6429 25.9198 31.4888 26.5485 31.1223L26.1285 34.193ZM36.6222 31.1984C36.4781 32.2271 36.3446 33.2268 36.2653 34.3H33.5644L33.7919 32.3672H33.765C32.919 33.6805 32.044 34.5747 30.515 34.5747C28.8187 34.5747 27.8997 32.7966 27.8997 30.4737C27.8997 29.6725 27.9499 29.2199 28.1295 27.9691L28.8939 22.4335H31.8998L31.0933 27.9857C31.0118 28.5828 30.8971 29.174 30.8971 29.7906C30.8971 30.4902 31.2168 31.1984 32.027 31.1554C33.2594 31.1554 33.9863 29.6531 34.1931 27.9L35.0225 22.4339H37.9321L36.6222 31.1984ZM44.2215 22.3173C44.1273 22.2934 44.0303 22.282 43.9331 22.2835C43.0226 22.2835 42.4879 22.8085 41.6335 24.2288L41.882 22.414H39.3419L37.6271 34.3747H40.4324C41.441 27.058 41.7083 25.7988 43.0536 25.7988C43.1329 25.7988 43.141 25.7988 43.2583 25.8127C43.5112 24.3656 43.8512 23.3052 44.3236 22.3379L44.2215 22.3173ZM51.2864 34.1975C50.3291 34.5265 49.3979 34.6846 48.4111 34.6846C45.2714 34.6846 43.6385 32.8422 43.6385 29.3284C43.6385 25.2245 45.7209 22.1967 48.5427 22.1967C50.8553 22.1967 52.3348 23.8891 52.3348 26.5466C52.3348 27.4253 52.2304 28.2857 51.9812 29.4979H46.4013C46.3847 29.677 46.3747 29.7659 46.3747 29.87C46.3747 31.2638 47.2104 31.9679 48.8381 31.9679C49.8408 31.9679 50.7491 31.7344 51.7536 31.2098L51.2864 34.1975ZM49.7092 27.0819C49.728 26.829 49.7387 26.6282 49.7387 26.4738C49.7387 25.4995 49.2416 24.9285 48.4111 24.9285C47.515 24.9285 46.8785 25.6966 46.6192 27.0694L49.7092 27.0819ZM62.7998 20.1278L62.3403 23.3141C61.3413 22.7519 60.6144 22.5184 59.8293 22.5184C57.7299 22.5184 56.2633 24.7954 56.2633 28.0316C56.2633 30.2652 57.245 31.6175 58.8809 31.6175C59.5789 31.6175 60.3408 31.38 61.2687 30.8594L60.7819 34.2136C59.7441 34.5328 59.0649 34.6427 58.2941 34.6427C55.2699 34.6427 53.3854 32.2047 53.3854 28.2938C53.3854 23.0306 55.9864 19.3568 59.7106 19.3568C60.1926 19.3568 60.6189 19.4179 60.9718 19.5149L62.1205 19.8399C62.4756 19.9808 62.549 20.0058 62.7998 20.1278ZM68.5043 27.5526C68.5043 30.2638 67.6624 31.8605 66.3355 31.8605C65.3668 31.8896 64.7797 30.8138 64.7797 29.203C64.7797 27.2996 65.6382 25.1421 67.0148 25.1421C68.1219 25.1425 68.5043 26.3113 68.5043 27.5526ZM71.4593 27.6026C71.4593 24.5888 69.9661 22.2434 67.1587 22.2434C63.9275 22.2434 61.8343 25.0954 61.8343 29.2953C61.8343 32.301 63.0712 34.7596 66.1305 34.7596C69.2179 34.7596 71.4593 32.5797 71.4593 27.6026ZM80.8673 34.2471H78.2166L78.3519 33.0794C77.5812 34 76.7795 34.4078 75.754 34.4078C73.7084 34.4078 72.3594 32.4308 72.3594 29.4405C72.3594 25.4697 74.4548 22.1015 76.9314 22.1015C78.0241 22.1015 78.8531 22.6162 79.6201 23.7494L80.2382 19.544H82.9996L80.8673 34.2471ZM76.7187 31.4344C78.0411 31.4344 78.9523 29.774 78.9523 27.404C78.9523 25.8797 78.4316 25.062 77.4673 25.062C76.1909 25.062 75.2841 26.7238 75.2841 29.0854C75.2838 30.6432 75.7709 31.4344 76.7187 31.4344ZM90.4402 34.1975C89.4707 34.5265 88.5518 34.6846 87.5579 34.6846C84.4249 34.6846 82.7849 32.8422 82.7849 29.3284C82.7849 25.2245 84.8714 22.1967 87.6936 22.1967C90.0062 22.1967 91.4787 23.8891 91.4787 26.5466C91.4787 27.4253 91.3828 28.2857 91.1343 29.4979H85.5489C85.534 29.6214 85.5264 29.7456 85.526 29.87C85.526 31.2638 86.3635 31.9679 87.9909 31.9679C88.9958 31.9679 89.9004 31.7344 90.9064 31.2098L90.4402 34.1975ZM88.863 27.0819C88.8759 26.829 88.884 26.6282 88.884 26.4738C88.884 25.4995 88.3936 24.9285 87.5579 24.9285C86.6618 24.9285 86.0268 25.6966 85.7675 27.0694L88.863 27.0819ZM93.2399 34.1548H92.7864V32.172H92.1288V31.7458H93.8978V32.172H93.2403V34.1548H93.2399ZM96.2528 34.1548H95.8295V32.1418H95.8228L95.4172 34.1548H94.9721L94.5753 32.1418H94.5694V34.1548H94.146V31.7458H94.8087L95.2018 33.6452H95.2084L95.596 31.7458H96.2528V34.1548Z" fill="white"/>
<path d="M13.4944 16.2651H10.493L12.2118 4.96407L8.37072 16.2651H6.31335L6.0648 5.03061L4.25377 16.2651H1.44226L3.78801 1.55834H8.11369L8.2328 10.6589L11.1531 1.55834H15.8214L13.4944 16.2651ZM21.229 10.938C20.9115 10.9005 20.7717 10.8865 20.5564 10.8865C18.8541 10.8865 17.9912 11.5046 17.9912 12.7123C17.9912 13.4565 18.4153 13.9312 19.0713 13.9312C20.2934 13.9312 21.1789 12.7123 21.229 10.938ZM23.414 16.2651H20.9263L20.9805 15.0239C20.2223 16.0137 19.2093 16.4732 17.8326 16.4732C16.1994 16.4732 15.0838 15.1404 15.0838 13.215C15.0838 10.2953 17.0328 8.59996 20.3642 8.59996C20.7046 8.59996 21.1394 8.62606 21.586 8.68857C21.68 8.29295 21.7051 8.12235 21.7051 7.91278C21.7051 7.12303 21.1829 6.82301 19.775 6.82301C18.9249 6.82301 17.9495 6.95206 17.2769 7.16457L16.8591 7.28517L16.5958 7.36275L17.0095 4.68059C18.5093 4.21549 19.4973 4.03643 20.6106 4.03643C23.1923 4.03643 24.5605 5.25122 24.5605 7.54327C24.5605 8.1389 24.5166 8.58047 24.3119 9.91622L23.6832 14.1536L23.581 14.9184L23.504 15.528L23.4516 15.9445L23.414 16.2651ZM25.5569 8.08779C25.5569 9.59671 26.2546 10.6409 27.8337 11.4211C29.0429 12.0208 29.2354 12.1958 29.2354 12.7399C29.2354 13.4826 28.6985 13.8271 27.5162 13.8271C26.6245 13.8271 25.7911 13.6786 24.8301 13.3481L24.4145 16.1067L24.5502 16.1357L25.1018 16.2523C25.2792 16.2898 25.5403 16.3229 25.8851 16.3607C26.6016 16.4277 27.1507 16.4593 27.5394 16.4593C30.6913 16.4593 32.1494 15.1904 32.1494 12.4664C32.1494 10.8295 31.5417 9.86217 30.0397 9.13712C28.7866 8.5415 28.6443 8.40142 28.6443 7.84587C28.6443 7.19766 29.1417 6.86455 30.1064 6.86455C30.6957 6.86455 31.4934 6.93404 32.256 7.04214L32.6845 4.28057C31.9009 4.1471 30.7378 4.04452 30.0485 4.04452C26.7038 4.04489 25.5444 5.8803 25.5569 8.08779ZM37.4003 16.1195C36.5835 16.3902 35.9382 16.5137 35.2449 16.5137C33.7115 16.5137 32.8741 15.582 32.8741 13.883C32.8741 13.5499 32.8991 13.19 32.9596 12.8109L33.1455 11.6446L33.2834 10.6924L34.587 2.53156H37.574L37.2314 4.30594H38.7688L38.347 7.21311H36.8136L36.02 12.2042C35.9931 12.4248 35.9699 12.5873 35.9699 12.6998C35.9699 13.3124 36.2833 13.5856 36.9932 13.5856C37.3399 13.5856 37.6009 13.5495 37.8016 13.4745L37.4003 16.1195ZM46.9168 16.014C45.8891 16.3361 44.8952 16.4982 43.8295 16.4946C40.4792 16.4946 38.7287 14.6562 38.7287 11.1409C38.7287 7.03148 40.9553 4.00629 43.9818 4.00629C46.4507 4.00629 48.0361 5.70125 48.0361 8.35877C48.0361 9.23897 47.9295 10.0971 47.6621 11.309H41.6884C41.6633 11.4906 41.6589 11.574 41.6589 11.6796C41.6589 13.0778 42.5528 13.7815 44.3011 13.7815C45.3728 13.7815 46.3375 13.5499 47.4176 13.0208L46.9168 16.014ZM45.2312 8.89299C45.2481 8.64298 45.2522 8.43892 45.2522 8.28781C45.2522 7.31054 44.7238 6.73991 43.8299 6.73991C42.8773 6.73991 42.194 7.50209 41.9145 8.8849L45.2312 8.89299ZM55.3879 4.2074C55.2865 4.18762 55.1836 4.1774 55.0803 4.17688C54.0905 4.17688 53.5304 4.69898 52.6114 6.12333L52.8795 4.30594H50.1576L48.3123 16.2651H51.3318C52.4115 8.9555 52.6874 7.69365 54.1352 7.69365C54.2222 7.69365 54.231 7.69365 54.3542 7.70615C54.6216 6.26488 54.9874 5.20563 55.4907 4.23939L55.3879 4.2074ZM65.3591 2.0205L64.8686 5.21077C63.801 4.64419 63.0155 4.42212 62.1784 4.42212C59.9414 4.42212 58.3598 6.68918 58.3598 9.92541C58.3598 12.1608 59.4215 13.5076 61.1672 13.5076C61.9085 13.5076 62.7231 13.2701 63.7199 12.7495L63.1955 16.1063C62.0928 16.4229 61.3741 16.5354 60.5407 16.5354C57.301 16.5354 55.285 14.0988 55.285 10.1879C55.285 4.9273 58.0696 1.25391 62.0534 1.25391C62.5671 1.25391 63.0266 1.30391 63.4001 1.41237L64.6388 1.73592C65.0061 1.88189 65.0895 1.90431 65.3591 2.0205ZM70.5355 10.938C70.222 10.9005 70.0775 10.8865 69.8673 10.8865C68.158 10.8865 67.2936 11.5046 67.2936 12.7123C67.2936 13.4565 67.7214 13.9312 68.3774 13.9312C69.6054 13.9312 70.4805 12.7123 70.5355 10.938ZM72.7219 16.2651H70.2298L70.288 15.0239C69.5302 16.0137 68.5146 16.4732 67.1406 16.4732C65.5069 16.4732 64.3877 15.1404 64.3877 13.215C64.3877 10.2953 66.3344 8.59996 69.6722 8.59996C70.0107 8.59996 70.4492 8.62606 70.8936 8.68857C70.9858 8.29295 71.013 8.12235 71.013 7.91278C71.013 7.12303 70.4909 6.82301 69.0829 6.82301C68.2288 6.82301 67.2556 6.95206 66.5885 7.16457L66.1608 7.28517L65.9015 7.36275L66.3193 4.68059C67.821 4.21549 68.8071 4.03643 69.9119 4.03643C72.4985 4.03643 73.8662 5.25122 73.8662 7.54327C73.8662 8.1389 73.8142 8.58047 73.6199 9.91622L72.9867 14.1536L72.893 14.9184L72.8093 15.528L72.7547 15.9445L72.7219 16.2651ZM81.1144 4.2074C81.0149 4.18709 80.9136 4.17687 80.812 4.17688C79.8259 4.17688 79.2621 4.69898 78.3387 6.12333L78.606 4.30594H75.8886L74.0506 16.2651H77.0605C78.141 8.9555 78.4246 7.69365 79.8617 7.69365C79.9561 7.69365 79.9495 7.68556 80.0726 7.70615C80.344 6.26488 80.7113 5.20563 81.2173 4.23939L81.1144 4.2074ZM89.29 16.2651H86.4472L86.5954 15.0934C85.7679 16.0195 84.9179 16.4236 83.8197 16.4236C81.6222 16.4236 80.1833 14.4492 80.1833 11.459C80.1833 7.48114 82.4202 4.12284 85.0772 4.12284C86.2447 4.12284 87.1279 4.62691 87.9595 5.75971L88.6126 1.5587H91.575L89.29 16.2651ZM84.8556 13.4495C86.2595 13.4495 87.2412 11.7877 87.2412 9.4206C87.2412 7.90028 86.6814 7.07302 85.6429 7.07302C84.2818 7.07302 83.3145 8.74188 83.3145 11.095C83.3141 12.6609 83.8341 13.4495 84.8556 13.4495ZM91.034 14.5312C91.034 13.4911 91.8427 12.6498 92.8302 12.6498C93.8226 12.6498 94.6228 13.4911 94.6228 14.5312C94.6228 15.5725 93.8226 16.4141 92.8302 16.4141C91.8427 16.4137 91.034 15.5725 91.034 14.5312ZM92.8302 15.9681C93.5844 15.9681 94.201 15.3224 94.201 14.5312C94.201 13.744 93.5844 13.1039 92.8302 13.1039C92.0783 13.1039 91.4603 13.744 91.4603 14.5312C91.4603 15.3224 92.0783 15.9681 92.8302 15.9681ZM92.5861 15.3559H92.2188V13.6984H92.8852C93.0205 13.6984 93.1732 13.7065 93.2901 13.79C93.4177 13.883 93.4911 14.04 93.4911 14.2066C93.4911 14.39 93.3867 14.5621 93.2197 14.6246L93.5077 15.3563H93.0987L92.8561 14.7066H92.5869V15.3559H92.5861ZM92.5861 14.4242H92.7908C92.8664 14.4242 92.9542 14.4268 93.0168 14.3893C93.0795 14.3492 93.1061 14.2683 93.1061 14.1977C93.1061 14.1352 93.0707 14.0602 93.0168 14.0312C92.9623 13.9937 92.8513 14.0018 92.7871 14.0018H92.5861V14.4242Z" fill="white"/>
</g>
<defs>
<clipPath id="clip0">
<rect width="96.4335" height="34.9287" fill="white" transform="translate(0.309082 0.518219)"/>
</clipPath>
</defs>
</svg>
