<svg width="102" height="37" viewBox="0 0 102 37" fill="none" xmlns="http://www.w3.org/2000/svg">
<g clip-path="url(#clip0)">
<path d="M68.0998 20.7004L69.0462 20.987C68.9826 21.2525 68.8825 21.4746 68.7461 21.6523C68.6096 21.8307 68.4394 21.9646 68.237 22.0555C68.0347 22.1464 67.7767 22.1913 67.4636 22.1913C67.0837 22.1913 66.7733 22.1361 66.5326 22.0256C66.2919 21.9151 66.0841 21.7209 65.9093 21.4424C65.7346 21.1643 65.6472 20.8082 65.6472 20.3743C65.6472 19.7958 65.8005 19.3511 66.1083 19.0403C66.4157 18.7296 66.8507 18.5742 67.413 18.5742C67.853 18.5742 68.1991 18.6632 68.4509 18.8412C68.7027 19.0192 68.8902 19.2928 69.0124 19.6619L68.0592 19.874C68.0259 19.7678 67.9906 19.6899 67.9546 19.6404C67.8966 19.5601 67.8206 19.4947 67.7326 19.4493C67.6416 19.4039 67.5411 19.381 67.4394 19.3826C67.1945 19.3826 67.0071 19.4812 66.8768 19.678C66.7783 19.8241 66.7292 20.0536 66.7292 20.3666C66.7292 20.7545 66.7878 21.02 66.9055 21.1639C67.0232 21.3074 67.188 21.3795 67.4011 21.3795C67.6077 21.3795 67.7637 21.3216 67.8699 21.2053C67.9757 21.0906 68.0523 20.9214 68.0998 20.7004ZM69.4348 20.3858C69.4348 19.8146 69.5939 19.3703 69.9116 19.0519C70.2294 18.7334 70.6717 18.5746 71.2393 18.5746C71.8208 18.5746 72.2689 18.7307 72.5836 19.0434C72.8979 19.3557 73.0554 19.7938 73.0554 20.3567C73.0554 20.7656 72.9864 21.1006 72.8492 21.3622C72.7153 21.6205 72.5079 21.8332 72.2532 21.9734C71.9933 22.1188 71.6698 22.1913 71.2819 22.1913C70.8879 22.1913 70.5617 22.1288 70.3034 22.0029C70.045 21.8775 69.8357 21.6784 69.6751 21.4063C69.5149 21.1347 69.4348 20.7944 69.4348 20.3858ZM70.5146 20.3904C70.5146 20.7434 70.5801 20.997 70.7112 21.1512C70.8423 21.3054 71.0209 21.3829 71.2463 21.3829C71.4778 21.3829 71.6575 21.3074 71.7848 21.1562C71.9116 21.0047 71.9753 20.7338 71.9753 20.3425C71.9753 20.0133 71.909 19.7727 71.776 19.6208C71.6433 19.4689 71.4636 19.3929 71.2363 19.3929C71.019 19.3929 70.8442 19.47 70.7119 19.6243C70.5805 19.7789 70.5146 20.034 70.5146 20.3904ZM73.6246 18.6344H75.0446L75.5924 20.7626L76.1359 18.6344H77.5552V22.1322H76.6706V19.4647L75.9895 22.1322H75.1891L74.5092 19.4647V22.1322H73.6246V18.6344ZM78.239 18.6344H80.0339C80.4253 18.6344 80.7177 18.7277 80.9124 18.9137C81.1071 19.0998 81.2045 19.3645 81.2045 19.7083C81.2045 20.0612 81.0983 20.3375 80.8864 20.5362C80.674 20.7353 80.3505 20.8343 79.9151 20.8343H79.3241V22.1322H78.2394L78.239 18.6344ZM79.3237 20.1253H79.5882C79.7963 20.1253 79.9423 20.0893 80.0266 20.0167C80.0674 19.983 80.1 19.9404 80.1219 19.8923C80.1438 19.8441 80.1545 19.7915 80.1531 19.7386C80.1531 19.6289 80.1163 19.536 80.0435 19.4593C79.9703 19.3829 79.8327 19.345 79.6311 19.345H79.3237V20.1253ZM81.7691 18.6344H82.8488V21.2709H84.5337V22.1322H81.7687L81.7691 18.6344ZM85.068 18.6344H86.1501V22.1322H85.068V18.6344ZM89.0726 21.5548H87.8469L87.6767 22.1322H86.5744L87.8879 18.6344H89.0654L90.3785 22.1322H89.2478L89.0726 21.5548ZM88.8488 20.7983L88.4628 19.541L88.0815 20.7983H88.8488ZM90.7284 18.6344H91.7369L93.0527 20.5696V18.6344H94.0703V22.1322H93.0527L91.7442 20.2116V22.1322H90.7288V18.6344H90.7284ZM94.5418 18.6344H97.8239V19.498H96.7227V22.1322H95.643V19.498H94.5418V18.6344ZM55.0991 23.973L58.2263 22.9862L57.2137 20.7284C56.4609 21.6588 55.7192 22.8616 55.0991 23.973ZM54.0339 13.6373L47.9013 -0.0384827L3.00623 2.51321L15.444 36.4833L39.3873 28.9298C37.8694 26.7388 37.3064 24.1341 39.0664 22.8612C41.0366 21.4363 44.0009 23.0841 45.9051 25.4274C47.7326 22.3532 52.8603 15.2544 54.0339 13.6373Z" fill="white" fill-opacity="0.42"/>
<path d="M46.5049 9.84459C48.3841 9.84459 49.9077 8.40627 49.9077 6.63224C49.9077 4.85822 48.3841 3.41989 46.5049 3.41989C44.6256 3.41989 43.102 4.85822 43.102 6.63224C43.102 8.40627 44.6256 9.84459 46.5049 9.84459ZM43.7206 11.238H49.2887V25.7909H43.7206V11.238ZM40.9717 15.4851C41.0116 15.5085 41.0437 15.4893 41.0437 15.4433V11.7567C41.0426 11.7314 41.0354 11.7068 41.0225 11.685C41.0097 11.6632 40.9917 11.6449 40.9702 11.6317C40.9702 11.6317 40.24 11.1552 38.0112 11.0224C37.892 10.9564 35.9525 10.9468 35.4144 11.0224C27.317 11.6723 27.0165 17.5365 27.0165 17.8043V19.2288C27.0165 19.4038 27.0165 25.3992 35.414 25.9305C36.2342 25.993 37.8418 25.9305 38.0108 25.9305C39.9449 25.9305 41.2852 25.3474 41.2852 25.3474C41.3073 25.3369 41.3262 25.3207 41.3398 25.3003C41.3533 25.28 41.3611 25.2563 41.3623 25.2319V21.7801C41.3623 21.7337 41.3316 21.7172 41.2914 21.7418C41.2914 21.7418 40.6904 22.2255 38.0468 22.4834C37.2975 22.5678 36.9418 22.5283 36.672 22.4834C32.9242 21.8526 32.7459 19.1037 32.7459 19.1037C32.7404 19.0485 32.7373 18.9931 32.7367 18.9376V17.8849C32.7367 17.8384 32.7409 17.7636 32.7475 17.718C32.7475 17.718 33.0008 14.7734 36.6723 14.4627H38.0472C39.6693 14.6825 40.9717 15.4851 40.9717 15.4851ZM11.5723 25.7329C11.5723 25.7794 11.6095 25.817 11.6558 25.817H17.0801C17.1022 25.8168 17.1234 25.8079 17.139 25.7922C17.1546 25.7766 17.1635 25.7554 17.1637 25.7333V21.5097C17.1637 21.4632 17.2009 21.4283 17.2472 21.4306C17.2472 21.4306 25.9054 22.0575 25.9054 16.2401C25.9054 11.6497 20.4734 11.146 18.685 11.23C18.6489 11.2315 11.6574 11.23 11.6574 11.23C11.6351 11.23 11.6138 11.2388 11.598 11.2544C11.5822 11.2701 11.5732 11.2914 11.573 11.3136L11.5723 25.7329ZM17.0663 18.2052V14.4001H18.3937C18.3937 14.4001 20.3239 14.4872 20.4742 15.8016C20.5094 15.9044 20.5006 16.5478 20.4738 16.5831C20.225 18.13 18.5481 18.2056 18.5481 18.2056L17.0663 18.2052Z" fill="#FEFEFE"/>
<path d="M46.6592 32.816C47.1119 32.816 47.4584 32.816 48.0303 32.5621C50.0073 31.5216 56.6616 15.2546 63.6803 10.2509C63.7233 10.2187 63.7804 10.1723 63.8137 10.1247C63.8597 10.0587 63.8616 9.99158 63.8616 9.99158C63.8616 9.99158 63.8616 9.65588 62.821 9.65588C56.5726 9.48554 50.0747 22.5966 46.6592 27.784C46.6167 27.8412 46.3817 27.784 46.3817 27.784C46.3817 27.784 44.0927 25.0812 42.1042 24.0441C42.0628 24.0226 41.8367 23.9536 41.6017 23.9709C41.4446 23.9709 40.5197 24.1573 40.0885 24.6123C39.5791 25.1502 39.5899 25.4521 39.5941 26.107C39.5945 26.1604 39.6286 26.376 39.6918 26.4865C40.1778 27.3374 42.3986 30.3936 44.2185 32.0798C44.4998 32.2801 44.9283 32.816 46.6592 32.816Z" fill="white"/>
<path d="M65.5256 5.32137H70.7249C71.7499 5.32137 72.5778 5.46063 73.2083 5.73878C73.8392 6.01732 74.3608 6.4167 74.7729 6.93771C75.1849 7.45871 75.4835 8.06412 75.669 8.75509C75.8545 9.44605 75.9472 10.1777 75.9472 10.9511C75.9472 12.1627 75.8096 13.1023 75.5341 13.7699C75.2585 14.4374 74.876 14.9968 74.3869 15.448C73.8978 15.8991 73.3723 16.1992 72.8108 16.3488C72.0435 16.5552 71.3482 16.658 70.7253 16.658H65.526V5.32137H65.5256ZM69.0254 7.88879V14.0833H69.8829C70.6142 14.0833 71.1347 14.002 71.4432 13.8397C71.7525 13.6774 71.9944 13.3939 72.1696 12.9891C72.3447 12.5844 72.4325 11.9283 72.4325 11.021C72.4325 9.81973 72.2366 8.99756 71.8453 8.55405C71.454 8.11093 70.8051 7.88917 69.8986 7.88917H69.0254V7.88879ZM76.907 12.9078L80.237 12.6991C80.3091 13.2404 80.4559 13.6528 80.6774 13.9364C81.0377 14.3952 81.5529 14.6246 82.2225 14.6246C82.7219 14.6246 83.1071 14.5076 83.3777 14.2728C83.6479 14.0384 83.7832 13.7664 83.7832 13.4572C83.7832 13.1633 83.6544 12.9005 83.3969 12.6684C83.1393 12.4366 82.5421 12.2176 81.6046 12.0112C80.0695 11.6659 78.9752 11.2066 78.3214 10.6346C77.6617 10.0622 77.3325 9.33287 77.3325 8.44586C77.3325 7.86347 77.5007 7.31292 77.8384 6.79499C78.1757 6.27667 78.6828 5.86961 79.3604 5.57304C80.0377 5.27686 80.9657 5.12839 82.1454 5.12839C83.5927 5.12839 84.6962 5.3981 85.4563 5.93637C86.2156 6.47502 86.6678 7.33211 86.812 8.50763L83.5134 8.70099C83.4256 8.19034 83.2416 7.81935 82.9611 7.58724C82.6805 7.35551 82.293 7.23926 81.7985 7.23926C81.3911 7.23926 81.0852 7.32558 80.879 7.49823C80.6732 7.67087 80.5701 7.88112 80.5701 8.12858C80.5701 8.30928 80.6552 8.47156 80.825 8.61582C80.9898 8.76544 81.3811 8.90433 81.999 9.03324C83.5287 9.36318 84.6245 9.69696 85.2865 10.0346C85.9484 10.3722 86.4294 10.7911 86.7311 11.2911C87.0327 11.791 87.1834 12.3503 87.1834 12.9692C87.1869 13.6845 86.9771 14.3846 86.5809 14.9799C86.1792 15.5938 85.6176 16.0587 84.8963 16.3756C84.1753 16.6929 83.2662 16.8514 82.1692 16.8514C80.2432 16.8514 78.9089 16.4804 78.1677 15.738C77.4245 14.9956 77.0048 14.0522 76.907 12.9078ZM88.0634 12.9078L91.3934 12.6991C91.4655 13.2404 91.6123 13.6528 91.8338 13.9364C92.1941 14.3952 92.7092 14.6246 93.3788 14.6246C93.8783 14.6246 94.2635 14.5076 94.5341 14.2728C94.8043 14.0384 94.9396 13.7664 94.9396 13.4572C94.9396 13.1633 94.8108 12.9005 94.5533 12.6684C94.2957 12.4366 93.6985 12.2176 92.761 12.0112C91.2259 11.6659 90.1316 11.2066 89.4777 10.6346C88.8181 10.0622 88.4888 9.33287 88.4888 8.44586C88.4888 7.86347 88.6571 7.31292 88.9948 6.79499C89.3321 6.27667 89.8392 5.86961 90.5168 5.57304C91.1941 5.27686 92.122 5.12839 93.3018 5.12839C94.7491 5.12839 95.8526 5.3981 96.6127 5.93637C97.372 6.47502 97.8242 7.33211 97.9683 8.50763L94.6698 8.70099C94.582 8.19034 94.398 7.81935 94.1174 7.58724C93.8369 7.35551 93.4494 7.23926 92.9549 7.23926C92.5475 7.23926 92.2416 7.32558 92.0354 7.49823C91.8296 7.67087 91.7265 7.88112 91.7265 8.12858C91.7265 8.30928 91.8116 8.47156 91.9814 8.61582C92.1462 8.76544 92.5375 8.90433 93.1554 9.03324C94.6851 9.36318 95.7809 9.69696 96.4429 10.0346C97.1048 10.3722 97.5858 10.7911 97.8875 11.2911C98.1891 11.791 98.3398 12.3503 98.3398 12.9692C98.3433 13.6845 98.1335 14.3846 97.7372 14.9799C97.3356 15.5938 96.774 16.0587 96.0527 16.3756C95.3317 16.6929 94.4226 16.8514 93.3256 16.8514C91.3996 16.8514 90.0653 16.4804 89.324 15.738C88.5812 14.9956 88.1615 14.0522 88.0634 12.9078Z" fill="white"/>
</g>
<defs>
<clipPath id="clip0">
<rect width="100.23" height="36.4473" fill="white" transform="translate(0.992188)"/>
</clipPath>
</defs>
</svg>
