<svg width="204" height="64" viewBox="0 0 204 64" fill="none" xmlns="http://www.w3.org/2000/svg">
<path opacity="0.6" d="M34.2647 63.0458C49.4038 63.0458 61.6764 50.5005 61.6764 35.025C61.6764 19.5496 49.4038 7.00427 34.2647 7.00427C19.1257 7.00427 6.85312 19.5496 6.85312 35.025C6.85312 50.5005 19.1257 63.0458 34.2647 63.0458Z" fill="url(#paint0_linear)"/>
<path opacity="0.6" d="M28.393 62.0464C43.5321 62.0464 55.8046 49.5011 55.8046 34.0256C55.8046 18.5502 43.5321 6.00488 28.393 6.00488C13.254 6.00488 0.981415 18.5502 0.981415 34.0256C0.981415 49.5011 13.254 62.0464 28.393 62.0464Z" fill="url(#paint1_linear)"/>
<path opacity="0.6" d="M27.4116 56.0415C42.5506 56.0415 54.8232 43.4962 54.8232 28.0208C54.8232 12.5453 42.5506 0 27.4116 0C12.2726 0 0 12.5453 0 28.0208C0 43.4962 12.2726 56.0415 27.4116 56.0415Z" fill="url(#paint2_linear)"/>
<path opacity="0.6" d="M33.2833 57.0409C48.4223 57.0409 60.6949 44.4955 60.6949 29.0201C60.6949 13.5447 48.4223 0.999329 33.2833 0.999329C18.1443 0.999329 5.8717 13.5447 5.8717 29.0201C5.8717 44.4955 18.1443 57.0409 33.2833 57.0409Z" fill="url(#paint3_linear)"/>
<path d="M30.8407 55.0383C43.5467 55.0383 53.8469 44.5092 53.8469 31.5208C53.8469 18.5325 43.5467 8.00342 30.8407 8.00342C18.1348 8.00342 7.83453 18.5325 7.83453 31.5208C7.83453 44.5092 18.1348 55.0383 30.8407 55.0383Z" fill="white"/>
<path opacity="0.7" d="M24.9801 40.8887C26.5497 42.7898 29.3298 43.0303 31.1896 41.4257C31.4566 41.1954 31.6958 40.9334 31.9023 40.6453L44.4657 23.1129C44.8385 22.5927 44.7281 21.8622 44.2193 21.4811C43.8284 21.1885 43.2994 21.1797 42.8995 21.4593L25.9907 33.2811C23.6834 34.8942 23.0922 38.1139 24.6703 40.4725C24.7666 40.6165 24.87 40.7554 24.9801 40.8887Z" fill="url(#paint4_linear)"/>
<path d="M17.6662 32.8984L26.8072 43.1329C27.6579 44.0852 29.1027 44.1524 30.0344 43.2829C30.141 43.1834 30.2381 43.0738 30.3245 42.9555L35.9742 35.2215C36.3516 34.7049 36.2478 33.9733 35.7424 33.5875C35.5799 33.4634 35.3879 33.3858 35.1863 33.3627L18.3943 31.4378C17.9241 31.3839 17.5002 31.7299 17.4475 32.2105C17.42 32.4613 17.4997 32.7121 17.6662 32.8984Z" fill="url(#paint5_linear)"/>
<path fill-rule="evenodd" clip-rule="evenodd" d="M134.917 14.0452H133.166V32.371H134.917V27.5222C134.917 25.7722 135 24.5732 135.167 23.9251C135.434 22.9205 135.986 22.0779 136.825 21.3974C137.663 20.7169 138.611 20.3766 139.67 20.3766C140.596 20.3766 141.344 20.5974 141.915 21.0389C142.487 21.4804 142.881 22.1387 143.097 23.0137C143.222 23.5241 143.285 24.5408 143.285 26.0639V32.371H145.036V25.5657C145.036 23.759 144.848 22.4324 144.473 21.5858C144.098 20.7391 143.516 20.0647 142.728 19.5624C141.94 19.0601 141.038 18.8089 140.02 18.8089C139.028 18.8089 138.107 19.0338 137.256 19.4834C136.406 19.933 135.626 20.6115 134.917 21.5189V14.0452ZM73.0527 14.495V16.2328H77.1679V32.3711H79.0441V16.2328H83.1467V14.495H73.0527ZM95.8908 21.0196C94.5149 19.5451 92.7805 18.8079 90.6874 18.8079C88.5861 18.8079 86.8475 19.5492 85.4716 21.0318C84.2208 22.3767 83.5954 23.9645 83.5954 25.7955C83.5954 27.6427 84.2562 29.2569 85.5779 30.6382C86.8996 32.0195 88.6027 32.7102 90.6874 32.7102C92.7638 32.7102 94.4628 32.0195 95.7845 30.6382C97.1062 29.2569 97.767 27.6427 97.767 25.7955C97.767 23.9564 97.1416 22.3645 95.8908 21.0196ZM90.6916 20.4719C89.2406 20.4719 87.994 20.9944 86.9517 22.0395C85.9093 23.0846 85.3882 24.3484 85.3882 25.831C85.3882 26.787 85.6258 27.6782 86.1011 28.5046C86.5764 29.3309 87.2185 29.9689 88.0274 30.4186C88.8362 30.8682 89.7243 31.093 90.6916 31.093C91.6589 31.093 92.5469 30.8682 93.3558 30.4186C94.1647 29.9689 94.8067 29.3309 95.282 28.5046C95.7573 27.6782 95.995 26.787 95.995 25.831C95.995 24.3484 95.4717 23.0846 94.4252 22.0395C93.3787 20.9944 92.1342 20.4719 90.6916 20.4719ZM102.557 19.147H100.794V25.5148C100.794 27.3944 101.013 28.802 101.45 29.7378C101.888 30.6735 102.551 31.4026 103.439 31.9252C104.327 32.4477 105.434 32.709 106.76 32.709C108.086 32.709 109.189 32.4477 110.068 31.9252C110.948 31.4026 111.607 30.6796 112.045 29.756C112.483 28.8324 112.701 27.4592 112.701 25.6363V19.147H110.913V25.3204C110.913 26.9731 110.825 28.0547 110.65 28.5651C110.392 29.3104 109.923 29.9119 109.243 30.3697C108.563 30.8274 107.736 31.0563 106.76 31.0563C105.784 31.0563 104.944 30.8214 104.24 30.3515C103.535 29.8816 103.058 29.2415 102.808 28.4314C102.641 27.8643 102.557 26.8273 102.557 25.3204V19.147ZM129.8 21.8946L128.412 22.7331C127.211 21.1857 125.573 20.412 123.496 20.412C121.837 20.412 120.459 20.9305 119.362 21.9675C118.266 23.0045 117.718 24.2643 117.718 25.7469C117.718 26.711 117.97 27.6184 118.474 28.469C118.979 29.3197 119.671 29.98 120.551 30.4499C121.43 30.9198 122.416 31.1547 123.509 31.1547C125.51 31.1547 127.145 30.381 128.412 28.8336L129.8 29.7207C129.15 30.6686 128.277 31.4038 127.18 31.9264C126.083 32.4489 124.835 32.7102 123.434 32.7102C121.282 32.7102 119.498 32.0459 118.08 30.7172C116.663 29.3885 115.954 27.7723 115.954 25.8684C115.954 24.5884 116.285 23.3995 116.948 22.3017C117.611 21.2039 118.522 20.3472 119.681 19.7315C120.84 19.1158 122.137 18.8079 123.571 18.8079C124.472 18.8079 125.341 18.9416 126.179 19.2089C127.017 19.4763 127.728 19.8247 128.312 20.254C128.896 20.6834 129.392 21.2303 129.8 21.8946ZM161.998 21.8955L160.609 22.734C159.409 21.1866 157.77 20.4129 155.694 20.4129C154.034 20.4129 152.656 20.9314 151.56 21.9684C150.463 23.0054 149.915 24.2652 149.915 25.7478C149.915 26.7119 150.167 27.6193 150.672 28.4699C151.176 29.3206 151.868 29.9809 152.748 30.4508C153.628 30.9207 154.614 31.1556 155.706 31.1556C157.708 31.1556 159.342 30.3819 160.609 28.8345L161.998 29.7216C161.347 30.6695 160.474 31.4047 159.377 31.9273C158.281 32.4498 157.032 32.7111 155.631 32.7111C153.48 32.7111 151.695 32.0468 150.278 30.7181C148.86 29.3895 148.151 27.7732 148.151 25.8693C148.151 24.5893 148.483 23.4004 149.146 22.3026C149.809 21.2049 150.72 20.3481 151.879 19.7324C153.038 19.1167 154.334 18.8088 155.769 18.8088C156.669 18.8088 157.539 18.9425 158.377 19.2099C159.215 19.4772 159.926 19.8256 160.509 20.255C161.093 20.6843 161.589 21.2312 161.998 21.8955ZM178.92 32.3708V19.1491H177.194V21.5796C176.51 20.656 175.716 19.9633 174.811 19.5015C173.907 19.0397 172.895 18.8088 171.778 18.8088C169.843 18.8088 168.188 19.4853 166.812 20.8383C165.436 22.1912 164.749 23.8196 164.749 25.7235C164.749 27.6679 165.43 29.3186 166.794 30.6756C168.157 32.0326 169.802 32.7111 171.728 32.7111C172.812 32.7111 173.811 32.4924 174.724 32.0549C175.637 31.6174 176.46 30.9652 177.194 30.0984V32.3708H178.92ZM171.917 20.4499C170.941 20.4499 170.04 20.6828 169.215 21.1487C168.389 21.6145 167.733 22.2687 167.245 23.1113C166.757 23.9538 166.513 24.845 166.513 25.7848C166.513 26.7165 166.759 27.6076 167.251 28.4583C167.743 29.309 168.404 29.9713 169.234 30.4452C170.063 30.9192 170.953 31.1561 171.904 31.1561C172.863 31.1561 173.772 30.9212 174.631 30.4513C175.49 29.9814 176.151 29.3454 176.613 28.5434C177.076 27.7413 177.308 26.838 177.308 25.8334C177.308 24.3022 176.788 23.0222 175.75 21.9933C174.712 20.9644 173.434 20.4499 171.917 20.4499ZM183.989 19.1482H182.2V32.3699H183.989V27.8979C183.989 25.6051 184.097 24.082 184.314 23.3286C184.598 22.3483 185.01 21.6252 185.552 21.1594C186.095 20.6936 186.657 20.4606 187.241 20.4606C187.491 20.4606 187.8 20.5376 188.167 20.6915L189.08 19.2576C188.529 18.9578 188.012 18.8079 187.529 18.8079C186.887 18.8079 186.27 18.9963 185.678 19.373C185.086 19.7497 184.523 20.3189 183.989 21.0804V19.1482ZM204 14.0452V32.371H202.274V30.0985C201.54 30.9654 200.717 31.6175 199.804 32.055C198.89 32.4925 197.892 32.7112 196.808 32.7112C194.882 32.7112 193.237 32.0327 191.873 30.6757C190.51 29.3187 189.828 27.668 189.828 25.7236C189.828 23.8198 190.516 22.1914 191.892 20.8384C193.268 19.4854 194.923 18.8089 196.858 18.8089C197.975 18.8089 198.986 19.0398 199.891 19.5016C200.796 19.9634 201.59 20.6561 202.274 21.5797V14.0452H204ZM194.293 21.1487C195.119 20.6828 196.019 20.4499 196.995 20.4499C198.512 20.4499 199.79 20.9644 200.828 21.9933C201.867 23.0222 202.386 24.3022 202.386 25.8334C202.386 26.838 202.154 27.7413 201.692 28.5434C201.229 29.3454 200.568 29.9814 199.709 30.4513C198.85 30.9212 197.941 31.1561 196.982 31.1561C196.032 31.1561 195.142 30.9192 194.312 30.4452C193.482 29.9713 192.821 29.309 192.329 28.4583C191.837 27.6076 191.591 26.7165 191.591 25.7848C191.591 24.845 191.835 23.9538 192.323 23.1113C192.811 22.2687 193.467 21.6145 194.293 21.1487Z" fill="white"/>
<path fill-rule="evenodd" clip-rule="evenodd" d="M123.224 38.5828V39.5954H124.303V38.5828H123.224ZM108.277 47.2426C107.386 47.2426 106.636 46.9428 106.027 46.3432C105.418 45.7436 105.113 44.9713 105.113 44.0262C105.113 43.1288 105.403 42.3684 105.984 41.745C106.564 41.1216 107.288 40.8099 108.154 40.8099C109.061 40.8099 109.781 41.1196 110.312 41.7391C110.843 42.3585 111.109 43.1368 111.109 44.0739C111.109 44.193 111.105 44.3002 111.097 44.3955H106.07C106.135 45.0229 106.378 45.5212 106.799 45.8905C107.22 46.2598 107.721 46.4444 108.301 46.4444C109.061 46.4444 109.727 46.1546 110.3 45.5748L110.888 46.0871C110.177 46.8574 109.307 47.2426 108.277 47.2426ZM92.4964 46.7201C92.9623 47.0615 93.5181 47.2323 94.1639 47.2323C95.1202 47.2323 95.8804 46.8829 96.4444 46.184V47.1013H97.3763V43.337C97.3763 42.5587 97.1556 41.9551 96.7142 41.5263C96.2482 41.0736 95.5657 40.8473 94.6666 40.8473C93.9146 40.8473 93.1462 41.022 92.3615 41.3714L92.6435 42.1219C93.3056 41.8281 93.9473 41.6811 94.5685 41.6811C95.1652 41.6811 95.627 41.8241 95.954 42.11C96.2809 42.3959 96.4444 42.8088 96.4444 43.3489V43.5395C95.8068 43.3648 95.1611 43.2774 94.5072 43.2774C93.6816 43.2774 93.0236 43.4521 92.5332 43.8015C92.0427 44.151 91.7975 44.6473 91.7975 45.2906C91.7975 45.9021 92.0305 46.3786 92.4964 46.7201ZM77.1831 47.0976V40.9389H82.6761V47.0976H81.732V41.749H78.1272V47.0976H77.1831ZM84.4803 47.1929C84.2351 47.1929 83.9817 47.1612 83.7202 47.0976L83.8305 46.3114C84.0185 46.367 84.1697 46.3948 84.2842 46.3948C84.464 46.3948 84.6111 46.373 84.7256 46.3293C84.84 46.2856 84.9647 46.1704 85.0995 45.9838C85.2344 45.7972 85.3386 45.5331 85.4122 45.1916C85.4858 44.8502 85.5491 44.3657 85.6022 43.7383C85.6554 43.111 85.6819 42.3486 85.6819 41.4512V40.9389H90.1695V47.0976H89.2254V41.749H86.577V41.8919C86.577 42.829 86.5402 43.6272 86.4666 44.2863C86.3931 44.9455 86.3011 45.4617 86.1908 45.8349C86.0804 46.2082 85.9271 46.498 85.731 46.7045C85.5348 46.911 85.3448 47.044 85.1608 47.1036C84.9769 47.1631 84.7501 47.1929 84.4803 47.1929ZM94.3492 46.495C94.9377 46.495 95.4364 46.3402 95.8451 46.0304C96.2538 45.7207 96.4581 45.3237 96.4581 44.8392V44.2674C95.8369 44.0927 95.2198 44.0054 94.6067 44.0054C94.0263 44.0054 93.5727 44.1185 93.2457 44.3449C92.9188 44.5712 92.7553 44.8789 92.7553 45.2681C92.7553 45.6413 92.9085 45.9391 93.2151 46.1615C93.5216 46.3838 93.8996 46.495 94.3492 46.495ZM100.909 41.749V47.0976H101.865V41.749H104.133V40.9389H98.6405V41.749H100.909ZM110.154 43.6577H106.071C106.137 43.0541 106.361 42.5578 106.746 42.1687C107.13 41.7795 107.592 41.585 108.131 41.585C108.728 41.585 109.2 41.7815 109.547 42.1746C109.895 42.5677 110.097 43.0621 110.154 43.6577ZM111.956 47.0976L114.556 43.5716L112.091 40.9389H113.232L116.456 44.5126V40.9389H117.4V44.5126L120.625 40.9389H121.765L119.301 43.5716L121.9 47.0976H120.797L118.688 44.2268L117.4 45.5967V47.0976H116.456V45.5967L115.169 44.2268L113.06 47.0976H111.956ZM123.283 47.0976V40.9389H124.227V47.0976H123.283ZM131.634 41.749V47.0976H132.59V41.749H134.859V40.9389H129.366V41.749H131.634ZM138.123 47.2323C137.478 47.2323 136.922 47.0615 136.456 46.7201C135.99 46.3786 135.757 45.9021 135.757 45.2906C135.757 44.6473 136.002 44.151 136.493 43.8015C136.983 43.4521 137.641 43.2774 138.467 43.2774C139.121 43.2774 139.766 43.3648 140.404 43.5395V43.3489C140.404 42.8088 140.241 42.3959 139.914 42.11C139.587 41.8241 139.125 41.6811 138.528 41.6811C137.907 41.6811 137.265 41.8281 136.603 42.1219L136.321 41.3714C137.106 41.022 137.874 40.8473 138.626 40.8473C139.525 40.8473 140.208 41.0736 140.674 41.5263C141.115 41.9551 141.336 42.5587 141.336 43.337V47.1013H140.404V46.184C139.84 46.8829 139.08 47.2323 138.123 47.2323ZM139.799 46.0304C139.391 46.3402 138.892 46.495 138.304 46.495C137.854 46.495 137.476 46.3838 137.169 46.1615C136.863 45.9391 136.71 45.6413 136.71 45.2681C136.71 44.8789 136.873 44.5712 137.2 44.3449C137.527 44.1185 137.981 44.0054 138.561 44.0054C139.174 44.0054 139.791 44.0927 140.412 44.2674V44.8392C140.412 45.3237 140.208 45.7207 139.799 46.0304ZM147.009 47.0976V40.9389H152.502V47.0976H151.558V41.749H147.954V47.0976H147.009ZM155.133 46.3432C155.742 46.9428 156.492 47.2426 157.383 47.2426C158.413 47.2426 159.283 46.8574 159.994 46.0871L159.406 45.5748C158.834 46.1546 158.167 46.4444 157.407 46.4444C156.827 46.4444 156.326 46.2598 155.905 45.8905C155.484 45.5212 155.241 45.0229 155.176 44.3955H160.203C160.211 44.3002 160.215 44.193 160.215 44.0739C160.215 43.1368 159.949 42.3585 159.418 41.7391C158.887 41.1196 158.167 40.8099 157.26 40.8099C156.394 40.8099 155.67 41.1216 155.09 41.745C154.509 42.3684 154.219 43.1288 154.219 44.0262C154.219 44.9713 154.524 45.7436 155.133 46.3432ZM155.174 43.6579H159.257C159.199 43.0623 158.997 42.568 158.65 42.1748C158.302 41.7817 157.83 41.5852 157.233 41.5852C156.694 41.5852 156.232 41.7798 155.848 42.1689C155.464 42.558 155.239 43.0544 155.174 43.6579ZM161.869 40.9409V49.0056H162.813V45.9203C163.434 46.7939 164.244 47.2306 165.241 47.2306C166.05 47.2306 166.757 46.9368 167.362 46.3491C167.967 45.7615 168.269 44.9872 168.269 44.0262C168.269 43.0494 167.967 42.2692 167.362 41.6855C166.757 41.1018 166.05 40.8099 165.241 40.8099C164.26 40.8099 163.451 41.2665 162.813 42.1798V40.9409H161.869ZM165.07 46.4087C165.708 46.4087 166.239 46.1923 166.664 45.7594C167.089 45.3266 167.302 44.7449 167.302 44.0143C167.302 43.3075 167.085 42.7337 166.652 42.293C166.219 41.8522 165.691 41.6318 165.07 41.6318C164.457 41.6318 163.922 41.8582 163.464 42.3108C163.006 42.7635 162.777 43.3353 162.777 44.0262C162.777 44.7171 163.006 45.2869 163.464 45.7356C163.922 46.1843 164.457 46.4087 165.07 46.4087ZM170.531 46.3439C171.14 46.9435 171.89 47.2432 172.781 47.2432C173.811 47.2432 174.682 46.8581 175.393 46.0878L174.804 45.5755C174.232 46.1553 173.566 46.4451 172.806 46.4451C172.225 46.4451 171.725 46.2605 171.304 45.8912C170.883 45.5219 170.639 45.0236 170.574 44.3962H175.601C175.609 44.3009 175.613 44.1937 175.613 44.0746C175.613 43.1375 175.348 42.3592 174.816 41.7398C174.285 41.1203 173.566 40.8106 172.658 40.8106C171.792 40.8106 171.069 41.1223 170.488 41.7457C169.908 42.3691 169.618 43.1295 169.618 44.0269C169.618 44.972 169.922 45.7443 170.531 46.3439ZM170.576 43.6577H174.658C174.601 43.0621 174.399 42.5677 174.052 42.1746C173.704 41.7815 173.232 41.585 172.635 41.585C172.096 41.585 171.634 41.7795 171.25 42.1687C170.866 42.5578 170.641 43.0541 170.576 43.6577ZM177.268 40.9389V47.0976H178.213V45.6086L179.549 44.2744L181.805 47.0976H182.921L180.199 43.6073L182.847 40.9389H181.682L178.213 44.4888V40.9389H177.268ZM186.111 47.2323C185.465 47.2323 184.91 47.0615 184.444 46.7201C183.978 46.3786 183.745 45.9021 183.745 45.2906C183.745 44.6473 183.99 44.151 184.481 43.8015C184.971 43.4521 185.629 43.2774 186.455 43.2774C187.108 43.2774 187.754 43.3648 188.392 43.5395V43.3489C188.392 42.8088 188.228 42.3959 187.901 42.11C187.574 41.8241 187.113 41.6811 186.516 41.6811C185.895 41.6811 185.253 41.8281 184.591 42.1219L184.309 41.3714C185.094 41.022 185.862 40.8473 186.614 40.8473C187.513 40.8473 188.196 41.0736 188.662 41.5263C189.103 41.9551 189.324 42.5587 189.324 43.337V47.1013H188.392V46.184C187.828 46.8829 187.068 47.2323 186.111 47.2323ZM187.789 46.0304C187.38 46.3402 186.882 46.495 186.293 46.495C185.844 46.495 185.465 46.3838 185.159 46.1615C184.852 45.9391 184.699 45.6413 184.699 45.2681C184.699 44.8789 184.863 44.5712 185.19 44.3449C185.517 44.1185 185.97 44.0054 186.551 44.0054C187.164 44.0054 187.781 44.0927 188.402 44.2674V44.8392C188.402 45.3237 188.198 45.7207 187.789 46.0304ZM193.332 47.2426C192.359 47.2426 191.485 46.9368 190.708 46.3253L191.186 45.6463C191.832 46.1784 192.539 46.4444 193.308 46.4444C193.741 46.4444 194.111 46.3472 194.417 46.1526C194.724 45.958 194.877 45.69 194.877 45.3485C194.877 45.0308 194.738 44.7827 194.46 44.604C194.182 44.4253 193.79 44.336 193.283 44.336H192.437V43.5855H193.295C193.712 43.5855 194.051 43.4882 194.313 43.2936C194.575 43.0991 194.705 42.8429 194.705 42.5253C194.705 42.2473 194.577 42.025 194.319 41.8582C194.062 41.6914 193.733 41.608 193.332 41.608C192.58 41.608 191.938 41.8145 191.407 42.2275L190.941 41.5842C191.628 41.068 192.445 40.8099 193.393 40.8099C194.096 40.8099 194.654 40.9628 195.067 41.2685C195.48 41.5743 195.686 41.9694 195.686 42.4538C195.686 43.1288 195.347 43.6014 194.669 43.8714C195.453 44.1414 195.846 44.6457 195.846 45.3842C195.846 45.9004 195.617 46.3392 195.159 46.7005C194.701 47.0619 194.092 47.2426 193.332 47.2426ZM197.598 40.9389V47.0976H198.505L202.281 42.2255V47.0976H203.225V40.9389H202.306L198.542 45.8111V40.9389H197.598Z" fill="white"/>
<defs>
<linearGradient id="paint0_linear" x1="20.5842" y1="36.5455" x2="39.1185" y2="73.5536" gradientUnits="userSpaceOnUse">
<stop stop-color="#3BB9EB"/>
<stop offset="1" stop-color="#585AE6"/>
</linearGradient>
<linearGradient id="paint1_linear" x1="14.7125" y1="35.5461" x2="33.2468" y2="72.5542" gradientUnits="userSpaceOnUse">
<stop stop-color="#3BB9EB"/>
<stop offset="1" stop-color="#585AE6"/>
</linearGradient>
<linearGradient id="paint2_linear" x1="13.7311" y1="29.5412" x2="32.2654" y2="66.5493" gradientUnits="userSpaceOnUse">
<stop stop-color="#3BB9EB"/>
<stop offset="1" stop-color="#585AE6"/>
</linearGradient>
<linearGradient id="paint3_linear" x1="19.6028" y1="30.5405" x2="38.1371" y2="67.5486" gradientUnits="userSpaceOnUse">
<stop stop-color="#3BB9EB"/>
<stop offset="1" stop-color="#585AE6"/>
</linearGradient>
<linearGradient id="paint4_linear" x1="38.9376" y1="27.5648" x2="42.9133" y2="33.4831" gradientUnits="userSpaceOnUse">
<stop stop-color="#3BB9EB"/>
<stop offset="1" stop-color="#585AE6"/>
</linearGradient>
<linearGradient id="paint5_linear" x1="29.7821" y1="32.2647" x2="32.3046" y2="43.8152" gradientUnits="userSpaceOnUse">
<stop stop-color="#3BB9EB"/>
<stop offset="1" stop-color="#585AE6"/>
</linearGradient>
</defs>
</svg>
