<svg width="94" height="34" viewBox="0 0 94 34" fill="none" xmlns="http://www.w3.org/2000/svg">
<g clip-path="url(#clip0)">
<path d="M39.915 17.8722L36.0238 28.2054L35.6088 26.1052C34.6398 23.5312 32.5416 20.8299 30.0979 19.7355L33.658 33.0042L37.8664 33.0017L44.1245 17.8715H39.915V17.8722ZM43.2505 33.0193L45.7381 17.8571H49.7143L47.2246 33.0193H43.2505ZM61.648 18.2313C60.8622 17.9257 59.6229 17.5934 58.0857 17.5934C54.1527 17.5934 51.3894 19.6518 51.3655 22.5957C51.3401 24.7765 53.3413 25.993 54.8452 26.7175C56.3971 27.4592 56.9157 27.9346 56.911 28.5986C56.8957 29.6146 55.6695 30.0774 54.5292 30.0774C52.9398 30.0774 52.0934 29.8489 50.7901 29.2848L50.274 29.0435L49.7172 32.4358C50.6476 32.8586 52.3648 33.2247 54.1495 33.2437C58.3236 33.2437 61.0387 31.2088 61.0705 28.0658C61.0872 26.3355 60.0251 25.0269 57.7296 23.9458C56.3435 23.2435 55.487 22.7775 55.4995 22.0647C55.5002 21.4355 56.2185 20.7613 57.7775 20.7613C59.0789 20.7402 60.0154 21.0339 60.7519 21.3444L61.1072 21.5182L61.648 18.2313ZM71.8444 17.8726H68.7729C67.8207 17.8726 67.1075 18.1402 66.6871 19.1313L60.7851 33.0239H64.9606C64.9606 33.0239 65.6435 31.154 65.7985 30.7439C66.2531 30.7439 70.309 30.7534 70.8883 30.7534C71.0112 31.282 71.3719 33.0239 71.3719 33.0239H75.0638L71.8444 17.8726ZM66.9414 27.6431C67.2718 26.7734 68.5254 23.4049 68.5254 23.4049C68.5014 23.4464 68.8518 22.5278 69.0543 21.9609L69.3193 23.2674L70.2426 27.6431H66.9414Z" fill="white"/>
<path d="M32.4128 17.8636H26.0008L25.9633 18.1242C30.9484 19.3797 34.2378 22.4629 35.6072 26.1092L34.2136 19.1409C33.9746 18.1822 33.2767 17.897 32.4128 17.8636Z" fill="white"/>
<path d="M13.9741 14.1995H11.439L8.51428 1.21842L11.3165 0.757363L13.317 10.9158L18.4139 0.891707H21.1051L13.9741 14.1995ZM27.1585 9.95567H21.1126C20.9472 11.7609 21.7994 12.5483 23.2427 12.5483C24.452 12.5483 25.5156 12.1062 26.6606 11.3958L26.6514 13.2007C25.5292 13.8921 24.2313 14.3341 22.7102 14.3341C20.0776 14.3341 18.3389 12.8553 18.8611 9.51396C19.3322 6.49897 21.4508 4.67513 23.9084 4.67513C26.736 4.67513 27.6764 6.76836 27.2653 9.39931C27.2349 9.59098 27.1792 9.82168 27.1585 9.95567ZM23.6002 6.26861C22.6637 6.26861 21.7894 6.99801 21.3765 8.51552H25.121C25.1902 7.07538 24.7313 6.26861 23.6002 6.26861ZM31.099 8.8229L30.2676 14.1425H27.9271L29.3772 4.8668H31.3662L31.3676 6.72967C32.1598 5.65422 33.2366 4.7518 34.7116 4.67513L34.7252 6.96002C33.2477 7.05603 31.9183 7.82411 31.099 8.8229ZM34.6945 14.1425L36.1446 4.8668H38.4846L37.0349 14.1425H34.6945ZM37.5768 3.3113C36.7967 3.3113 36.2567 2.77357 36.3767 2.00549C36.4999 1.21807 37.2107 0.661352 37.9907 0.661352C38.7518 0.661352 39.2886 1.21842 39.1654 2.00549C39.0457 2.77357 38.3379 3.3113 37.5768 3.3113ZM44.9656 2.33221C44.1659 2.33221 43.683 2.67756 43.5537 3.50367L43.3405 4.8668H45.1349L45.1331 6.74866H43.0466L41.8905 14.1425H39.5697L40.7258 6.74901H39.3604L39.6543 4.86715H41.0197L41.2687 3.27331C41.5901 1.21877 43.0362 0.450342 44.9667 0.450342C45.3763 0.450342 45.682 0.489027 45.9106 0.527009L45.9281 2.40887C45.6099 2.35751 45.288 2.33187 44.9656 2.33221ZM44.9909 14.1425L46.4406 4.8668H48.7807L47.331 14.1425H44.9909ZM47.8736 3.3113C47.0935 3.3113 46.5535 2.77357 46.6735 2.00549C46.7964 1.21807 47.5078 0.661352 48.2875 0.661352C49.049 0.661352 49.5857 1.21842 49.4629 2.00549C49.3425 2.77357 48.635 3.3113 47.8736 3.3113ZM57.855 9.95567H51.8094C51.644 11.7609 52.4955 12.5483 53.9391 12.5483C55.1485 12.5483 56.2121 12.1062 57.3571 11.3958L57.3475 13.2007C56.2246 13.8921 54.9274 14.3341 53.4055 14.3341C50.7733 14.3341 49.0347 12.8553 49.5572 9.51396C50.0279 6.49897 52.1462 4.67513 54.6041 4.67513C57.4321 4.67513 58.3728 6.76836 57.961 9.39931C57.9314 9.59098 57.8753 9.82168 57.855 9.95567ZM54.2963 6.26861C53.3602 6.26861 52.4859 6.99801 52.0733 8.51552H55.817C55.8863 7.07538 55.4274 6.26861 54.2963 6.26861ZM64.7863 14.1425L64.7924 12.8557C64.0059 13.6431 62.9812 14.3345 61.6751 14.3345C59.705 14.3345 58.3511 12.8944 58.84 9.76365C59.38 6.3073 61.5505 4.77079 63.7352 4.77079C64.632 4.77079 65.3302 4.92447 65.866 5.11614L66.5649 0.64201L68.9625 0.277313L66.7953 14.1425H64.7863ZM65.5681 7.0177C65.0256 6.74866 64.5977 6.61432 63.7984 6.61432C62.5698 6.61432 61.5198 7.59376 61.2012 9.62931C60.9197 11.4342 61.5676 12.2793 62.6009 12.2793C63.4595 12.2793 64.1998 11.7802 64.9442 11.0118L65.5681 7.0177ZM73.9648 14.2293C72.8566 14.2293 71.953 14.0546 71.113 13.7637L72.6519 3.91584L74.4674 3.63942L73.802 7.90148C74.3327 7.43585 75.0699 6.97057 75.9706 6.97057C77.4778 6.97057 78.4864 8.07627 78.1186 10.4326C77.7139 13.022 76.0921 14.2293 73.9648 14.2293ZM75.2717 8.51236C74.6813 8.51236 74.0877 8.90554 73.5623 9.4292L73.0645 12.6144C73.4141 12.7452 73.6559 12.8033 74.1577 12.8033C75.2806 12.8033 76.0646 12.1344 76.3153 10.5342C76.5267 9.18197 76.0692 8.51236 75.2717 8.51236ZM82.2948 14.5202C81.389 16.2508 80.4926 16.7893 79.1186 16.7893C78.8082 16.7893 78.6357 16.7601 78.48 16.7165L78.4689 15.2763C78.6964 15.3343 78.9404 15.3779 79.2807 15.3779C79.7979 15.3779 80.2476 15.1455 80.5487 14.6362L80.784 14.1706L79.2807 7.2463L81.1633 7.01383L82.0366 12.0176L84.3974 7.11582H86.156L82.2948 14.5202Z" fill="white"/>
</g>
<defs>
<clipPath id="clip0">
<rect width="93.3962" height="33.41" fill="white" transform="translate(0.567627 0.277313)"/>
</clipPath>
</defs>
</svg>
