<svg width="47" height="47" viewBox="0 0 47 47" fill="none" xmlns="http://www.w3.org/2000/svg">
<path fill-rule="evenodd" clip-rule="evenodd" d="M23.5 47C36.4787 47 47 36.4787 47 23.5C47 10.5213 36.4787 0 23.5 0C10.5213 0 0 10.5213 0 23.5C0 36.4787 10.5213 47 23.5 47Z" fill="#D9E3E9"/>
<g clip-path="url(#clip0)">
<path d="M37.0845 15.6742C36.3196 14.3136 35.4894 14.0633 33.7992 13.9681C32.1107 13.8536 27.8649 13.806 24.1865 13.806C20.5011 13.806 16.2535 13.8536 14.5668 13.9664C12.8801 14.0633 12.0482 14.3118 11.2762 15.6742C10.4884 17.0331 10.083 19.3737 10.083 23.4945C10.083 23.498 10.083 23.4998 10.083 23.4998C10.083 23.5033 10.083 23.505 10.083 23.505V23.5086C10.083 27.6117 10.4884 29.9699 11.2762 31.3147C12.0482 32.6753 12.8783 32.9221 14.565 33.0366C16.2535 33.1353 20.5011 33.1935 24.1865 33.1935C27.8649 33.1935 32.1107 33.1353 33.801 33.0384C35.4912 32.9238 36.3213 32.6771 37.0863 31.3164C37.8812 29.9717 38.283 27.6134 38.283 23.5103C38.283 23.5103 38.283 23.505 38.283 23.5015C38.283 23.5015 38.283 23.498 38.283 23.4962C38.283 19.3737 37.8812 17.0331 37.0845 15.6742ZM20.658 28.7873V18.2122L29.4705 23.4998L20.658 28.7873Z" fill="#2B2F4A"/>
</g>
<defs>
<clipPath id="clip0">
<rect width="28.2" height="28.2" fill="white" transform="translate(10.083 9.39975)"/>
</clipPath>
</defs>
</svg>
