<svg width="20" height="20" viewBox="0 0 20 20" fill="none" xmlns="http://www.w3.org/2000/svg">
<g clip-path="url(#clip0)">
<path d="M19.7543 6.23369L13.1431 1.98005C13.0111 1.89513 12.8353 1.93333 12.7504 2.06525C12.6655 2.1972 12.7036 2.37298 12.8356 2.4579L19.3502 6.64936H17.8315L10.4156 1.87802C10.1632 1.7156 9.83688 1.71564 9.58438 1.87802L2.16851 6.64936H0.649831L9.99965 0.633251L11.3238 1.48521C11.4558 1.57009 11.6316 1.53196 11.7165 1.40001C11.8014 1.26806 11.7632 1.09228 11.6313 1.00735L10.3071 0.155398C10.1205 0.0353588 9.87949 0.0353588 9.69293 0.155398L0.245729 6.23369C0.0445571 6.36314 -0.0452867 6.60432 0.0221743 6.83385C0.0896353 7.06338 0.29569 7.2176 0.534909 7.2176H1.96788V8.1969V9.05456C1.96788 9.28069 2.12827 9.47007 2.34124 9.51487V10.0149C2.34124 10.2743 2.55226 10.4853 2.81163 10.4853H2.85069V13.9662C2.85069 14.1232 2.97788 14.2503 3.1348 14.2503C3.29171 14.2503 3.4189 14.1232 3.4189 13.9662V10.2012C3.4189 10.0443 3.29171 9.9171 3.1348 9.9171H2.90948V9.52491H4.92171V9.91702H4.6964C4.53949 9.91702 4.4123 10.0442 4.4123 10.2011V16.4783C4.4123 16.6352 4.53949 16.7624 4.6964 16.7624H4.92171V17.1888H2.90948V16.7624H3.1348C3.29171 16.7624 3.4189 16.6352 3.4189 16.4783V15.7521C3.4189 15.5952 3.29171 15.468 3.1348 15.468C2.97788 15.468 2.85069 15.5952 2.85069 15.7521V16.1942H2.81163C2.55226 16.1942 2.34124 16.4052 2.34124 16.6646V17.1646C2.12823 17.2094 1.96788 17.3988 1.96788 17.6249V18.1984H0.961473C0.64741 18.1984 0.391901 18.454 0.391901 18.768V19.3656C0.391901 19.6797 0.64741 19.9352 0.961473 19.9352H19.0385C19.3526 19.9352 19.6081 19.6797 19.6081 19.3656V18.768C19.6081 18.454 19.3526 18.1984 19.0385 18.1984H18.0321V17.6249C18.0321 17.3988 17.8717 17.2094 17.6588 17.1646V16.6646C17.6588 16.4052 17.4477 16.1942 17.1884 16.1942H17.1493V10.4852H17.1884C17.4477 10.4852 17.6588 10.2742 17.6588 10.0148V9.51479C17.8718 9.46999 18.0321 9.28061 18.0321 9.05448V8.19682V7.21752H19.4651C19.7043 7.21752 19.9104 7.0633 19.9778 6.83377C20.0453 6.60432 19.9554 6.36311 19.7543 6.23369ZM9.8918 2.35587C9.95754 2.31357 10.0425 2.31361 10.1082 2.35587L16.7814 6.6494H3.21866L9.8918 2.35587ZM2.53608 7.21756H17.4639V7.91276H14.4208H11.6636H8.3364H5.57917H2.53608V7.21756ZM11.5744 17.1647V16.6646C11.5744 16.4053 11.3634 16.1943 11.104 16.1943H11.0649V10.4853H11.104C11.3634 10.4853 11.5744 10.2743 11.5744 10.0149V9.51487C11.7874 9.47007 11.9477 9.28069 11.9477 9.05456V8.481H14.1367V9.05456C14.1367 9.28069 14.2971 9.47007 14.5101 9.51487V10.0149C14.5101 10.2743 14.7211 10.4853 14.9805 10.4853H15.0195V16.1943H14.9805C14.7211 16.1943 14.5101 16.4053 14.5101 16.6646V17.1647C14.2971 17.2095 14.1367 17.3989 14.1367 17.625V18.1985H11.9477V17.625C11.9477 17.3989 11.7873 17.2095 11.5744 17.1647ZM5.48992 17.1647V16.6646C5.48992 16.4053 5.2789 16.1943 5.01953 16.1943H4.98046V10.4853H5.01953C5.2789 10.4853 5.48992 10.2743 5.48992 10.0149V9.51487C5.70289 9.47007 5.86328 9.28069 5.86328 9.05456V8.481H8.0523V9.05456C8.0523 9.28069 8.21269 9.47007 8.42566 9.51487V10.0149C8.42566 10.2743 8.63668 10.4853 8.89605 10.4853H8.93512V16.1943H8.89605C8.63668 16.1943 8.42566 16.4053 8.42566 16.6646V17.1647C8.21269 17.2095 8.0523 17.3989 8.0523 17.625V18.1985H5.86328V17.625C5.86328 17.3989 5.70289 17.2095 5.48992 17.1647ZM10.7808 16.7624H11.0061V17.1888H8.99391V16.7624H9.21922C9.37613 16.7624 9.50332 16.6352 9.50332 16.4783V10.2012C9.50332 10.0442 9.37613 9.91702 9.21922 9.91702H8.99391V9.52491H11.0061V9.91702H10.7808C10.6239 9.91702 10.4967 10.0442 10.4967 10.2011V16.4783C10.4967 16.6352 10.6239 16.7624 10.7808 16.7624ZM8.70977 8.95671H8.70852H8.62051V8.481H11.3795V8.95671H11.2902C11.29 8.95671 11.2898 8.95674 11.2896 8.95674C11.2894 8.95674 11.2892 8.95671 11.289 8.95671H8.70977ZM8.62051 17.743C8.64824 17.752 8.67777 17.7571 8.70852 17.7571H11.2889C11.3206 17.7571 11.351 17.7516 11.3795 17.7421V18.1985H8.62051V17.743ZM2.62538 8.95671H2.53612V8.481H5.29511V8.95671H5.29507H5.20581H2.62538ZM2.53608 17.7425C2.56417 17.7518 2.59413 17.7571 2.62534 17.7571H5.20581C5.23703 17.7571 5.26699 17.7518 5.29507 17.7425V18.1985H2.53608V17.7425ZM19.0399 18.7681L19.0391 19.367C19.0391 19.367 19.039 19.367 19.0385 19.367L0.960105 19.3657L0.961473 18.7667L19.0399 18.7681ZM17.3738 17.757C17.4054 17.757 17.4356 17.7517 17.4639 17.7422V18.1985H14.7049V17.7428C14.7328 17.752 14.7625 17.757 14.7934 17.757H17.3738ZM15.3036 9.91706H15.0783V9.52491H17.0905V9.91702H16.8652C16.7083 9.91702 16.5811 10.0442 16.5811 10.2011V16.4783C16.5811 16.6352 16.7083 16.7625 16.8652 16.7625H17.0905V17.1888H15.0783V16.7625H15.3036C15.4605 16.7625 15.5877 16.6353 15.5877 16.4784V10.2012C15.5877 10.0442 15.4605 9.91706 15.3036 9.91706ZM17.464 8.95671H17.3747C17.3745 8.95671 17.3744 8.95674 17.3743 8.95674C17.3742 8.95674 17.374 8.95671 17.3739 8.95671H14.7942H14.7934H14.705V8.481H17.464V8.95671Z" fill="#DADADA"/>
</g>
<defs>
<clipPath id="clip0">
<rect width="20" height="20" fill="white"/>
</clipPath>
</defs>
</svg>
