<svg width="20" height="18" viewBox="0 0 20 18" fill="none" xmlns="http://www.w3.org/2000/svg">
<path d="M15.7354 3.43359C15.7354 2.14234 14.8459 0.09375 12.4592 0.09375C11.4786 0.09375 10.6537 0.532939 10.0002 1.40108C9.34676 0.532939 8.52183 0.09375 7.54125 0.09375C5.15449 0.09375 4.26508 2.14234 4.26508 3.43359C4.26508 5.6599 6.09406 7.0525 8.59269 9.08227C8.95984 9.38048 9.33949 9.6889 9.74426 10.0225C9.81769 10.083 9.90894 10.1133 10.0002 10.1133C10.0915 10.1133 10.1828 10.083 10.2562 10.0225C10.661 9.6889 11.0406 9.38048 11.4078 9.08227C14.0236 6.95728 15.7354 5.61284 15.7354 3.43359ZM10.0002 9.25145C9.68808 8.99555 9.39039 8.75371 9.10043 8.51814C6.48629 6.39463 5.04633 5.22486 5.04633 3.43359C5.04633 2.21852 5.88308 0.835938 7.54125 0.835938C8.4066 0.835938 9.09883 1.30797 9.6575 2.27897C9.72597 2.39802 9.85742 2.47209 10.0002 2.47209C10.143 2.47209 10.2745 2.39802 10.343 2.27897C10.9016 1.30797 11.5939 0.835938 12.4592 0.835938C14.0942 0.835938 14.9541 2.198 14.9541 3.43359C14.9541 5.22486 13.5142 6.39463 10.9 8.51817C10.6101 8.75371 10.3124 8.99555 10.0002 9.25145Z" fill="#DADADA"/>
<path d="M2.80695 14.6449L4.6875 15.538V17.5352C4.6875 17.7401 4.86242 17.9062 5.07812 17.9062H9.21875C9.43445 17.9062 9.60938 17.7401 9.60938 17.5352V12.6905C9.60938 11.5536 8.7116 10.6107 7.52402 10.4976L7.49207 10.4944C6.80469 10.4289 5.58758 9.98225 5.10699 9.52573L4.22973 8.69266C3.93453 8.41226 3.54223 8.25781 3.125 8.25781V5.28906C3.125 4.47058 2.42406 3.80469 1.5625 3.80469C0.700938 3.80469 0 4.47058 0 5.28906V10.33C0 12.1563 1.08586 13.8272 2.80695 14.6449ZM0.78125 5.28906C0.78125 4.87982 1.13172 4.54687 1.5625 4.54687C1.99328 4.54687 2.34375 4.87982 2.34375 5.28906V8.45676C1.86734 8.71845 1.5625 9.20636 1.5625 9.74219C1.5625 10.1386 1.72508 10.5112 2.02027 10.7916L4.02066 12.6924C4.17316 12.8373 4.42051 12.8373 4.57309 12.6924C4.72563 12.5475 4.72566 12.3126 4.57312 12.1676L2.57273 10.2668C2.42504 10.1266 2.34375 9.94028 2.34375 9.74219C2.34375 9.42809 2.55301 9.1468 2.86453 9.04227C2.86457 9.04227 2.86465 9.04223 2.86469 9.04219C2.86477 9.04216 2.86488 9.04216 2.86496 9.04212C3.13441 8.95128 3.45402 9.00538 3.67734 9.21757L4.55461 10.0506C5.46031 10.9111 7.4391 11.2348 7.44305 11.2358C8.23266 11.311 8.82809 11.9364 8.82809 12.6905V17.1641H5.46871V15.3086C5.46871 15.168 5.38508 15.0395 5.25277 14.9767L3.15633 13.981C1.69137 13.285 0.78125 11.886 0.78125 10.33V5.28906Z" fill="#DADADA"/>
<path d="M17.9297 14.1211C18.1454 14.1211 18.3203 13.9549 18.3203 13.75C18.3203 13.5451 18.1454 13.3789 17.9297 13.3789C17.714 13.3789 17.5391 13.5451 17.5391 13.75C17.5391 13.9549 17.714 14.1211 17.9297 14.1211Z" fill="#DADADA"/>
<path d="M18.4375 3.80469C17.5759 3.80469 16.875 4.47058 16.875 5.28906V8.25781C16.4578 8.25781 16.0655 8.41226 15.7704 8.69266L14.8929 9.5258C14.4124 9.98228 13.1953 10.4289 12.5049 10.4947L12.479 10.4973C11.2884 10.6107 10.3906 11.5536 10.3906 12.6905V17.5352C10.3906 17.7401 10.5655 17.9062 10.7812 17.9062H14.9219C15.1376 17.9062 15.3125 17.7401 15.3125 17.5352V15.538L16.591 14.9308C16.7839 14.8391 16.8622 14.6162 16.7657 14.4329C16.6693 14.2496 16.4346 14.1752 16.2417 14.2669L14.7472 14.9767C14.6149 15.0395 14.5312 15.168 14.5312 15.3086V17.1641H11.1719V12.6905C11.1719 11.9364 11.7673 11.311 12.56 11.2355L12.5858 11.2329C13.4331 11.1522 14.8361 10.6294 15.4453 10.0507L16.3227 9.21753C16.5466 9.00471 16.8669 8.95176 17.135 9.04212C17.1351 9.04216 17.1352 9.04216 17.1353 9.04219C17.1353 9.04219 17.1354 9.04223 17.1354 9.04227C17.447 9.1468 17.6562 9.42809 17.6562 9.74219C17.6562 9.94028 17.575 10.1266 17.4273 10.2669L15.4269 12.1677C15.2744 12.3126 15.2744 12.5475 15.427 12.6925C15.5794 12.8374 15.8268 12.8374 15.9794 12.6924L17.9798 10.7917C18.2749 10.5112 18.4375 10.1386 18.4375 9.74219C18.4375 9.20636 18.1327 8.71845 17.6562 8.45676V5.28906C17.6562 4.87982 18.0067 4.54687 18.4375 4.54687C18.8683 4.54687 19.2187 4.87982 19.2187 5.28906V10.33C19.2187 11.009 19.0384 11.683 18.6971 12.2793C18.5941 12.4594 18.6642 12.6847 18.8537 12.7826C19.0432 12.8805 19.2805 12.8139 19.3835 12.6338C19.7868 11.929 20 11.1324 20 10.33V5.28906C20 4.47058 19.2991 3.80469 18.4375 3.80469Z" fill="#DADADA"/>
</svg>
