<svg width="20" height="20" viewBox="0 0 20 20" fill="none" xmlns="http://www.w3.org/2000/svg">
<g clip-path="url(#clip0)">
<path d="M13.6548 8.33098C13.6513 8.32124 13.6472 8.31174 13.6425 8.30248C13.6369 8.28648 13.6301 8.27093 13.6221 8.25593C13.615 8.24579 13.6074 8.2361 13.5991 8.22679C13.5904 8.21421 13.5807 8.20221 13.5701 8.19101C13.5602 8.1827 13.5499 8.17486 13.5391 8.16758C13.5285 8.15843 13.5174 8.14988 13.5058 8.14193L10.1725 6.24193C10.0668 6.18164 9.93475 6.18164 9.82913 6.24193L6.4958 8.14193C6.48346 8.14965 6.47175 8.1582 6.4608 8.16758C6.44992 8.17486 6.43946 8.1827 6.42946 8.19101C6.41909 8.20221 6.4095 8.21405 6.4008 8.22648C6.39234 8.23582 6.38455 8.24563 6.37746 8.25593C6.36963 8.27053 6.36296 8.28565 6.35746 8.30121C6.35271 8.31103 6.34846 8.32108 6.3448 8.33129C6.33701 8.35801 6.33309 8.3856 6.33313 8.41331V11.58C6.33317 11.6911 6.39451 11.7941 6.4948 11.8514L9.82813 13.7513L9.83179 13.7529L9.83546 13.7555C9.85296 13.7641 9.87125 13.7712 9.89013 13.7767C9.89779 13.7792 9.90513 13.7833 9.91313 13.7855C9.96988 13.8003 10.0298 13.8003 10.0865 13.7855C10.0945 13.7833 10.1018 13.7792 10.1095 13.7767C10.1283 13.7712 10.1466 13.7641 10.1641 13.7555L10.1678 13.7529L10.1715 13.7513L13.5048 11.8514C13.6051 11.7941 13.6664 11.6911 13.6665 11.58V8.41331C13.6665 8.38552 13.6625 8.35781 13.6548 8.33098ZM9.99979 6.88255L11.0185 7.46331L8.33313 8.99407L7.31446 8.41331L9.99979 6.88255ZM9.66646 12.9204L6.9998 11.4004V8.97254L9.66646 10.4925V12.9204ZM9.99979 9.94407L8.98113 9.36331L11.6665 7.83254L12.6851 8.41331L9.99979 9.94407ZM12.9998 11.4007L10.3331 12.9207V10.4925L12.9998 8.97254V11.4007Z" fill="#DADADA"/>
<path d="M10.2665 0.623047C10.1453 0.48312 9.92769 0.463051 9.7804 0.578159C9.76315 0.591618 9.74732 0.606659 9.73315 0.623047L8.73315 1.88971L9.26649 2.26971L9.66649 1.76304V4.29637H10.3332V1.76304L10.7331 2.26971L11.2665 1.88971L10.2665 0.623047Z" fill="#DADADA"/>
<path d="M10.7331 17.7232L10.3332 18.2298V15.6965H9.66649V18.2298L9.26649 17.7232L8.73315 18.1032L9.73315 19.3698C9.84361 19.5098 10.0525 19.5381 10.1998 19.4332C10.2251 19.4152 10.2475 19.3938 10.2665 19.3698L11.2665 18.1032L10.7331 17.7232Z" fill="#DADADA"/>
<path d="M10.3335 4.92975H9.66681V5.56308H10.3335V4.92975Z" fill="#DADADA"/>
<path d="M10.3335 14.4295H9.66681V15.0628H10.3335V14.4295Z" fill="#DADADA"/>
<path d="M3.99989 9.67994H1.33323L1.86657 9.29994L1.46657 8.79327L0.133236 9.74328C-0.0140555 9.84821 -0.0438888 10.0467 0.0665693 10.1866C0.0855276 10.2106 0.107986 10.2319 0.133236 10.2499L1.46657 11.1999L1.86657 10.6933L1.33323 10.3133H3.99989V9.67994Z" fill="#DADADA"/>
<path d="M19.9333 9.80661C19.9143 9.78262 19.8918 9.76129 19.8666 9.74328L18.5333 8.79327L18.1333 9.29994L18.6666 9.67994H15.9999V10.3133H18.6666L18.1333 10.6933L18.5333 11.1999L19.8666 10.2499C20.0139 10.145 20.0437 9.94654 19.9333 9.80661Z" fill="#DADADA"/>
<path d="M5.33348 9.67972H4.66681V10.3131H5.33348V9.67972Z" fill="#DADADA"/>
<path d="M15.3334 9.67972H14.6667V10.3131H15.3334V9.67972Z" fill="#DADADA"/>
<path d="M5.993 5.74226L4.10767 3.9512L4.76734 4.0405L4.86167 3.4135L3.212 3.18835C3.02992 3.16266 2.86038 3.28209 2.83334 3.4551C2.8285 3.48594 2.8285 3.51729 2.83334 3.54808L3.069 5.11526L3.729 5.02565L3.635 4.39897L5.52033 6.19003L5.993 5.74226Z" fill="#DADADA"/>
<path d="M17.1661 16.4451L16.9305 14.8779L16.2698 14.9682L16.3638 15.5948L14.4785 13.8038L14.0071 14.2515L15.8925 16.0426L15.2335 15.9527L15.1391 16.5797L16.7888 16.8035C16.8045 16.8057 16.8203 16.8068 16.8361 16.8067C17.0202 16.8068 17.1695 16.665 17.1695 16.4901C17.1695 16.475 17.1684 16.46 17.1661 16.4451Z" fill="#DADADA"/>
<path d="M6.4645 6.19072L5.9931 6.63855L6.4645 7.08638L6.9359 6.63855L6.4645 6.19072Z" fill="#DADADA"/>
<path d="M13.5355 12.9078L13.0641 13.3557L13.5355 13.8035L14.0069 13.3557L13.5355 12.9078Z" fill="#DADADA"/>
<path d="M4.10619 16.0417L5.99152 14.2506L5.52152 13.8029L3.63619 15.5939L3.73019 14.9672L3.07019 14.8776L2.83319 16.4448C2.80707 16.6179 2.93356 16.7784 3.11581 16.8032C3.13152 16.8054 3.14736 16.8064 3.16319 16.8064C3.17902 16.8065 3.19486 16.8054 3.21052 16.8033L4.86019 16.5794L4.76585 15.9524L4.10619 16.0417Z" fill="#DADADA"/>
<path d="M17.0711 3.27883C16.9972 3.20786 16.8921 3.17457 16.7881 3.18922L15.1385 3.4131L15.2328 4.0401L15.8925 3.9508L14.0071 5.74186L14.4785 6.18963L16.3638 4.39856L16.2698 5.02461L16.9298 5.11486L17.1655 3.54768C17.1804 3.44896 17.1454 3.34937 17.0711 3.27883Z" fill="#DADADA"/>
<path d="M6.46493 12.9079L5.99353 13.3557L6.46493 13.8035L6.93633 13.3557L6.46493 12.9079Z" fill="#DADADA"/>
<path d="M13.5357 6.18944L13.0643 6.63727L13.5357 7.0851L14.0071 6.63727L13.5357 6.18944Z" fill="#DADADA"/>
</g>
<defs>
<clipPath id="clip0">
<rect width="20" height="19" fill="white" transform="translate(0 0.5)"/>
</clipPath>
</defs>
</svg>
