<svg width="20" height="20" viewBox="0 0 20 20" fill="none" xmlns="http://www.w3.org/2000/svg">
<path d="M18.4375 0.625H6.5625C6.31409 0.625742 6.07606 0.724752 5.90041 0.900407C5.72475 1.07606 5.62574 1.31409 5.625 1.5625V5H0.9375C0.85462 5 0.775134 5.03292 0.716529 5.09153C0.657924 5.15013 0.625 5.22962 0.625 5.3125V17.8125C0.625 17.8954 0.657924 17.9749 0.716529 18.0335C0.775134 18.0921 0.85462 18.125 0.9375 18.125H5.625V18.4375C5.62574 18.6859 5.72475 18.9239 5.90041 19.0996C6.07606 19.2752 6.31409 19.3743 6.5625 19.375H18.4375C18.6859 19.3743 18.9239 19.2752 19.0996 19.0996C19.2752 18.9239 19.3743 18.6859 19.375 18.4375V1.5625C19.3743 1.31409 19.2752 1.07606 19.0996 0.900407C18.9239 0.724752 18.6859 0.625742 18.4375 0.625ZM1.875 17.5H1.25V5.625H1.875V17.5ZM2.5 17.5V5.625H9.375V17.5H2.5ZM18.75 18.4375C18.75 18.5204 18.7171 18.5999 18.6585 18.6585C18.5999 18.7171 18.5204 18.75 18.4375 18.75H6.5625C6.47962 18.75 6.40013 18.7171 6.34153 18.6585C6.28292 18.5999 6.25 18.5204 6.25 18.4375V18.125H9.6875C9.77038 18.125 9.84987 18.0921 9.90847 18.0335C9.96708 17.9749 10 17.8954 10 17.8125V5.3125C10 5.22962 9.96708 5.15013 9.90847 5.09153C9.84987 5.03292 9.77038 5 9.6875 5H6.25V1.5625C6.25 1.47962 6.28292 1.40013 6.34153 1.34153C6.40013 1.28292 6.47962 1.25 6.5625 1.25H18.4375C18.5204 1.25 18.5999 1.28292 18.6585 1.34153C18.7171 1.40013 18.75 1.47962 18.75 1.5625V18.4375Z" fill="#DADADA"/>
<path d="M17.2475 12.5473C17.1889 12.4887 17.1094 12.4558 17.0265 12.4558C16.9437 12.4558 16.8642 12.4887 16.8056 12.5473L14.375 14.9779L13.27 13.8732C13.2114 13.8147 13.1319 13.7817 13.049 13.7817C12.9662 13.7817 12.8867 13.8147 12.8281 13.8732L11.9443 14.757C11.8858 14.8156 11.8528 14.8951 11.8528 14.9779C11.8528 15.0608 11.8858 15.1403 11.9443 15.1989L14.154 17.4086C14.2126 17.4671 14.2921 17.5001 14.375 17.5001C14.4578 17.5001 14.5373 17.4671 14.5959 17.4086L18.1315 13.8732C18.1606 13.8442 18.1836 13.8098 18.1994 13.7718C18.2151 13.7339 18.2232 13.6932 18.2232 13.6522C18.2232 13.6111 18.2151 13.5704 18.1994 13.5325C18.1836 13.4945 18.1606 13.4601 18.1315 13.4311L17.2475 12.5473ZM14.375 16.7457L12.6072 14.9779L13.049 14.5361L14.154 15.6407C14.2126 15.6993 14.2921 15.7322 14.375 15.7322C14.4578 15.7322 14.5373 15.6993 14.5959 15.6407L17.0265 13.2101L17.4687 13.6523L14.375 16.7457Z" fill="#DADADA"/>
<path d="M17.5 4.0625V2.8125C17.5 2.72962 17.4671 2.65013 17.4085 2.59153C17.3499 2.53292 17.2704 2.5 17.1875 2.5H7.8125C7.72962 2.5 7.65013 2.53292 7.59153 2.59153C7.53292 2.65013 7.5 2.72962 7.5 2.8125V4.0625C7.5 4.14538 7.53292 4.22487 7.59153 4.28347C7.65013 4.34208 7.72962 4.375 7.8125 4.375H17.1875C17.2704 4.375 17.3499 4.34208 17.4085 4.28347C17.4671 4.22487 17.5 4.14538 17.5 4.0625ZM16.875 3.75H8.125V3.125H16.875V3.75Z" fill="#DADADA"/>
<path d="M11.875 5.625H13.125V6.25H11.875V5.625Z" fill="#DADADA"/>
<path d="M13.75 5.625H17.5V6.25H13.75V5.625Z" fill="#DADADA"/>
<path d="M11.875 7.5H13.125V8.125H11.875V7.5Z" fill="#DADADA"/>
<path d="M13.75 7.5H17.5V8.125H13.75V7.5Z" fill="#DADADA"/>
<path d="M11.875 9.375H13.125V10H11.875V9.375Z" fill="#DADADA"/>
<path d="M13.75 9.375H17.5V10H13.75V9.375Z" fill="#DADADA"/>
<path d="M11.875 11.25H13.125V11.875H11.875V11.25Z" fill="#DADADA"/>
<path d="M13.75 11.25H17.5V11.875H13.75V11.25Z" fill="#DADADA"/>
<path d="M5.9375 10C5.62847 10 5.32637 10.0916 5.06942 10.2633C4.81247 10.435 4.6122 10.679 4.49394 10.9646C4.37568 11.2501 4.34473 11.5642 4.40502 11.8673C4.46531 12.1704 4.61413 12.4488 4.83265 12.6674C5.05117 12.8859 5.32958 13.0347 5.63267 13.095C5.93577 13.1553 6.24993 13.1243 6.53544 13.0061C6.82095 12.8878 7.06498 12.6875 7.23667 12.4306C7.40836 12.1736 7.5 11.8715 7.5 11.5625C7.4995 11.1483 7.33472 10.7511 7.0418 10.4582C6.74889 10.1653 6.35175 10.0005 5.9375 10ZM5.9375 12.5C5.75208 12.5 5.57082 12.445 5.41665 12.342C5.26248 12.239 5.14232 12.0926 5.07136 11.9213C5.00041 11.75 4.98184 11.5615 5.01801 11.3796C5.05419 11.1977 5.14348 11.0307 5.27459 10.8996C5.4057 10.7685 5.57274 10.6792 5.7546 10.643C5.93646 10.6068 6.12496 10.6254 6.29626 10.6964C6.46757 10.7673 6.61399 10.8875 6.717 11.0417C6.82002 11.1958 6.875 11.3771 6.875 11.5625C6.875 11.8111 6.77623 12.0496 6.60041 12.2254C6.4246 12.4012 6.18614 12.5 5.9375 12.5Z" fill="#DADADA"/>
<path d="M8.4375 7.5C8.18909 7.49926 7.95106 7.40025 7.77541 7.22459C7.59975 7.04894 7.50074 6.81091 7.5 6.5625C7.5 6.47962 7.46708 6.40013 7.40847 6.34153C7.34987 6.28292 7.27038 6.25 7.1875 6.25H4.6875C4.60462 6.25 4.52513 6.28292 4.46653 6.34153C4.40792 6.40013 4.375 6.47962 4.375 6.5625C4.37426 6.81091 4.27525 7.04894 4.09959 7.22459C3.92394 7.40025 3.68591 7.49926 3.4375 7.5C3.35462 7.5 3.27513 7.53292 3.21653 7.59153C3.15792 7.65013 3.125 7.72962 3.125 7.8125V15.3125C3.125 15.3954 3.15792 15.4749 3.21653 15.5335C3.27513 15.5921 3.35462 15.625 3.4375 15.625C3.68591 15.6257 3.92394 15.7248 4.09959 15.9004C4.27525 16.0761 4.37426 16.3141 4.375 16.5625C4.375 16.6454 4.40792 16.7249 4.46653 16.7835C4.52513 16.8421 4.60462 16.875 4.6875 16.875H7.1875C7.27038 16.875 7.34987 16.8421 7.40847 16.7835C7.46708 16.7249 7.5 16.6454 7.5 16.5625C7.50074 16.3141 7.59975 16.0761 7.77541 15.9004C7.95106 15.7248 8.18909 15.6257 8.4375 15.625C8.52038 15.625 8.59987 15.5921 8.65847 15.5335C8.71708 15.4749 8.75 15.3954 8.75 15.3125V7.8125C8.75 7.72962 8.71708 7.65013 8.65847 7.59153C8.59987 7.53292 8.52038 7.5 8.4375 7.5ZM8.125 15.0312C7.82489 15.0929 7.54945 15.2412 7.33282 15.4578C7.11618 15.6745 6.96787 15.9499 6.90625 16.25H4.96875C4.90713 15.9499 4.75882 15.6745 4.54218 15.4578C4.32554 15.2412 4.05011 15.0929 3.75 15.0312V8.09375C4.05011 8.03213 4.32554 7.88382 4.54218 7.66718C4.75882 7.45055 4.90713 7.17511 4.96875 6.875H6.90625C6.96787 7.17511 7.11618 7.45055 7.33282 7.66718C7.54945 7.88382 7.82489 8.03213 8.125 8.09375V15.0312Z" fill="#DADADA"/>
</svg>
