<svg width="115" height="44" viewBox="0 0 115 44" fill="none" xmlns="http://www.w3.org/2000/svg">
<path d="M34.7333 10.6762H35.6722C36.0952 10.6762 36.4418 10.5612 36.7113 10.3296C36.8416 10.2203 36.9457 10.0831 37.0158 9.92806C37.0859 9.77307 37.1202 9.60428 37.1162 9.43422C37.1162 9.07526 36.993 8.79104 36.7449 8.5824C36.4985 8.37376 36.1617 8.27026 35.7346 8.27026C35.3042 8.27026 34.9583 8.37376 34.6947 8.5824C34.4285 8.79104 34.2774 9.07854 34.2429 9.44408H33.4001C33.4453 8.84115 33.6777 8.36554 34.0983 8.01972C34.5213 7.67308 35.0783 7.49976 35.7683 7.49976C36.4164 7.49976 36.9511 7.67472 37.3709 8.02383C37.7882 8.37047 37.9968 8.81486 37.9968 9.35701C37.9968 9.74308 37.8777 10.084 37.6403 10.3821C37.4044 10.6776 37.0755 10.8846 36.7072 10.9695V11.0081C37.1688 11.0689 37.5327 11.2537 37.7997 11.5617C38.0658 11.873 38.1989 12.264 38.1989 12.7364C38.1989 13.3073 37.9631 13.7903 37.4916 14.1845C37.0193 14.5764 36.4402 14.7719 35.7535 14.7719C35.0224 14.7719 34.4236 14.5911 33.9587 14.2281C33.4929 13.8691 33.244 13.3927 33.2128 12.7988H34.0507C34.0884 13.1643 34.2618 13.4559 34.5698 13.6744C34.8745 13.8929 35.2664 14.0022 35.7444 14.0022C36.2094 14.0022 36.5864 13.8831 36.8755 13.6457C37.1639 13.405 37.3084 13.0937 37.3084 12.7117C37.3084 12.3141 37.1672 12.0053 36.8846 11.7835C36.6028 11.5584 36.211 11.4467 35.7099 11.4467H34.7333V10.6762ZM40.7872 13.9291C41.211 13.9291 41.5626 13.8075 41.8419 13.5644C42.1179 13.3171 42.2559 13.0074 42.2559 12.6353V12.2164L40.8989 12.3026C40.1095 12.3511 39.7144 12.6288 39.7144 13.1356C39.7144 13.3763 39.813 13.5685 40.0085 13.713C40.2007 13.8576 40.4603 13.9299 40.788 13.9299L40.7872 13.9291ZM40.6098 14.6569C40.084 14.6569 39.6602 14.5172 39.339 14.2379C39.0187 13.9586 38.8577 13.589 38.8577 13.1306C38.8577 12.6846 39.0244 12.3347 39.3587 12.0817C39.6922 11.8246 40.1736 11.6775 40.802 11.6381L42.2559 11.5519V11.119C42.2559 10.7986 42.1532 10.5514 41.9479 10.378C41.7425 10.2047 41.4493 10.1176 41.0673 10.1176C40.7658 10.1176 40.512 10.1899 40.3067 10.3345C40.2065 10.4012 40.1205 10.4869 40.0536 10.5869C39.9866 10.6868 39.94 10.7989 39.9165 10.9169H39.1131C39.1254 10.4807 39.3201 10.1127 39.6955 9.81454C40.0709 9.51883 40.5309 9.37179 41.0763 9.37179C41.6899 9.37179 42.1787 9.52293 42.545 9.82358C42.9106 10.1291 43.0929 10.5366 43.0929 11.0475V14.6084H42.2994V13.7081H42.2797C42.1319 13.9973 41.9076 14.2264 41.6062 14.3965C41.3047 14.5698 40.972 14.6569 40.6098 14.6569ZM45.0184 10.1127V11.5765H46.1733C46.8247 11.5765 47.1508 11.3293 47.1508 10.8348C47.1508 10.3534 46.8699 10.1127 46.308 10.1127H45.0184ZM45.0184 12.269V13.9151H46.4041C47.053 13.9151 47.3767 13.644 47.3767 13.1019C47.3767 12.5466 46.9997 12.269 46.2456 12.269H45.0184ZM44.1904 9.42026H46.414C46.8953 9.42026 47.2757 9.53854 47.5549 9.77593C47.8309 10.0141 47.9689 10.3378 47.9689 10.7485C47.9689 11.0114 47.8868 11.2504 47.7225 11.4656C47.5599 11.6808 47.3586 11.8139 47.1212 11.8648V11.9034C47.4457 11.9486 47.7069 12.0817 47.9057 12.3026C48.102 12.5244 48.1998 12.7955 48.1998 13.1159C48.1998 13.5759 48.0412 13.9398 47.7233 14.2084C47.4054 14.4753 46.9725 14.6084 46.4238 14.6084H44.1904V9.42026ZM50.8127 13.9299C51.2366 13.9299 51.5882 13.8075 51.8666 13.5644C52.1426 13.3171 52.2806 13.0074 52.2806 12.6353V12.2164L50.9236 12.3026C50.1342 12.3511 49.7399 12.6288 49.7399 13.1356C49.7399 13.3763 49.8377 13.5685 50.0332 13.713C50.2254 13.8576 50.485 13.9299 50.8135 13.9299H50.8127ZM50.6345 14.6569C50.1088 14.6569 49.6849 14.5172 49.3637 14.2379C49.0434 13.9586 48.8832 13.589 48.8832 13.1306C48.8832 12.6846 49.0499 12.3347 49.3834 12.0817C49.7169 11.8246 50.1983 11.6775 50.8275 11.6381L52.2814 11.5519V11.119C52.2814 10.7986 52.1779 10.5514 51.9726 10.378C51.7672 10.2047 51.474 10.1176 51.092 10.1176C50.7905 10.1176 50.5367 10.1899 50.3314 10.3345C50.2314 10.4013 50.1456 10.487 50.0788 10.587C50.0119 10.6869 49.9655 10.799 49.942 10.9169H49.1378C49.151 10.4807 49.3448 10.1127 49.721 9.81454C50.0956 9.51883 50.5564 9.37179 51.101 9.37179C51.7147 9.37179 52.2042 9.52293 52.5698 9.82358C52.9353 10.1291 53.1185 10.5366 53.1185 11.0475V14.6084H52.3242V13.7081H52.3053C52.1574 13.9973 51.9323 14.2264 51.6317 14.3965C51.3294 14.5698 50.9975 14.6569 50.6345 14.6569ZM57.6807 12.2599H55.0439V14.6084H54.2151V9.42026H55.0431V11.5666H57.6807V9.42026H58.5087V14.6084H57.6799V12.2591L57.6807 12.2599ZM63.4323 10.1127H61.7476V14.6084H60.9196V10.1127H59.2357V9.42026H63.4323V10.1127ZM65.7077 13.9299C66.1315 13.9299 66.4831 13.8075 66.7624 13.5644C67.0384 13.3171 67.1764 13.0074 67.1764 12.6353V12.2164L65.8194 12.3026C65.03 12.3511 64.6349 12.6288 64.6349 13.1356C64.6349 13.3763 64.7335 13.5685 64.929 13.713C65.1212 13.8576 65.3808 13.9299 65.7085 13.9299H65.7077ZM65.5303 14.6569C65.0045 14.6569 64.5807 14.5172 64.2595 14.2379C63.9392 13.9586 63.7782 13.589 63.7782 13.1306C63.7782 12.6846 63.9449 12.3347 64.2792 12.0817C64.6127 11.8246 65.0941 11.6775 65.7225 11.6381L67.1764 11.5519V11.119C67.1764 10.7986 67.0737 10.5514 66.8684 10.378C66.663 10.2047 66.3689 10.1176 65.9878 10.1176C65.6855 10.1176 65.4325 10.1899 65.2271 10.3345C65.127 10.4012 65.041 10.4869 64.9741 10.5869C64.9071 10.6868 64.8605 10.7989 64.837 10.9169H64.0336C64.0459 10.4807 64.2406 10.1127 64.616 9.81454C64.9914 9.51883 65.4514 9.37179 65.9968 9.37179C66.6096 9.37179 67.0992 9.52293 67.4647 9.82358C67.8311 10.1291 68.0134 10.5366 68.0134 11.0475V14.6084H67.2199V13.7081H67.2002C67.0524 13.9973 66.8281 14.2264 66.5266 14.3965C66.2252 14.5698 65.8925 14.6569 65.5303 14.6569ZM75.9115 14.6084H74.8288L72.7063 12.1006H72.6677V14.6084H71.8397V12.1006H71.801L69.6785 14.6084H68.6147L70.9689 11.8895L68.6681 9.42026H69.7031L71.801 11.7252H71.8397V9.42026H72.6677V11.7252H72.7063L74.805 9.42026H75.8343L73.5433 11.8747L75.9115 14.6084ZM76.5662 14.6084V9.42026H77.3942V13.3138H77.4319L80.1032 9.42026H80.9312V14.6084H80.1032V10.7148H80.0646L77.3942 14.6084H76.5662ZM85.8549 10.1127H84.1709V14.6084H83.3421V10.1127H81.6582V9.42026H85.8549V10.1127ZM86.581 14.6084V9.42026H87.409V13.3138H87.4476L90.1189 9.42026H90.9469V14.6084H90.1189V10.7148H90.0803L87.409 14.6084H86.581ZM96.0817 14.6946C95.5165 14.6946 95.0483 14.5665 94.6762 14.3102C94.3008 14.0531 94.0905 13.7106 94.0453 13.2801H94.898C94.9216 13.3903 94.968 13.4942 95.0342 13.5854C95.1004 13.6765 95.1849 13.7527 95.2824 13.8091C95.4911 13.9348 95.7572 13.9973 96.0817 13.9973C96.457 13.9973 96.7503 13.9151 96.9622 13.7516C97.0609 13.6794 97.1405 13.5842 97.1941 13.4743C97.2478 13.3644 97.2739 13.243 97.2703 13.1208C97.2703 12.5466 96.8743 12.2599 96.0817 12.2599H95.2972V11.5666H96.0817C96.7585 11.5666 97.0969 11.3079 97.0969 10.792C97.0969 10.5604 97.0173 10.3797 96.8563 10.2474C96.6838 10.1037 96.4332 10.0314 96.1055 10.0314C95.7942 10.0314 95.5379 10.0938 95.3358 10.2187C95.1337 10.3444 95.0154 10.5111 94.9793 10.7198H94.1612C94.1833 10.5168 94.2489 10.321 94.3535 10.1456C94.4581 9.97027 94.5993 9.81953 94.7674 9.70365C95.1173 9.45393 95.5642 9.32826 96.1063 9.32826C96.6797 9.32826 97.1273 9.45804 97.4485 9.71843C97.7598 9.96897 97.9151 10.3058 97.9151 10.7288C97.9151 10.9982 97.8371 11.2364 97.6793 11.4418C97.5253 11.6494 97.3016 11.7946 97.0493 11.8509V11.8886C97.745 12.0398 98.0933 12.4357 98.0933 13.0781C98.0933 13.5594 97.9093 13.9488 97.5397 14.2478C97.1709 14.546 96.6854 14.6946 96.0817 14.6946ZM42.7627 32.4416L41.5799 28.9489H36.6538L35.4717 32.4416H33.3853L38.051 19.5181H40.2188L44.8845 32.4416H42.7627ZM39.0901 21.6669L37.1647 27.3364H41.0698L39.1435 21.6669H39.0901ZM51.1273 22.6165C53.608 22.6165 55.2386 24.56 55.2386 27.5779C55.2386 30.5877 53.6171 32.5394 51.1725 32.5394C49.7753 32.5394 48.6729 31.9225 48.0913 30.8472H48.0552V35.6214H46.1117V22.7151H47.9837V24.3275H48.0281C48.5752 23.2794 49.7753 22.6165 51.1273 22.6165ZM50.6345 30.8924C52.2116 30.8924 53.2499 29.5937 53.2499 27.5779C53.2499 25.572 52.2108 24.2643 50.6345 24.2643C49.0943 24.2643 48.047 25.5991 48.0371 27.5779C48.0462 29.5666 49.0853 30.8924 50.6345 30.8924ZM61.8034 22.6165C64.2842 22.6165 65.9139 24.56 65.9139 27.5779C65.9139 30.5877 64.2932 32.5394 61.8478 32.5394C60.4514 32.5394 59.349 31.9225 58.7674 30.8472H58.7313V35.6214H56.7878V22.7151H58.6598V24.3275H58.7042C59.2504 23.2794 60.4505 22.6165 61.8034 22.6165ZM61.3106 30.8924C62.8869 30.8924 63.926 29.5937 63.926 27.5779C63.926 25.572 62.8869 24.2643 61.3106 24.2643C59.7704 24.2643 58.7223 25.5991 58.7132 27.5779C58.7223 29.5666 59.7614 30.8924 61.3106 30.8924ZM71.3148 28.8413H73.2944C73.4373 30.1219 74.6826 30.9639 76.3838 30.9639C78.0143 30.9639 79.1873 30.1219 79.1873 28.967C79.1873 27.9632 78.4801 27.3635 76.8052 26.9512L75.1295 26.5487C72.7564 25.9753 71.6548 24.8648 71.6548 23.0642C71.6548 20.834 73.5983 19.302 76.3575 19.302C79.0888 19.302 80.9608 20.834 81.0232 23.0642H79.0707C78.9549 21.7745 77.8887 20.9958 76.3304 20.9958C74.7722 20.9958 73.7059 21.7836 73.7059 22.9303C73.7059 23.8437 74.3869 24.3809 76.0528 24.7933L77.4771 25.1424C80.1279 25.7691 81.2294 26.8345 81.2294 28.7246C81.2294 31.1429 79.304 32.6568 76.2409 32.6568C73.3741 32.6568 71.4404 31.1783 71.3148 28.8413ZM83.4144 20.5301H85.3497V22.7151H87.2119V24.2462H85.3497V29.6833C85.3497 30.5252 85.7251 30.9187 86.5408 30.9187C86.7461 30.9187 87.078 30.8924 87.2037 30.8743V32.4055C86.9884 32.4597 86.5317 32.504 86.1112 32.504C84.1668 32.504 83.4144 31.7606 83.4144 29.8804V24.2462H82.0714V22.7159H83.4144V20.5309V20.5301ZM93.0161 32.5583C90.2035 32.5583 88.412 30.641 88.412 27.5779C88.412 24.5239 90.2125 22.5894 93.0161 22.5894C95.8196 22.5894 97.6103 24.5156 97.6103 27.5779C97.6103 30.6419 95.8278 32.5583 93.0161 32.5583ZM93.0161 30.9458C94.6639 30.9458 95.6397 29.7013 95.6397 27.5779C95.6397 25.4554 94.6639 24.2019 93.0161 24.2019C91.3683 24.2019 90.3826 25.4644 90.3826 27.5779C90.3826 29.7013 91.3683 30.9458 93.0161 30.9458ZM99.1686 32.4416V22.7151H101.023V24.3538H101.059C101.363 23.2704 102.259 22.6165 103.406 22.6165C103.62 22.6165 103.898 22.6436 104.05 22.688V24.5066C103.889 24.4434 103.486 24.3809 103.199 24.3809C101.918 24.3809 101.113 25.2681 101.113 26.6382V32.4416H99.1686ZM109.379 24.1748C107.983 24.1748 106.97 25.1958 106.862 26.6916H111.797C111.753 25.1777 110.794 24.1748 109.379 24.1748ZM111.788 29.5937H113.642C113.365 31.3401 111.654 32.5583 109.469 32.5583C106.648 32.5583 104.892 30.6591 104.892 27.6141C104.892 24.569 106.665 22.5894 109.388 22.5894C112.058 22.5894 113.742 24.4434 113.742 27.3906V28.0708H106.853V28.1874C106.853 29.8714 107.91 30.9819 109.505 30.9819C110.633 30.9819 111.52 30.4447 111.788 29.5937ZM20.603 30.8176C19.4925 32.4334 18.3441 34.0393 16.532 34.073C14.7479 34.1058 14.1762 33.0207 12.1407 33.0207C10.1035 33.0207 9.46529 34.0393 7.78137 34.1066C6.03172 34.1715 4.70101 32.3611 3.5814 30.7528C1.29537 27.4638 -0.449349 21.4534 1.89747 17.3963C3.05897 15.3822 5.14212 14.1073 7.39776 14.0736C9.11619 14.0424 10.7402 15.2278 11.7899 15.2278C12.8414 15.2278 14.8112 13.805 16.8828 14.0137C17.7502 14.049 20.1841 14.3611 21.7465 16.6382C21.6233 16.7195 18.8419 18.3303 18.8756 21.6866C18.9101 25.6952 22.4044 27.0284 22.4455 27.0465C22.4135 27.1409 21.8869 28.9489 20.603 30.8168V30.8176ZM12.9917 9.60918C13.9511 8.4904 15.5726 7.65747 16.9099 7.60161C17.0816 9.15658 16.4532 10.7132 15.525 11.8353C14.5951 12.9549 13.073 13.8272 11.5797 13.7106C11.3768 12.1893 12.13 10.6031 12.9925 9.60918H12.9917Z" fill="white"/>
</svg>
