<svg width="175" height="48" viewBox="0 0 175 48" fill="none" xmlns="http://www.w3.org/2000/svg">
<mask id="path-1-inside-1" fill="white">
<path d="M66.3992 10.3933C66.3992 9.98879 66.2518 9.66647 65.9572 9.42807C65.6625 9.18879 65.2483 9.06914 64.7143 9.06914C64.2679 9.06914 63.8947 9.19236 63.5929 9.43789C63.2911 9.68432 63.1402 9.98879 63.1402 10.3513H62.1358C62.1358 9.94682 62.2465 9.58343 62.4679 9.26289C62.6893 8.94147 62.9992 8.69147 63.3965 8.51289C63.8114 8.32963 64.2608 8.23767 64.7143 8.24325C65.5661 8.24325 66.2268 8.43343 66.6974 8.81557C67.1688 9.19772 67.4036 9.72897 67.4036 10.4084C67.4036 10.7611 67.2965 11.0816 67.0795 11.3709C66.8634 11.6611 66.5617 11.8888 66.1742 12.0566C67.0706 12.3566 67.5188 12.9513 67.5188 13.8406C67.5188 14.5245 67.2643 15.0665 66.7554 15.4674C66.2465 15.8691 65.5661 16.0691 64.7143 16.0691C64.209 16.0691 63.75 15.9799 63.3367 15.7995C62.9233 15.6209 62.6009 15.3647 62.3706 15.0334C62.1411 14.7022 62.0259 14.3084 62.0259 13.8513H63.0304C63.0304 14.2522 63.1884 14.5861 63.5063 14.8531C63.8233 15.12 64.2268 15.2531 64.7143 15.2531C65.2625 15.2531 65.6992 15.1263 66.025 14.8709C66.3509 14.6165 66.5143 14.2799 66.5143 13.862C66.5143 12.9691 65.9617 12.5138 64.8563 12.4959H63.9143V11.6691H64.8509C65.3599 11.6593 65.7456 11.5441 66.0072 11.3245C66.2688 11.1049 66.4 10.7941 66.4 10.3933H66.3992ZM72.1018 15.9647C72.0456 15.8531 72 15.654 71.9652 15.3683C71.5152 15.8352 70.9786 16.0691 70.3536 16.0691C69.7956 16.0691 69.3384 15.9111 68.9804 15.5959C68.6233 15.2799 68.4447 14.8799 68.4447 14.395C68.4447 13.8058 68.6679 13.3477 69.117 13.0218C69.5652 12.6959 70.1956 12.5325 71.0081 12.5325H71.95V12.0879C71.95 11.7495 71.8483 11.4808 71.6465 11.2799C71.4438 11.079 71.1465 10.979 70.7518 10.979C70.4063 10.979 70.117 11.0665 69.8831 11.2406C69.6492 11.4147 69.5331 11.6263 69.5331 11.8736H68.5599C68.5599 11.5915 68.6599 11.3183 68.8608 11.0549C69.0754 10.7807 69.3562 10.5656 69.6768 10.4299C70.0336 10.2736 70.4195 10.1951 70.809 10.1995C71.4608 10.1995 71.9724 10.3629 72.342 10.6888C72.7117 11.0147 72.9036 11.4638 72.9179 12.0361V14.6415C72.9179 15.1611 72.984 15.5736 73.1161 15.8808V15.9647H72.1018ZM70.4947 15.2272C70.7983 15.2272 71.0867 15.1486 71.3581 14.9915C71.6304 14.8343 71.8277 14.6308 71.95 14.3799V13.2183H71.1911C70.0054 13.2183 69.4125 13.5647 69.4125 14.2593C69.4125 14.5629 69.5134 14.7995 69.7161 14.9709C69.9179 15.1415 70.1777 15.2272 70.4956 15.2272H70.4947ZM74.434 15.9647V10.304H76.642C77.3956 10.304 77.9733 10.4361 78.3759 10.6995C78.7795 10.962 78.9804 11.3486 78.9804 11.8575C78.9804 12.1191 78.9018 12.3558 78.7456 12.5665C78.5884 12.7781 78.3563 12.9388 78.0492 13.0504C78.3911 13.1308 78.6652 13.2879 78.8733 13.5218C79.0813 13.7549 79.1849 14.0343 79.1849 14.3584C79.1849 14.8781 78.9938 15.2763 78.6117 15.5513C78.2295 15.8272 77.6902 15.9647 76.9929 15.9647H74.434ZM75.4018 13.4799V15.1852H77.0027C77.4072 15.1852 77.7099 15.1102 77.9108 14.9602C78.1117 14.8102 78.2117 14.5995 78.2117 14.3272C78.2117 13.762 77.7965 13.479 76.9661 13.479H75.4018V13.4799ZM75.4018 12.7058H76.6518C77.559 12.7058 78.0125 12.4406 78.0125 11.9102C78.0125 11.3799 77.584 11.1066 76.7259 11.0888H75.4018V12.7049V12.7058ZM83.8715 15.9647C83.8161 15.8531 83.7706 15.654 83.7358 15.3683C83.2858 15.8352 82.7492 16.0691 82.1242 16.0691C81.5661 16.0691 81.109 15.9111 80.7509 15.5959C80.3938 15.2799 80.2152 14.8799 80.2152 14.395C80.2152 13.8058 80.4384 13.3477 80.8875 13.0218C81.3358 12.6959 81.9661 12.5325 82.7786 12.5325H83.7197V12.0879C83.7197 11.7495 83.6188 11.4808 83.4161 11.2799C83.2143 11.079 82.9161 10.979 82.5224 10.979C82.1768 10.979 81.8875 11.0665 81.6536 11.2406C81.4197 11.4147 81.3027 11.6263 81.3027 11.8736H80.3295C80.3295 11.5915 80.4304 11.3183 80.6304 11.0549C80.8453 10.7806 81.1264 10.5655 81.4474 10.4299C81.8041 10.2736 82.1901 10.1951 82.5795 10.1995C83.2313 10.1995 83.7429 10.3629 84.1125 10.6888C84.4822 11.0147 84.6742 11.4638 84.6875 12.0361V14.6415C84.6875 15.1611 84.7545 15.5736 84.8867 15.8808V15.9647H83.8715ZM82.2652 15.2272C82.5688 15.2272 82.8572 15.1486 83.1286 14.9915C83.4009 14.8343 83.5983 14.6308 83.7197 14.3799V13.2183H82.9608C81.7759 13.2183 81.1831 13.5647 81.1831 14.2593C81.1831 14.5629 81.284 14.7995 81.4867 14.9709C81.6884 15.1415 81.9483 15.2272 82.2661 15.2272H82.2652ZM90.7411 15.9647H89.7733V13.5477H87.1733V15.9647H86.2V10.304H87.1733V12.7575H89.7733V10.304H90.7411V15.9647ZM96.4117 11.0897H94.5134V15.9647H93.5447V11.0897H91.6822V10.304H96.4108V11.0897H96.4117ZM100.674 15.9647C100.619 15.8531 100.573 15.654 100.538 15.3683C100.088 15.8352 99.5518 16.0691 98.9268 16.0691C98.3688 16.0691 97.9117 15.9111 97.5536 15.5959C97.1965 15.2799 97.0179 14.8799 97.0179 14.395C97.0179 13.8058 97.2411 13.3477 97.6902 13.0218C98.1384 12.6959 98.7688 12.5325 99.5813 12.5325H100.523V12.0879C100.523 11.7495 100.421 11.4808 100.22 11.2799C100.017 11.079 99.7197 10.979 99.3251 10.979C98.9795 10.979 98.6902 11.0665 98.4563 11.2406C98.2224 11.4147 98.1063 11.6263 98.1063 11.8736H97.1331C97.1331 11.5915 97.2331 11.3183 97.434 11.0549C97.6486 10.7807 97.9294 10.5656 98.25 10.4299C98.6068 10.2736 98.9927 10.1951 99.3822 10.1995C100.034 10.1995 100.546 10.3629 100.915 10.6888C101.285 11.0147 101.477 11.4638 101.491 12.0361V14.6415C101.491 15.1611 101.557 15.5736 101.689 15.8808V15.9647H100.674ZM99.0688 15.2272C99.3724 15.2272 99.6599 15.1486 99.9313 14.9915C100.204 14.8343 100.401 14.6308 100.523 14.3799V13.2183H99.7643C98.5786 13.2183 97.9858 13.5647 97.9858 14.2593C97.9858 14.5629 98.0867 14.7995 98.2893 14.9709C98.4911 15.1415 98.7509 15.2272 99.0688 15.2272ZM107.433 13.5058H106.754V15.9647H105.786V13.5058H105.105L103.521 15.9647H102.295L104.32 13.0352L102.489 10.304H103.661L105.121 12.6477H105.785V10.304H106.753V12.6477H107.412L108.881 10.304H110.054L108.217 13.0406L110.243 15.9647H109.018L107.432 13.5058H107.433ZM114.695 10.304H115.663V15.9647H114.695V11.837L112.084 15.9647H111.116V10.304H112.084V14.4379L114.695 10.304ZM121.333 11.0897H119.434V15.9647H118.466V11.0897H116.604V10.304H121.333V11.0897ZM125.847 10.304H126.815V15.9647H125.847V11.837L123.237 15.9647H122.269V10.304H123.237V14.4379L125.847 10.304ZM133.955 11.8531C133.96 11.7311 133.934 11.61 133.882 11.5C133.829 11.39 133.75 11.2946 133.652 11.2218C133.45 11.0674 133.173 10.9897 132.821 10.9897C132.479 10.9897 132.194 11.079 131.965 11.2566C131.737 11.4343 131.622 11.6433 131.622 11.8843H130.66C130.66 11.3924 130.865 10.9897 131.277 10.6754C131.688 10.362 132.204 10.2049 132.821 10.2049C133.483 10.2049 133.999 10.3468 134.369 10.6308C134.738 10.9156 134.923 11.3209 134.923 11.8477C134.923 12.1022 134.847 12.3361 134.694 12.5486C134.525 12.7732 134.299 12.9484 134.039 13.0558C134.699 13.279 135.029 13.7183 135.029 14.3745C135.029 14.8941 134.828 15.3058 134.427 15.6093C134.025 15.9129 133.49 16.0647 132.821 16.0647C132.169 16.0647 131.63 15.904 131.206 15.5852C130.783 15.2665 130.571 14.8352 130.571 14.2906H131.534C131.534 14.5665 131.656 14.8022 131.903 14.9995C132.148 15.1959 132.455 15.295 132.821 15.295C133.19 15.295 133.488 15.2093 133.715 15.0388C133.822 14.9643 133.909 14.8647 133.968 14.7489C134.027 14.6331 134.057 14.5045 134.055 14.3745C134.055 14.0566 133.96 13.8299 133.77 13.6915C133.58 13.554 133.285 13.4852 132.883 13.4852H131.915V12.6691H132.967C133.626 12.6513 133.955 12.379 133.955 11.8531Z"/>
</mask>
<path d="M66.3992 10.3933C66.3992 9.98879 66.2518 9.66647 65.9572 9.42807C65.6625 9.18879 65.2483 9.06914 64.7143 9.06914C64.2679 9.06914 63.8947 9.19236 63.5929 9.43789C63.2911 9.68432 63.1402 9.98879 63.1402 10.3513H62.1358C62.1358 9.94682 62.2465 9.58343 62.4679 9.26289C62.6893 8.94147 62.9992 8.69147 63.3965 8.51289C63.8114 8.32963 64.2608 8.23767 64.7143 8.24325C65.5661 8.24325 66.2268 8.43343 66.6974 8.81557C67.1688 9.19772 67.4036 9.72897 67.4036 10.4084C67.4036 10.7611 67.2965 11.0816 67.0795 11.3709C66.8634 11.6611 66.5617 11.8888 66.1742 12.0566C67.0706 12.3566 67.5188 12.9513 67.5188 13.8406C67.5188 14.5245 67.2643 15.0665 66.7554 15.4674C66.2465 15.8691 65.5661 16.0691 64.7143 16.0691C64.209 16.0691 63.75 15.9799 63.3367 15.7995C62.9233 15.6209 62.6009 15.3647 62.3706 15.0334C62.1411 14.7022 62.0259 14.3084 62.0259 13.8513H63.0304C63.0304 14.2522 63.1884 14.5861 63.5063 14.8531C63.8233 15.12 64.2268 15.2531 64.7143 15.2531C65.2625 15.2531 65.6992 15.1263 66.025 14.8709C66.3509 14.6165 66.5143 14.2799 66.5143 13.862C66.5143 12.9691 65.9617 12.5138 64.8563 12.4959H63.9143V11.6691H64.8509C65.3599 11.6593 65.7456 11.5441 66.0072 11.3245C66.2688 11.1049 66.4 10.7941 66.4 10.3933H66.3992ZM72.1018 15.9647C72.0456 15.8531 72 15.654 71.9652 15.3683C71.5152 15.8352 70.9786 16.0691 70.3536 16.0691C69.7956 16.0691 69.3384 15.9111 68.9804 15.5959C68.6233 15.2799 68.4447 14.8799 68.4447 14.395C68.4447 13.8058 68.6679 13.3477 69.117 13.0218C69.5652 12.6959 70.1956 12.5325 71.0081 12.5325H71.95V12.0879C71.95 11.7495 71.8483 11.4808 71.6465 11.2799C71.4438 11.079 71.1465 10.979 70.7518 10.979C70.4063 10.979 70.117 11.0665 69.8831 11.2406C69.6492 11.4147 69.5331 11.6263 69.5331 11.8736H68.5599C68.5599 11.5915 68.6599 11.3183 68.8608 11.0549C69.0754 10.7807 69.3562 10.5656 69.6768 10.4299C70.0336 10.2736 70.4195 10.1951 70.809 10.1995C71.4608 10.1995 71.9724 10.3629 72.342 10.6888C72.7117 11.0147 72.9036 11.4638 72.9179 12.0361V14.6415C72.9179 15.1611 72.984 15.5736 73.1161 15.8808V15.9647H72.1018ZM70.4947 15.2272C70.7983 15.2272 71.0867 15.1486 71.3581 14.9915C71.6304 14.8343 71.8277 14.6308 71.95 14.3799V13.2183H71.1911C70.0054 13.2183 69.4125 13.5647 69.4125 14.2593C69.4125 14.5629 69.5134 14.7995 69.7161 14.9709C69.9179 15.1415 70.1777 15.2272 70.4956 15.2272H70.4947ZM74.434 15.9647V10.304H76.642C77.3956 10.304 77.9733 10.4361 78.3759 10.6995C78.7795 10.962 78.9804 11.3486 78.9804 11.8575C78.9804 12.1191 78.9018 12.3558 78.7456 12.5665C78.5884 12.7781 78.3563 12.9388 78.0492 13.0504C78.3911 13.1308 78.6652 13.2879 78.8733 13.5218C79.0813 13.7549 79.1849 14.0343 79.1849 14.3584C79.1849 14.8781 78.9938 15.2763 78.6117 15.5513C78.2295 15.8272 77.6902 15.9647 76.9929 15.9647H74.434ZM75.4018 13.4799V15.1852H77.0027C77.4072 15.1852 77.7099 15.1102 77.9108 14.9602C78.1117 14.8102 78.2117 14.5995 78.2117 14.3272C78.2117 13.762 77.7965 13.479 76.9661 13.479H75.4018V13.4799ZM75.4018 12.7058H76.6518C77.559 12.7058 78.0125 12.4406 78.0125 11.9102C78.0125 11.3799 77.584 11.1066 76.7259 11.0888H75.4018V12.7049V12.7058ZM83.8715 15.9647C83.8161 15.8531 83.7706 15.654 83.7358 15.3683C83.2858 15.8352 82.7492 16.0691 82.1242 16.0691C81.5661 16.0691 81.109 15.9111 80.7509 15.5959C80.3938 15.2799 80.2152 14.8799 80.2152 14.395C80.2152 13.8058 80.4384 13.3477 80.8875 13.0218C81.3358 12.6959 81.9661 12.5325 82.7786 12.5325H83.7197V12.0879C83.7197 11.7495 83.6188 11.4808 83.4161 11.2799C83.2143 11.079 82.9161 10.979 82.5224 10.979C82.1768 10.979 81.8875 11.0665 81.6536 11.2406C81.4197 11.4147 81.3027 11.6263 81.3027 11.8736H80.3295C80.3295 11.5915 80.4304 11.3183 80.6304 11.0549C80.8453 10.7806 81.1264 10.5655 81.4474 10.4299C81.8041 10.2736 82.1901 10.1951 82.5795 10.1995C83.2313 10.1995 83.7429 10.3629 84.1125 10.6888C84.4822 11.0147 84.6742 11.4638 84.6875 12.0361V14.6415C84.6875 15.1611 84.7545 15.5736 84.8867 15.8808V15.9647H83.8715ZM82.2652 15.2272C82.5688 15.2272 82.8572 15.1486 83.1286 14.9915C83.4009 14.8343 83.5983 14.6308 83.7197 14.3799V13.2183H82.9608C81.7759 13.2183 81.1831 13.5647 81.1831 14.2593C81.1831 14.5629 81.284 14.7995 81.4867 14.9709C81.6884 15.1415 81.9483 15.2272 82.2661 15.2272H82.2652ZM90.7411 15.9647H89.7733V13.5477H87.1733V15.9647H86.2V10.304H87.1733V12.7575H89.7733V10.304H90.7411V15.9647ZM96.4117 11.0897H94.5134V15.9647H93.5447V11.0897H91.6822V10.304H96.4108V11.0897H96.4117ZM100.674 15.9647C100.619 15.8531 100.573 15.654 100.538 15.3683C100.088 15.8352 99.5518 16.0691 98.9268 16.0691C98.3688 16.0691 97.9117 15.9111 97.5536 15.5959C97.1965 15.2799 97.0179 14.8799 97.0179 14.395C97.0179 13.8058 97.2411 13.3477 97.6902 13.0218C98.1384 12.6959 98.7688 12.5325 99.5813 12.5325H100.523V12.0879C100.523 11.7495 100.421 11.4808 100.22 11.2799C100.017 11.079 99.7197 10.979 99.3251 10.979C98.9795 10.979 98.6902 11.0665 98.4563 11.2406C98.2224 11.4147 98.1063 11.6263 98.1063 11.8736H97.1331C97.1331 11.5915 97.2331 11.3183 97.434 11.0549C97.6486 10.7807 97.9294 10.5656 98.25 10.4299C98.6068 10.2736 98.9927 10.1951 99.3822 10.1995C100.034 10.1995 100.546 10.3629 100.915 10.6888C101.285 11.0147 101.477 11.4638 101.491 12.0361V14.6415C101.491 15.1611 101.557 15.5736 101.689 15.8808V15.9647H100.674ZM99.0688 15.2272C99.3724 15.2272 99.6599 15.1486 99.9313 14.9915C100.204 14.8343 100.401 14.6308 100.523 14.3799V13.2183H99.7643C98.5786 13.2183 97.9858 13.5647 97.9858 14.2593C97.9858 14.5629 98.0867 14.7995 98.2893 14.9709C98.4911 15.1415 98.7509 15.2272 99.0688 15.2272ZM107.433 13.5058H106.754V15.9647H105.786V13.5058H105.105L103.521 15.9647H102.295L104.32 13.0352L102.489 10.304H103.661L105.121 12.6477H105.785V10.304H106.753V12.6477H107.412L108.881 10.304H110.054L108.217 13.0406L110.243 15.9647H109.018L107.432 13.5058H107.433ZM114.695 10.304H115.663V15.9647H114.695V11.837L112.084 15.9647H111.116V10.304H112.084V14.4379L114.695 10.304ZM121.333 11.0897H119.434V15.9647H118.466V11.0897H116.604V10.304H121.333V11.0897ZM125.847 10.304H126.815V15.9647H125.847V11.837L123.237 15.9647H122.269V10.304H123.237V14.4379L125.847 10.304ZM133.955 11.8531C133.96 11.7311 133.934 11.61 133.882 11.5C133.829 11.39 133.75 11.2946 133.652 11.2218C133.45 11.0674 133.173 10.9897 132.821 10.9897C132.479 10.9897 132.194 11.079 131.965 11.2566C131.737 11.4343 131.622 11.6433 131.622 11.8843H130.66C130.66 11.3924 130.865 10.9897 131.277 10.6754C131.688 10.362 132.204 10.2049 132.821 10.2049C133.483 10.2049 133.999 10.3468 134.369 10.6308C134.738 10.9156 134.923 11.3209 134.923 11.8477C134.923 12.1022 134.847 12.3361 134.694 12.5486C134.525 12.7732 134.299 12.9484 134.039 13.0558C134.699 13.279 135.029 13.7183 135.029 14.3745C135.029 14.8941 134.828 15.3058 134.427 15.6093C134.025 15.9129 133.49 16.0647 132.821 16.0647C132.169 16.0647 131.63 15.904 131.206 15.5852C130.783 15.2665 130.571 14.8352 130.571 14.2906H131.534C131.534 14.5665 131.656 14.8022 131.903 14.9995C132.148 15.1959 132.455 15.295 132.821 15.295C133.19 15.295 133.488 15.2093 133.715 15.0388C133.822 14.9643 133.909 14.8647 133.968 14.7489C134.027 14.6331 134.057 14.5045 134.055 14.3745C134.055 14.0566 133.96 13.8299 133.77 13.6915C133.58 13.554 133.285 13.4852 132.883 13.4852H131.915V12.6691H132.967C133.626 12.6513 133.955 12.379 133.955 11.8531Z" fill="#0066F5" stroke="white" stroke-width="2" mask="url(#path-1-inside-1)"/>
<mask id="path-2-inside-2" fill="white">
<path fill-rule="evenodd" clip-rule="evenodd" d="M122.675 35.3317H124.407V23.5361H122.675V35.3326V35.3317ZM138.255 27.7844L136.269 32.8969H136.21L134.155 27.7844H132.292L135.379 34.9299L133.616 38.9067H135.423L140.179 27.7844H138.255ZM128.445 33.9906C127.879 33.9906 127.091 33.7049 127.091 32.9915C127.091 32.0781 128.073 31.7272 128.924 31.7272C129.685 31.7272 130.042 31.8978 130.504 32.1236C130.369 33.2165 129.446 33.9906 128.445 33.9906ZM128.653 27.5254C127.404 27.5254 126.105 28.0879 125.572 29.3317L127.104 29.9861C127.435 29.3317 128.042 29.1201 128.684 29.1201C129.58 29.1201 130.49 29.6674 130.504 30.6361V30.7603C130.19 30.5772 129.522 30.304 128.698 30.304C127.046 30.304 125.363 31.2299 125.363 32.9585C125.363 34.5388 126.716 35.5567 128.237 35.5567C129.4 35.5567 130.042 35.0228 130.445 34.4004H130.504V35.3111H132.174V30.7879C132.174 28.696 130.64 27.5254 128.653 27.5254ZM117.969 29.2219H115.507V25.1772H117.969C119.259 25.1772 119.996 26.2665 119.996 27.1986C119.996 28.1111 119.259 29.2219 117.969 29.2219ZM117.924 23.5353H113.777V35.3317H115.506V30.862H117.922C119.842 30.862 121.724 29.4478 121.724 27.1986C121.724 24.9495 119.838 23.5353 117.922 23.5353H117.924ZM95.3277 33.9942C94.1331 33.9942 93.134 32.9763 93.134 31.5745C93.134 30.1611 94.1331 29.129 95.3277 29.129C96.5063 29.129 97.4331 30.1611 97.4331 31.5754C97.4331 32.9763 96.5054 33.9951 95.3277 33.9951V33.9942ZM97.3098 28.4424H97.2518C96.8625 27.9728 96.1206 27.5478 95.1804 27.5478C93.2045 27.5478 91.4 29.3129 91.4 31.5745C91.4 33.8245 93.2045 35.5754 95.1795 35.5754C96.1206 35.5754 96.8625 35.1469 97.2509 34.6647H97.3098V35.2397C97.3098 36.7728 96.5063 37.5986 95.2054 37.5986C94.1482 37.5986 93.4911 36.8201 93.2197 36.1656L91.7125 36.8067C92.1482 37.8701 93.2982 39.179 95.2063 39.179C97.2393 39.179 98.9536 37.962 98.9536 34.9995V27.7933H97.3107V28.4424H97.3098ZM100.148 35.3317H101.88V23.5361H100.148V35.3326V35.3317ZM104.434 31.437C104.388 29.8906 105.613 29.0969 106.493 29.0969C107.18 29.0969 107.763 29.4478 107.957 29.9486L104.433 31.437H104.434ZM109.808 30.1013C109.483 29.2031 108.478 27.5478 106.433 27.5478C104.406 27.5478 102.718 29.1745 102.718 31.5629C102.718 33.8111 104.388 35.5754 106.628 35.5754C108.438 35.5754 109.483 34.4504 109.913 33.7969L108.569 32.8844C108.121 33.5522 107.511 33.9942 106.628 33.9942C105.751 33.9942 105.121 33.5861 104.718 32.7781L109.991 30.5567L109.808 30.1013ZM67.8197 28.779V30.4844H71.8197C71.7027 31.437 71.3902 32.1379 70.9099 32.6272C70.3259 33.2165 69.4161 33.8719 67.8197 33.8719C65.3572 33.8719 63.4295 31.8486 63.4295 29.3415C63.4295 26.8344 65.3572 24.8111 67.8197 24.8111C69.15 24.8111 70.1188 25.3415 70.8331 26.0281L72.0143 24.8254C71.0152 23.854 69.6849 23.1076 67.8206 23.1076C64.4447 23.1076 61.6072 25.904 61.6072 29.3415C61.6072 32.779 64.4447 35.5754 67.8206 35.5754C69.6447 35.5754 71.0143 34.9674 72.0929 33.8254C73.1965 32.7004 73.5402 31.1201 73.5402 29.8433C73.5402 29.4478 73.5081 29.0826 73.45 28.779H67.8206H67.8197ZM78.0875 33.9942C76.8911 33.9942 75.8607 32.9915 75.8607 31.5629C75.8607 30.1147 76.892 29.129 78.0875 29.129C79.2822 29.129 80.3107 30.1147 80.3107 31.5629C80.3107 32.9915 79.2822 33.9942 78.0875 33.9942ZM78.0875 27.5478C75.9063 27.5478 74.1331 29.2353 74.1331 31.5629C74.1331 33.8719 75.9063 35.5754 78.0875 35.5754C80.2679 35.5754 82.0429 33.8719 82.0429 31.5629C82.0429 29.2353 80.2679 27.5478 78.0875 27.5478ZM86.717 33.9942C85.5224 33.9942 84.4956 32.9915 84.4956 31.5629C84.4956 30.1147 85.5224 29.129 86.717 29.129C87.9116 29.129 88.9438 30.1147 88.9438 31.5629C88.9438 32.9915 87.9116 33.9942 86.717 33.9942ZM86.717 27.5478C84.5402 27.5478 82.7616 29.2353 82.7616 31.5629C82.7616 33.8719 84.5402 35.5754 86.717 35.5754C88.8982 35.5754 90.6759 33.8719 90.6759 31.5629C90.6759 29.2353 88.8982 27.5478 86.717 27.5478Z"/>
</mask>
<path fill-rule="evenodd" clip-rule="evenodd" d="M122.675 35.3317H124.407V23.5361H122.675V35.3326V35.3317ZM138.255 27.7844L136.269 32.8969H136.21L134.155 27.7844H132.292L135.379 34.9299L133.616 38.9067H135.423L140.179 27.7844H138.255ZM128.445 33.9906C127.879 33.9906 127.091 33.7049 127.091 32.9915C127.091 32.0781 128.073 31.7272 128.924 31.7272C129.685 31.7272 130.042 31.8978 130.504 32.1236C130.369 33.2165 129.446 33.9906 128.445 33.9906ZM128.653 27.5254C127.404 27.5254 126.105 28.0879 125.572 29.3317L127.104 29.9861C127.435 29.3317 128.042 29.1201 128.684 29.1201C129.58 29.1201 130.49 29.6674 130.504 30.6361V30.7603C130.19 30.5772 129.522 30.304 128.698 30.304C127.046 30.304 125.363 31.2299 125.363 32.9585C125.363 34.5388 126.716 35.5567 128.237 35.5567C129.4 35.5567 130.042 35.0228 130.445 34.4004H130.504V35.3111H132.174V30.7879C132.174 28.696 130.64 27.5254 128.653 27.5254ZM117.969 29.2219H115.507V25.1772H117.969C119.259 25.1772 119.996 26.2665 119.996 27.1986C119.996 28.1111 119.259 29.2219 117.969 29.2219ZM117.924 23.5353H113.777V35.3317H115.506V30.862H117.922C119.842 30.862 121.724 29.4478 121.724 27.1986C121.724 24.9495 119.838 23.5353 117.922 23.5353H117.924ZM95.3277 33.9942C94.1331 33.9942 93.134 32.9763 93.134 31.5745C93.134 30.1611 94.1331 29.129 95.3277 29.129C96.5063 29.129 97.4331 30.1611 97.4331 31.5754C97.4331 32.9763 96.5054 33.9951 95.3277 33.9951V33.9942ZM97.3098 28.4424H97.2518C96.8625 27.9728 96.1206 27.5478 95.1804 27.5478C93.2045 27.5478 91.4 29.3129 91.4 31.5745C91.4 33.8245 93.2045 35.5754 95.1795 35.5754C96.1206 35.5754 96.8625 35.1469 97.2509 34.6647H97.3098V35.2397C97.3098 36.7728 96.5063 37.5986 95.2054 37.5986C94.1482 37.5986 93.4911 36.8201 93.2197 36.1656L91.7125 36.8067C92.1482 37.8701 93.2982 39.179 95.2063 39.179C97.2393 39.179 98.9536 37.962 98.9536 34.9995V27.7933H97.3107V28.4424H97.3098ZM100.148 35.3317H101.88V23.5361H100.148V35.3326V35.3317ZM104.434 31.437C104.388 29.8906 105.613 29.0969 106.493 29.0969C107.18 29.0969 107.763 29.4478 107.957 29.9486L104.433 31.437H104.434ZM109.808 30.1013C109.483 29.2031 108.478 27.5478 106.433 27.5478C104.406 27.5478 102.718 29.1745 102.718 31.5629C102.718 33.8111 104.388 35.5754 106.628 35.5754C108.438 35.5754 109.483 34.4504 109.913 33.7969L108.569 32.8844C108.121 33.5522 107.511 33.9942 106.628 33.9942C105.751 33.9942 105.121 33.5861 104.718 32.7781L109.991 30.5567L109.808 30.1013ZM67.8197 28.779V30.4844H71.8197C71.7027 31.437 71.3902 32.1379 70.9099 32.6272C70.3259 33.2165 69.4161 33.8719 67.8197 33.8719C65.3572 33.8719 63.4295 31.8486 63.4295 29.3415C63.4295 26.8344 65.3572 24.8111 67.8197 24.8111C69.15 24.8111 70.1188 25.3415 70.8331 26.0281L72.0143 24.8254C71.0152 23.854 69.6849 23.1076 67.8206 23.1076C64.4447 23.1076 61.6072 25.904 61.6072 29.3415C61.6072 32.779 64.4447 35.5754 67.8206 35.5754C69.6447 35.5754 71.0143 34.9674 72.0929 33.8254C73.1965 32.7004 73.5402 31.1201 73.5402 29.8433C73.5402 29.4478 73.5081 29.0826 73.45 28.779H67.8206H67.8197ZM78.0875 33.9942C76.8911 33.9942 75.8607 32.9915 75.8607 31.5629C75.8607 30.1147 76.892 29.129 78.0875 29.129C79.2822 29.129 80.3107 30.1147 80.3107 31.5629C80.3107 32.9915 79.2822 33.9942 78.0875 33.9942ZM78.0875 27.5478C75.9063 27.5478 74.1331 29.2353 74.1331 31.5629C74.1331 33.8719 75.9063 35.5754 78.0875 35.5754C80.2679 35.5754 82.0429 33.8719 82.0429 31.5629C82.0429 29.2353 80.2679 27.5478 78.0875 27.5478ZM86.717 33.9942C85.5224 33.9942 84.4956 32.9915 84.4956 31.5629C84.4956 30.1147 85.5224 29.129 86.717 29.129C87.9116 29.129 88.9438 30.1147 88.9438 31.5629C88.9438 32.9915 87.9116 33.9942 86.717 33.9942ZM86.717 27.5478C84.5402 27.5478 82.7616 29.2353 82.7616 31.5629C82.7616 33.8719 84.5402 35.5754 86.717 35.5754C88.8982 35.5754 90.6759 33.8719 90.6759 31.5629C90.6759 29.2353 88.8982 27.5478 86.717 27.5478Z" fill="#0066F5" stroke="white" stroke-width="2" mask="url(#path-2-inside-2)"/>
<path d="M25.786 34.6536V34.6533V10.9185C25.786 10.4121 26.0215 9.96059 26.3892 9.66852L39.4856 22.7819L26.3848 35.8998C26.2442 35.7874 26.123 35.6515 26.027 35.4973C25.8694 35.2441 25.7859 34.9518 25.786 34.6536ZM46.1283 19.9159L48.9303 21.5344C49.3004 21.8272 49.536 22.2786 49.536 22.7864C49.536 23.2827 49.3099 23.7255 48.9536 24.0182L46.1308 25.6505L43.2659 22.7819L46.1283 19.9159ZM41.3753 24.6743L43.7348 27.0364L32.5722 33.4894L41.3753 24.6743ZM41.3762 20.8895L32.5818 12.0839L43.7322 18.5302L41.3762 20.8895Z" fill="#F6F9FD" stroke="white"/>
<rect x="0.5" y="0.5" width="174" height="44" rx="4.5" stroke="white"/>
</svg>
