<svg width="106" height="29" viewBox="0 0 106 29" fill="none" xmlns="http://www.w3.org/2000/svg">
<path d="M38.0868 2.48115C38.0868 2.10904 37.9513 1.81251 37.6802 1.59319C37.4092 1.37304 37.028 1.26297 36.5368 1.26297C36.1261 1.26297 35.7827 1.37633 35.5051 1.60222C35.2274 1.82894 35.0886 2.10904 35.0886 2.44254H34.1645C34.1645 2.07044 34.2664 1.73611 34.4701 1.44122C34.6738 1.14551 34.9588 0.915507 35.3244 0.751222C35.7061 0.582617 36.1195 0.498016 36.5368 0.50315C37.3204 0.50315 37.9283 0.678114 38.3612 1.02969C38.7949 1.38126 39.0109 1.87001 39.0109 2.49511C39.0109 2.81958 38.9124 3.11447 38.7128 3.38061C38.514 3.64758 38.2363 3.85704 37.8798 4.01147C38.7045 4.28747 39.1169 4.83454 39.1169 5.65269C39.1169 6.2819 38.8828 6.78051 38.4146 7.14933C37.9464 7.51897 37.3204 7.70297 36.5368 7.70297C36.0719 7.70297 35.6497 7.62083 35.2693 7.4549C34.889 7.29061 34.5925 7.05486 34.3805 6.75011C34.1694 6.44536 34.0635 6.08311 34.0635 5.66254H34.9876C34.9876 6.03136 35.133 6.33858 35.4254 6.58419C35.717 6.82979 36.0883 6.95218 36.5368 6.95218C37.0412 6.95218 37.4428 6.83554 37.7427 6.60061C38.0425 6.36651 38.1928 6.05683 38.1928 5.6724C38.1928 4.85097 37.6843 4.43204 36.6674 4.41561H35.8008V3.65497H36.6625C37.1307 3.64594 37.4855 3.53997 37.7262 3.3379C37.9669 3.13583 38.0877 2.84997 38.0877 2.48115H38.0868ZM43.3333 7.60686C43.2815 7.50419 43.2397 7.32101 43.2076 7.05815C42.7936 7.48776 42.2999 7.70297 41.7249 7.70297C41.2115 7.70297 40.791 7.55758 40.4616 7.26761C40.133 6.97683 39.9687 6.60883 39.9687 6.16279C39.9687 5.62065 40.1741 5.19926 40.5873 4.89944C40.9996 4.59961 41.5795 4.44929 42.327 4.44929H43.1937V4.04022C43.1937 3.7289 43.1 3.48165 42.9144 3.29683C42.7279 3.11201 42.4544 3.02001 42.0913 3.02001C41.7734 3.02001 41.5073 3.10051 41.292 3.26069C41.0768 3.42086 40.97 3.61554 40.97 3.84308H40.0747C40.0747 3.58351 40.1667 3.33215 40.3515 3.08983C40.549 2.83761 40.8073 2.63975 41.1023 2.51483C41.4305 2.37111 41.7856 2.29887 42.1439 2.3029C42.7435 2.3029 43.2142 2.45322 43.5543 2.75304C43.8943 3.05286 44.0709 3.46604 44.0841 3.99258V6.38951C44.0841 6.86758 44.1449 7.24708 44.2664 7.52965V7.60686H43.3333ZM41.8547 6.92836C42.134 6.92836 42.3993 6.85608 42.649 6.71151C42.8996 6.56694 43.0811 6.37965 43.1937 6.14883V5.08015H42.4954C41.4046 5.08015 40.8592 5.39886 40.8592 6.03794C40.8592 6.31722 40.952 6.5349 41.1384 6.69261C41.3241 6.84951 41.5631 6.92836 41.8555 6.92836H41.8547ZM45.4789 7.60686V2.39901H47.5103C48.2035 2.39901 48.735 2.52058 49.1055 2.7629C49.4768 3.0044 49.6616 3.36008 49.6616 3.82829C49.6616 4.06897 49.5893 4.28665 49.4455 4.48051C49.301 4.67519 49.0874 4.82304 48.8048 4.92572C49.1194 4.99965 49.3716 5.14422 49.563 5.35944C49.7544 5.57383 49.8497 5.83094 49.8497 6.12911C49.8497 6.60719 49.6739 6.97354 49.3223 7.22654C48.9708 7.48036 48.4746 7.60686 47.8331 7.60686H45.4789ZM46.3693 5.32083V6.88976H47.8421C48.2142 6.88976 48.4927 6.82076 48.6775 6.68276C48.8623 6.54476 48.9543 6.3509 48.9543 6.10036C48.9543 5.5804 48.5724 5.32001 47.8084 5.32001H46.3693V5.32083ZM46.3693 4.60865H47.5193C48.3539 4.60865 48.7712 4.36469 48.7712 3.87676C48.7712 3.38883 48.3769 3.13747 47.5875 3.12104H46.3693V4.60783V4.60865ZM54.1614 7.60686C54.1104 7.50419 54.0685 7.32101 54.0365 7.05815C53.6225 7.48776 53.1288 7.70297 52.5538 7.70297C52.0404 7.70297 51.6199 7.55758 51.2905 7.26761C50.9619 6.97683 50.7976 6.60883 50.7976 6.16279C50.7976 5.62065 51.003 5.19926 51.4162 4.89944C51.8285 4.59961 52.4084 4.44929 53.1559 4.44929H54.0217V4.04022C54.0217 3.7289 53.9289 3.48165 53.7424 3.29683C53.5568 3.11201 53.2824 3.02001 52.9202 3.02001C52.6023 3.02001 52.3362 3.10051 52.1209 3.26069C51.9057 3.42086 51.7981 3.61554 51.7981 3.84308H50.9028C50.9028 3.58351 50.9956 3.33215 51.1796 3.08983C51.3773 2.8375 51.6359 2.63963 51.9312 2.51483C52.2594 2.37111 52.6145 2.29887 52.9728 2.3029C53.5724 2.3029 54.0431 2.45322 54.3832 2.75304C54.7232 3.05286 54.8998 3.46604 54.9122 3.99258V6.38951C54.9122 6.86758 54.9738 7.24708 55.0953 7.52965V7.60686H54.1614ZM52.6836 6.92836C52.9629 6.92836 53.2282 6.85608 53.4779 6.71151C53.7285 6.56694 53.91 6.37965 54.0217 6.14883V5.08015H53.3235C52.2335 5.08015 51.688 5.39886 51.688 6.03794C51.688 6.31722 51.7809 6.5349 51.9673 6.69261C52.153 6.84951 52.392 6.92836 52.6844 6.92836H52.6836ZM60.4814 7.60686H59.591V5.38326H57.199V7.60686H56.3037V2.39901H57.199V4.65629H59.591V2.39901H60.4814V7.60686ZM65.6983 3.12186H63.952V7.60686H63.0607V3.12186H61.3472V2.39901H65.6975V3.12186H65.6983ZM69.6198 7.60686C69.5689 7.50419 69.527 7.32101 69.495 7.05815C69.081 7.48776 68.5873 7.70297 68.0123 7.70297C67.4989 7.70297 67.0783 7.55758 66.7489 7.26761C66.4204 6.97683 66.2561 6.60883 66.2561 6.16279C66.2561 5.62065 66.4614 5.19926 66.8746 4.89944C67.287 4.59961 67.8669 4.44929 68.6144 4.44929H69.481V4.04022C69.481 3.7289 69.3874 3.48165 69.2017 3.29683C69.0153 3.11201 68.7417 3.02001 68.3787 3.02001C68.0608 3.02001 67.7946 3.10051 67.5794 3.26069C67.3642 3.42086 67.2574 3.61554 67.2574 3.84308H66.362C66.362 3.58351 66.454 3.33215 66.6389 3.08983C66.8363 2.83761 67.0947 2.63975 67.3897 2.51483C67.7179 2.37111 68.0729 2.29887 68.4312 2.3029C69.0309 2.3029 69.5015 2.45322 69.8416 2.75304C70.1817 3.05286 70.3583 3.46604 70.3714 3.99258V6.38951C70.3714 6.86758 70.4322 7.24708 70.5538 7.52965V7.60686H69.6198ZM68.1429 6.92836C68.4222 6.92836 68.6867 6.85608 68.9364 6.71151C69.1869 6.56694 69.3685 6.37965 69.481 6.14883V5.08015H68.7828C67.6919 5.08015 67.1465 5.39886 67.1465 6.03794C67.1465 6.31722 67.2393 6.5349 67.4258 6.69261C67.6114 6.84951 67.8505 6.92836 68.1429 6.92836ZM75.838 5.34465H75.2129V7.60686H74.3225V5.34465H73.6966L72.2385 7.60686H71.1107L72.9737 4.91176L71.2898 2.39901H72.3675L73.7105 4.55526H74.3217V2.39901H75.2121V4.55526H75.8183L77.1704 2.39901H78.2489L76.5593 4.91669L78.4231 7.60686H77.2961L75.8372 5.34465H75.838ZM82.5187 2.39901H83.4092V7.60686H82.5187V3.8094L80.1169 7.60686H79.2264V2.39901H80.1169V6.20222L82.5187 2.39901ZM88.626 3.12186H86.8789V7.60686H85.9884V3.12186H84.2749V2.39901H88.626V3.12186ZM92.7792 2.39901H93.6696V7.60686H92.7792V3.8094L90.3773 7.60686H89.4869V2.39901H90.3773V6.20222L92.7792 2.39901ZM100.239 3.82419C100.243 3.712 100.219 3.60051 100.171 3.49934C100.122 3.39817 100.049 3.31035 99.9593 3.24344C99.7737 3.10133 99.519 3.02986 99.1945 3.02986C98.8799 3.02986 98.6179 3.11201 98.4076 3.27547C98.1973 3.43894 98.0922 3.63115 98.0922 3.85294H97.2067C97.2067 3.40033 97.3956 3.02986 97.7743 2.74072C98.153 2.4524 98.6269 2.30783 99.1945 2.30783C99.8041 2.30783 100.279 2.43844 100.619 2.69965C100.959 2.96169 101.129 3.33461 101.129 3.81926C101.129 4.05336 101.059 4.26858 100.918 4.46408C100.763 4.67074 100.555 4.83189 100.316 4.93065C100.923 5.13601 101.226 5.54015 101.226 6.1439C101.226 6.62197 101.041 7.00065 100.672 7.27993C100.303 7.55922 99.8106 7.69886 99.1945 7.69886C98.5949 7.69886 98.0996 7.55101 97.7094 7.25776C97.32 6.96451 97.1245 6.56776 97.1245 6.06669H98.0109C98.0109 6.32051 98.1234 6.53736 98.3501 6.7189C98.576 6.89961 98.8578 6.99079 99.1945 6.99079C99.5346 6.99079 99.809 6.91194 100.018 6.75504C100.116 6.6865 100.195 6.59493 100.25 6.48837C100.304 6.38182 100.332 6.26353 100.33 6.1439C100.33 5.85147 100.243 5.64283 100.068 5.51551C99.8936 5.38901 99.6217 5.32576 99.2521 5.32576H98.3616V4.57497H99.3293C99.9355 4.55854 100.239 4.30801 100.239 3.82419Z" fill="white"/>
<path fill-rule="evenodd" clip-rule="evenodd" d="M89.8611 25.4249H91.4547V14.573H89.8611V25.4257V25.4249ZM104.195 18.4814L102.367 23.1849H102.313L100.423 18.4814H98.7088L101.548 25.0552L99.9269 28.7139H101.59L105.964 18.4814H104.195ZM95.1692 24.1911C94.6484 24.1911 93.9239 23.9282 93.9239 23.2719C93.9239 22.4316 94.8275 22.1088 95.6103 22.1088C96.3102 22.1088 96.6388 22.2657 97.0643 22.4735C96.9394 23.4789 96.09 24.1911 95.1692 24.1911ZM95.3606 18.2431C94.2114 18.2431 93.0171 18.7606 92.5267 19.9049L93.9363 20.507C94.2402 19.9049 94.7988 19.7102 95.3894 19.7102C96.2141 19.7102 97.0511 20.2137 97.0643 21.105V21.2192C96.7751 21.0508 96.1607 20.7994 95.4025 20.7994C93.8829 20.7994 92.3345 21.6512 92.3345 23.2415C92.3345 24.6955 93.5789 25.6319 94.9778 25.6319C96.0481 25.6319 96.6388 25.1407 97.0092 24.5681H97.0643V25.406H98.6003V21.2446C98.6003 19.32 97.1891 18.2431 95.3606 18.2431ZM85.5314 19.8039H83.2667V16.0828H85.5314C86.7184 16.0828 87.396 17.0849 87.396 17.9425C87.396 18.782 86.7184 19.8039 85.5314 19.8039ZM85.4903 14.5722H81.6748V25.4249H83.2659V21.3128H85.4887C87.2547 21.3128 88.9863 20.0117 88.9863 17.9425C88.9863 15.8733 87.2506 14.5722 85.4887 14.5722H85.4903ZM64.7016 24.1944C63.6025 24.1944 62.6834 23.258 62.6834 21.9683C62.6834 20.668 63.6025 19.7184 64.7016 19.7184C65.7859 19.7184 66.6385 20.668 66.6385 21.9691C66.6385 23.258 65.7851 24.1952 64.7016 24.1952V24.1944ZM66.5252 19.0867H66.4718C66.1136 18.6547 65.431 18.2637 64.5661 18.2637C62.7482 18.2637 61.0881 19.8876 61.0881 21.9683C61.0881 24.0383 62.7482 25.6491 64.5652 25.6491C65.431 25.6491 66.1136 25.2549 66.471 24.8113H66.5252V25.3403C66.5252 26.7507 65.7859 27.5105 64.5891 27.5105C63.6165 27.5105 63.0119 26.7942 62.7622 26.1921L61.3756 26.7819C61.7765 27.7602 62.8345 28.9644 64.5899 28.9644C66.4603 28.9644 68.0374 27.8448 68.0374 25.1193V18.4896H66.526V19.0867H66.5252ZM69.1365 25.4249H70.7301V14.573H69.1365V25.4257V25.4249ZM73.0794 21.8418C73.0375 20.4191 74.1636 19.6889 74.9736 19.6889C75.6061 19.6889 76.1425 20.0117 76.3207 20.4725L73.0785 21.8418H73.0794ZM78.0235 20.613C77.7245 19.7866 76.7996 18.2637 74.9185 18.2637C73.0539 18.2637 71.5006 19.7603 71.5006 21.9576C71.5006 24.026 73.0366 25.6491 75.0976 25.6491C76.7626 25.6491 77.7245 24.6141 78.1205 24.0129L76.8834 23.1734C76.471 23.7878 75.91 24.1944 75.0976 24.1944C74.291 24.1944 73.7119 23.819 73.3406 23.0756L78.1919 21.0319L78.0235 20.613ZM39.3942 19.3964V20.9654H43.0742C42.9666 21.8418 42.6791 22.4866 42.2372 22.9368C41.7 23.4789 40.8629 24.0819 39.3942 24.0819C37.1287 24.0819 35.3552 22.2205 35.3552 19.9139C35.3552 17.6074 37.1287 15.746 39.3942 15.746C40.6181 15.746 41.5094 16.2339 42.1665 16.8656L43.2533 15.7591C42.3341 14.8654 41.1102 14.1787 39.395 14.1787C36.2892 14.1787 33.6787 16.7514 33.6787 19.9139C33.6787 23.0764 36.2892 25.6491 39.395 25.6491C41.0732 25.6491 42.3333 25.0897 43.3256 24.0391C44.3409 23.0041 44.6571 21.5502 44.6571 20.3756C44.6571 20.0117 44.6275 19.6757 44.5741 19.3964H39.395H39.3942ZM48.8406 24.1944C47.7399 24.1944 46.792 23.2719 46.792 21.9576C46.792 20.6253 47.7407 19.7184 48.8406 19.7184C49.9397 19.7184 50.886 20.6253 50.886 21.9576C50.886 23.2719 49.9397 24.1944 48.8406 24.1944ZM48.8406 18.2637C46.8339 18.2637 45.2025 19.8162 45.2025 21.9576C45.2025 24.0819 46.8339 25.6491 48.8406 25.6491C50.8466 25.6491 52.4796 24.0819 52.4796 21.9576C52.4796 19.8162 50.8466 18.2637 48.8406 18.2637ZM56.7798 24.1944C55.6807 24.1944 54.736 23.2719 54.736 21.9576C54.736 20.6253 55.6807 19.7184 56.7798 19.7184C57.8788 19.7184 58.8284 20.6253 58.8284 21.9576C58.8284 23.2719 57.8788 24.1944 56.7798 24.1944ZM56.7798 18.2637C54.7771 18.2637 53.1408 19.8162 53.1408 21.9576C53.1408 24.0819 54.7771 25.6491 56.7798 25.6491C58.7865 25.6491 60.422 24.0819 60.422 21.9576C60.422 19.8162 58.7865 18.2637 56.7798 18.2637Z" fill="white"/>
<path d="M0.262696 24.8007V2.96466C0.262696 2.20237 0.704624 1.54359 1.34534 1.23145L13.9764 13.879L1.34041 26.5314C1.0169 26.3726 0.744419 26.1262 0.553915 25.8203C0.36341 25.5143 0.262517 25.1611 0.262696 24.8007ZM17.9842 17.8917L4.1727 25.8759L15.0648 14.969L17.9842 17.8917ZM22.277 12.3519C22.737 12.7043 23.0327 13.2588 23.0327 13.8831C23.0327 14.4975 22.7452 15.0446 22.2975 15.397L19.3642 17.0932L16.1541 13.879L19.3617 10.6672L22.277 12.3511V12.3519ZM4.18091 1.89023L17.9817 9.86877L15.0657 12.7889L4.18091 1.89023Z" fill="white"/>
</svg>
