<svg width="40" height="40" viewBox="0 0 40 40" fill="none" xmlns="http://www.w3.org/2000/svg">
<path fill-rule="evenodd" clip-rule="evenodd" d="M19.7901 39.1935C30.6131 39.1935 39.3869 30.4198 39.3869 19.5968C39.3869 8.77377 30.6131 0 19.7901 0C8.96713 0 0.193359 8.77377 0.193359 19.5968C0.193359 30.4198 8.96713 39.1935 19.7901 39.1935Z" fill="#C7D7FF"/>
<g clip-path="url(#clip0)">
<path d="M31.1183 13.0709C30.4804 11.9362 29.7881 11.7275 28.3787 11.6481C26.9706 11.5526 23.43 11.5129 20.3626 11.5129C17.2893 11.5129 13.7472 11.5526 12.3407 11.6467C10.9341 11.7275 10.2404 11.9347 9.59662 13.0709C8.93964 14.204 8.60159 16.1559 8.60159 19.5922C8.60159 19.5951 8.60159 19.5966 8.60159 19.5966C8.60159 19.5995 8.60159 19.601 8.60159 19.601V19.6039C8.60159 23.0255 8.93964 24.9921 9.59662 26.1135C10.2404 27.2481 10.9326 27.4539 12.3392 27.5494C13.7472 27.6317 17.2893 27.6802 20.3626 27.6802C23.43 27.6802 26.9706 27.6317 28.3801 27.5509C29.7896 27.4554 30.4819 27.2496 31.1197 26.115C31.7826 24.9935 32.1177 23.027 32.1177 19.6054C32.1177 19.6054 32.1177 19.601 32.1177 19.598C32.1177 19.598 32.1177 19.5951 32.1177 19.5936C32.1177 16.1559 31.7826 14.204 31.1183 13.0709ZM17.4201 24.0058V15.1873L24.7689 19.5966L17.4201 24.0058Z" fill="#2A66F9"/>
</g>
<defs>
<clipPath id="clip0">
<rect width="23.5161" height="23.5161" fill="white" transform="translate(8.60159 7.8385)"/>
</clipPath>
</defs>
</svg>
