<svg width="40" height="40" viewBox="0 0 40 40" fill="none" xmlns="http://www.w3.org/2000/svg">
<path fill-rule="evenodd" clip-rule="evenodd" d="M19.5968 39.1935C30.4198 39.1935 39.1935 30.4198 39.1935 19.5968C39.1935 8.77377 30.4198 0 19.5968 0C8.77377 0 0 8.77377 0 19.5968C0 30.4198 8.77377 39.1935 19.5968 39.1935Z" fill="#C7D7FF"/>

<path d="M30.9249 13.0708C30.2871 11.9362 29.5948 11.7275 28.1853 11.6481C26.7773 11.5526 23.2366 11.5129 20.1693 11.5129C17.096 11.5129 13.5539 11.5526 12.1473 11.6466C10.7408 11.7275 10.047 11.9347 9.40329 13.0708C8.74631 14.204 8.40826 16.1558 8.40826 19.5921C8.40826 19.5951 8.40826 19.5965 8.40826 19.5965C8.40826 19.5995 8.40826 19.601 8.40826 19.601V19.6039C8.40826 23.0255 8.74631 24.992 9.40329 26.1135C10.047 27.2481 10.7393 27.4539 12.1459 27.5494C13.5539 27.6317 17.096 27.6802 20.1693 27.6802C23.2366 27.6802 26.7773 27.6317 28.1868 27.5509C29.5963 27.4553 30.2885 27.2496 30.9264 26.1149C31.5893 24.9935 31.9244 23.027 31.9244 19.6054C31.9244 19.6054 31.9244 19.601 31.9244 19.598C31.9244 19.598 31.9244 19.5951 31.9244 19.5936C31.9244 16.1558 31.5893 14.204 30.9249 13.0708ZM17.2268 24.0058V15.1873L24.5756 19.5965L17.2268 24.0058Z" fill="#2A66F9"/>

<defs>
<clipPath id="clip0">
<rect width="23.5161" height="23.5161" fill="white" transform="translate(8.40826 7.8385)"/>
</clipPath>
</defs>
</svg>
