<svg width="64" height="65" viewBox="0 0 64 65" fill="none" xmlns="http://www.w3.org/2000/svg">
<rect y="0.300049" width="63.7556" height="63.7556" rx="6" fill="#F5F5F5"/>
<path opacity="0.6" d="M33.9892 43.9231C43.0741 43.9231 50.4388 36.5783 50.4388 27.518C50.4388 18.4578 43.0741 11.113 33.9892 11.113C24.9043 11.113 17.5396 18.4578 17.5396 27.518C17.5396 36.5783 24.9043 43.9231 33.9892 43.9231Z" fill="url(#paint0_linear)"/>
<path opacity="0.6" d="M30.464 43.3373C39.5489 43.3373 46.9137 35.9925 46.9137 26.9323C46.9137 17.872 39.5489 10.5272 30.464 10.5272C21.3792 10.5272 14.0144 17.872 14.0144 26.9323C14.0144 35.9925 21.3792 43.3373 30.464 43.3373Z" fill="url(#paint1_linear)"/>
<path opacity="0.6" d="M29.8768 39.8213C38.9617 39.8213 46.3264 32.4765 46.3264 23.4162C46.3264 14.356 38.9617 7.01116 29.8768 7.01116C20.7919 7.01116 13.4271 14.356 13.4271 23.4162C13.4271 32.4765 20.7919 39.8213 29.8768 39.8213Z" fill="url(#paint2_linear)"/>
<path opacity="0.6" d="M33.4018 40.4071C42.4867 40.4071 49.8514 33.0623 49.8514 24.002C49.8514 14.9417 42.4867 7.59694 33.4018 7.59694C24.3169 7.59694 16.9521 14.9417 16.9521 24.002C16.9521 33.0623 24.3169 40.4071 33.4018 40.4071Z" fill="url(#paint3_linear)"/>
<path d="M31.9329 39.2358C39.5577 39.2358 45.7388 33.0714 45.7388 25.4672C45.7388 17.8631 39.5577 11.6987 31.9329 11.6987C24.3081 11.6987 18.1269 17.8631 18.1269 25.4672C18.1269 33.0714 24.3081 39.2358 31.9329 39.2358Z" fill="white"/>
<path opacity="0.7" fill-rule="evenodd" clip-rule="evenodd" d="M28.4132 30.9498C29.3551 32.0628 31.0234 32.2036 32.1395 31.2642C32.2997 31.1293 32.4433 30.9759 32.5672 30.8072L40.1065 20.5427C40.3302 20.2382 40.264 19.8105 39.9586 19.5874C39.724 19.416 39.4066 19.4109 39.1666 19.5746L29.0197 26.4958C27.6351 27.4402 27.2803 29.3253 28.2273 30.7061C28.2851 30.7904 28.3471 30.8717 28.4132 30.9498Z" fill="url(#paint4_linear)"/>
<path fill-rule="evenodd" clip-rule="evenodd" d="M24.0268 26.2716L29.5124 32.2635C30.0228 32.8211 30.8899 32.8604 31.449 32.3513C31.5129 32.293 31.5712 32.2289 31.623 32.1597L35.0134 27.6317C35.2399 27.3292 35.1776 26.9009 34.8743 26.675C34.7768 26.6024 34.6616 26.557 34.5406 26.5434L24.4638 25.4165C24.1816 25.3849 23.9273 25.5875 23.8956 25.8688C23.8791 26.0157 23.9269 26.1625 24.0268 26.2716Z" fill="url(#paint5_linear)"/>
<path d="M16.5218 50.2507H14.5085V49.1333H20.0955V50.2507H18.0922V55.6665H16.5218V50.2507Z" fill="#6C6C6C"/>
<path d="M23.6664 49.1333H28.6494V50.2507H25.2368V51.7506H28.3172V52.868H25.2368V54.5491H28.7501V55.6665H23.6664V49.1333Z" fill="#6C6C6C"/>
<path d="M35.3674 55.7672C35.0721 55.7672 34.8071 55.7538 34.5722 55.7269C34.344 55.7001 34.0923 55.6498 33.8172 55.5759C33.5085 55.4954 33.2534 55.3914 33.0521 55.2639C32.8508 55.1297 32.683 54.9451 32.5488 54.7102C32.4078 54.4753 32.3374 54.1968 32.3374 53.8747V51.0057C32.3374 49.6903 33.3474 49.0326 35.3674 49.0326C35.8842 49.0326 36.5754 49.1064 37.4412 49.2541V50.4319C36.6627 50.244 35.9781 50.15 35.3876 50.15C35.1393 50.15 34.9446 50.1567 34.8037 50.1701C34.6695 50.1836 34.5285 50.2171 34.3809 50.2708C34.0655 50.3782 33.9078 50.6164 33.9078 50.9855V53.7639C33.9078 54.3545 34.448 54.6498 35.5285 54.6498C35.9916 54.6498 36.6425 54.5525 37.4814 54.3579V55.5457C36.7633 55.6934 36.0587 55.7672 35.3674 55.7672Z" fill="#6C6C6C"/>
<path d="M41.1525 49.1333H42.7229V51.7506H45.5013V49.1333H47.0717V55.6665H45.5013V52.868H42.7229V55.6665H41.1525V49.1333Z" fill="#6C6C6C"/>
<defs>
<linearGradient id="paint0_linear" x1="36.7369" y1="23.0544" x2="47.4266" y2="44.9326" gradientUnits="userSpaceOnUse">
<stop stop-color="#3BB9EB"/>
<stop offset="1" stop-color="#585AE6"/>
</linearGradient>
<linearGradient id="paint1_linear" x1="33.2117" y1="22.4686" x2="43.9015" y2="44.3468" gradientUnits="userSpaceOnUse">
<stop stop-color="#3BB9EB"/>
<stop offset="1" stop-color="#585AE6"/>
</linearGradient>
<linearGradient id="paint2_linear" x1="32.6244" y1="18.9526" x2="43.3142" y2="40.8308" gradientUnits="userSpaceOnUse">
<stop stop-color="#3BB9EB"/>
<stop offset="1" stop-color="#585AE6"/>
</linearGradient>
<linearGradient id="paint3_linear" x1="36.1495" y1="19.5384" x2="46.8392" y2="41.4166" gradientUnits="userSpaceOnUse">
<stop stop-color="#3BB9EB"/>
<stop offset="1" stop-color="#585AE6"/>
</linearGradient>
<linearGradient id="paint4_linear" x1="32.6752" y1="25.6757" x2="35.3254" y2="29.4251" gradientUnits="userSpaceOnUse">
<stop stop-color="#3BB9EB"/>
<stop offset="1" stop-color="#585AE6"/>
</linearGradient>
<linearGradient id="paint5_linear" x1="28.2902" y1="26.487" x2="29.8129" y2="33.3117" gradientUnits="userSpaceOnUse">
<stop stop-color="#3BB9EB"/>
<stop offset="1" stop-color="#585AE6"/>
</linearGradient>
</defs>
</svg>
