<svg width="64" height="65" viewBox="0 0 64 65" fill="none" xmlns="http://www.w3.org/2000/svg">
<rect y="0.766724" width="63.7556" height="63.7556" rx="6" fill="#1BBDE3"/>
<path d="M18.2764 32.7737C19.7349 31.0509 21.8611 30.2641 23.9256 30.4035C27.6851 30.6525 30.8384 27.7745 31.5266 24.3088C31.8963 22.4564 31.1568 20.7237 31.4033 18.8713C31.6806 16.7501 32.7386 14.7584 34.3512 13.3044C34.6182 13.0654 34.8956 12.8363 35.1934 12.6272C38.6344 10.1375 43.4723 10.257 46.8002 12.8762C51.2478 16.3816 51.4943 22.7353 47.5501 26.5595C46.2045 27.8641 44.4584 28.7603 42.5786 29.099C40.5347 29.4674 38.5728 28.7106 36.5493 28.9695C35.0188 29.1587 33.5706 29.8459 32.4715 30.9114C29.0819 34.1978 29.0819 39.5756 32.4715 42.852L32.7078 43.081C34.1047 44.4354 35.9227 45.2321 37.8538 45.6006C38.7166 45.76 39.5383 46.1583 40.206 46.8056C41.9623 48.4886 42.0137 51.307 40.3292 53.0497C38.5419 54.8921 35.5427 54.922 33.7143 53.1493C32.9645 52.4223 32.5229 51.5061 32.3997 50.56C32.1736 48.7973 31.2287 47.1841 29.9242 45.9292L29.7804 45.7898C28.1164 44.1765 25.8362 43.3798 23.4738 43.3898C21.5119 43.3898 19.5398 42.5632 18.1839 40.9001C16.2734 38.5199 16.3145 35.0942 18.2764 32.7737Z" fill="white"/>
<path d="M13.2692 12.0775C15.0779 10.4013 17.9681 10.4205 19.7577 12.1254C20.9827 13.2939 21.4421 14.9413 21.1358 16.4833C20.9253 17.5657 21.2219 18.6767 21.9971 19.4525L22.3799 19.8357C22.9063 20.3625 23.6144 20.621 24.3609 20.669C25.0978 20.7073 25.8155 21.0521 26.3132 21.7034C27.031 22.642 27.0214 24.0021 26.2844 24.9312C25.2892 26.1859 23.4518 26.2625 22.3512 25.1611C21.8823 24.6917 21.6238 24.0883 21.5856 23.4657C21.5377 22.6707 21.2124 21.9237 20.6573 21.3586L20.3702 21.0712C19.6046 20.305 18.504 19.9889 17.4417 20.1996C15.9392 20.5061 14.3123 20.0751 13.1352 18.9066C11.2403 17.0197 11.2786 13.9164 13.2692 12.0775Z" fill="white"/>
</svg>
